<svg width="500" height="500" viewBox="0 0 500 500" fill="none" xmlns="http://www.w3.org/2000/svg">
<g clip-path="url(#clip0_1944_9)">
<path d="M241.4 198.5L240.112 199.628L241.4 198.5ZM251.176 134.92C252.356 138.879 253.866 142.828 255.706 146.784L251.176 134.92Z" stroke="#9F573B" stroke-width="80"/>
<path d="M160 37.8998C158.1 38.8998 155.2 41.5998 153.5 43.8998C151.1 47.2998 150.5 49.2998 150.2 54.7998C149.9 60.9998 150.1 61.7998 152.8 65.5998C158.1 72.8998 169.7 76.2998 176.9 72.5998C182.7 69.5998 188 61.0998 188 54.9998C188 41.5998 171.7 31.5998 160 37.8998ZM173.2 50.6998C177.3 54.3998 174.2 60.9998 168.4 60.9998C162.9 60.9998 160.1 54.7998 163.7 50.7998C165.7 48.5998 170.7 48.4998 173.2 50.6998Z" stroke="#9F573B" stroke-width="5"/>
<path d="M320 37.7996C312.8 41.7996 307.9 51.4996 309.4 59.0996C310.8 66.8997 320.1 73.8997 329 73.9997C335.1 73.9997 339.8 71.2997 343.8 65.5997C352.1 53.2996 344.1 37.1996 329.2 36.1996C324.9 35.9996 322.6 36.3996 320 37.7996ZM333 50.9996C335.4 53.3996 335.5 55.7996 333.4 58.7996C330.2 63.3996 322 60.5996 322 54.8996C322 49.2996 328.9 46.8996 333 50.9996Z" stroke="#9F573B" stroke-width="5"/>
<mask id="path-4-inside-1_1944_9" fill="white">
<path d="M63.7 64.0999C60.3 68.8999 62.1 90.7999 67.5 109.5C70.5 120 77.1 134.3 83.1 143.2C93.3 158.3 110.2 172.3 126.7 179.4C141.2 185.6 163.2 190 179.7 190C186.1 190 187.1 189.7 188.8 187.5C190.4 185.5 190.7 183.9 190.3 177.8C187.7 130.2 168.7 98.0999 131.6 78.3999C115.5 69.8999 92.5 63.3999 74.4 62.3C65.7 61.7 65.2 61.8 63.7 64.0999ZM87.8 76.5999C135.9 86.2999 166.5 113.9 175.1 155.5C176.1 160.4 177 165.2 177 166C177 166.8 166.3 156.8 153.2 143.7C132.2 122.8 129 120 126.3 120C122.8 120 120 122.9 120 126.5C120 127.8 128.2 136.7 143.5 152C156.4 164.9 167 175.8 167 176.1C167 176.9 157.1 175.3 147.8 172.9C109.4 163.2 84.6 135.3 76.6 93.0999C75.7 88.4999 75 82.5999 75 79.8999C75 75.2999 75.2 74.9999 77.5 74.9999C78.9 74.9999 83.6 75.6999 87.8 76.5999Z"/>
</mask>
<path d="M63.7 64.0999L130.709 107.801L129.87 109.088L128.982 110.341L63.7 64.0999ZM67.5 109.5L144.36 87.3051L144.391 87.4136L144.422 87.5222L67.5 109.5ZM83.1 143.2L16.8074 187.98L16.7868 187.95L16.7662 187.919L83.1 143.2ZM126.7 179.4L95.2478 252.958L95.1634 252.922L95.0791 252.885L126.7 179.4ZM188.8 187.5L125.497 138.584L125.909 138.051L126.331 137.524L188.8 187.5ZM190.3 177.8L110.472 183.035L110.443 182.599L110.419 182.163L190.3 177.8ZM131.6 78.3999L168.95 7.65418L169.034 7.69862L169.119 7.74327L131.6 78.3999ZM74.4 62.3L69.5471 142.153L69.2214 142.133L68.8959 142.11L74.4 62.3ZM87.8 76.5999L71.9854 155.021L71.5109 154.926L71.0377 154.824L87.8 76.5999ZM175.1 155.5L253.443 139.304L253.464 139.403L253.484 139.503L175.1 155.5ZM153.2 143.7L209.633 86.9965L209.701 87.0638L209.769 87.1313L153.2 143.7ZM147.8 172.9L167.393 95.3362L167.592 95.3864L167.79 95.4377L147.8 172.9ZM76.6 93.0999L155.111 77.739L155.156 77.9691L155.2 78.1994L76.6 93.0999ZM128.982 110.341C133.254 104.311 135.832 98.8115 137.353 95.0276C138.916 91.1365 139.85 87.8328 140.41 85.5258C141.491 81.0702 141.785 77.7926 141.879 76.5322C142.069 73.979 141.884 73.2705 142.024 74.9536C142.288 78.118 143.132 83.0547 144.36 87.3051L-9.35954 131.695C-13.5322 117.245 -16.2878 101.882 -17.4245 88.2213C-17.9844 81.4919 -18.3191 73.2396 -17.6789 64.6458C-17.36 60.3651 -16.6909 54.443 -15.0785 47.798C-13.7158 42.1817 -10.3482 30.2345 -1.58191 17.8585L128.982 110.341ZM144.422 87.5222C144.398 87.4387 144.571 88.0364 145.049 89.2835C145.506 90.4732 146.098 91.8812 146.785 93.3677C147.474 94.8562 148.146 96.1818 148.721 97.2309C149.33 98.343 149.599 98.7258 149.434 98.4804L16.7662 187.919C5.91109 171.818 -4.18621 149.802 -9.42189 131.478L144.422 87.5222ZM149.393 98.4194C149.681 98.847 151.07 100.617 153.622 102.734C154.779 103.694 155.891 104.487 156.843 105.083C157.814 105.692 158.344 105.924 158.321 105.914L95.0791 252.885C64.4015 239.685 35.5111 215.669 16.8074 187.98L149.393 98.4194ZM158.152 105.842C162.253 107.595 173.501 110 179.7 110V270C152.899 270 120.148 263.604 95.2478 252.958L158.152 105.842ZM179.7 110C181.076 110 180.272 109.971 178.692 110.068C177.323 110.152 171.779 110.503 164.64 112.482C156.155 114.835 146.971 119.022 138.367 125.732C130.892 131.561 126.438 137.367 125.497 138.584L252.103 236.416C246.051 244.247 232.133 259.806 207.385 266.667C193.578 270.495 179.992 270 179.7 270V110ZM126.331 137.524C124.217 140.166 120.585 145.098 117.332 152.038C113.976 159.194 112.195 165.962 111.296 171.603C110.487 176.68 110.456 180.504 110.46 181.848C110.464 183.252 110.529 183.914 110.472 183.035L270.129 172.565C270.297 175.137 271.116 185.396 269.304 196.772C266.532 214.173 259.143 227.634 251.27 237.475L126.331 137.524ZM110.419 182.163C109.641 167.91 106.709 161.206 105.012 158.334C103.629 155.993 101.151 152.81 94.0816 149.057L169.119 7.74327C199.149 23.6895 224.721 46.4065 242.763 76.9408C260.491 106.944 268.36 140.09 270.181 173.437L110.419 182.163ZM94.2498 149.146C88.0715 145.884 76.1335 142.553 69.5471 142.153L79.2529 -17.5527C108.867 -15.753 142.929 -6.08396 168.95 7.65418L94.2498 149.146ZM68.8959 142.11C66.4873 141.944 66.3521 141.953 66.8544 141.968C67.2352 141.98 68.5525 142.015 70.4142 141.949C72.2276 141.885 75.5474 141.695 79.7303 140.986C89.4221 139.341 102.836 135.035 115.56 124.582C121.058 120.066 124.855 115.67 127.133 112.771C129.225 110.109 130.62 107.938 130.709 107.801L-3.3088 20.3985C-3.06978 20.032 3.06252 9.932 14.0022 0.945881C27.5145 -10.1535 41.878 -14.879 52.9698 -16.7607C61.8345 -18.2645 69.3058 -18.0307 71.6831 -17.9589C74.7729 -17.8656 77.9628 -17.6444 79.9042 -17.5105L68.8959 142.11ZM103.615 -1.82134C176.868 12.9511 237.148 60.479 253.443 139.304L96.7567 171.696C95.7204 166.683 94.1179 164.791 92.637 163.453C90.6355 161.645 84.965 157.639 71.9854 155.021L103.615 -1.82134ZM253.484 139.503C254.051 142.28 254.639 145.269 255.118 147.886C255.348 149.143 255.63 150.73 255.882 152.343C256.004 153.12 256.191 154.363 256.369 155.817C256.414 156.187 257 160.589 257 166H97.0001C97.0001 167.758 97.0592 169.197 97.1097 170.149C97.1625 171.145 97.226 171.979 97.2781 172.59C97.3793 173.78 97.4873 174.709 97.5501 175.223C97.6746 176.242 97.7841 176.941 97.8056 177.079C97.858 177.413 97.852 177.344 97.732 176.689C97.5109 175.481 97.1491 173.62 96.7157 171.497L253.484 139.503ZM257 166C257 176.337 254.919 194.604 242.048 212.589C228.085 232.098 208.65 241.282 192.703 244.481C168.047 249.427 148.891 240.991 147.269 240.345C137.854 236.594 131.191 231.734 130.673 231.372C127.031 228.825 124.131 226.349 123.223 225.575C120.575 223.318 117.749 220.72 115.337 218.462C110.201 213.654 103.596 207.233 96.6315 200.268L209.769 87.1313C215.904 93.2671 221.199 98.396 224.688 101.662C226.589 103.442 227.256 104.013 227.024 103.816C226.903 103.712 226.515 103.383 225.93 102.914C225.469 102.545 224.174 101.516 222.357 100.245C222.157 100.106 215.736 95.3915 206.484 91.7057C203.641 90.5728 198.782 88.8191 192.513 87.5742C186.86 86.4516 175.381 84.7684 161.235 87.6059C145.308 90.8007 125.889 99.9751 111.937 119.47C99.0754 137.441 97.0001 155.688 97.0001 166H257ZM96.7667 200.403C91.5436 195.205 87.6963 191.401 84.7708 188.558C81.7037 185.579 80.3869 184.377 80.0239 184.058C79.8944 183.944 80.4777 184.467 81.5772 185.316C82.6112 186.114 84.9531 187.864 88.3196 189.831C91.7776 191.853 97.1338 194.589 104.145 196.716C111.643 198.991 119.149 200 126.3 200V39.9999C161.924 39.9999 184.882 63.202 185.751 63.9672C191.772 69.2675 199.803 77.2132 209.633 86.9965L96.7667 200.403ZM126.3 200C169.409 200 200 164.617 200 126.5H40C40 81.1827 76.1913 39.9999 126.3 39.9999V200ZM200 126.5C200 116.619 198.154 108.856 196.893 104.481C195.539 99.7862 194.001 96.0949 192.924 93.7253C190.826 89.1108 188.75 85.7603 187.795 84.2649C185.797 81.1386 184.14 79.0924 183.922 78.8204C183.217 77.9426 183.272 78.0827 184.843 79.7872C187.702 82.8899 192.678 88.0405 200.069 95.4313L86.9315 208.568C79.0224 200.659 72.2483 193.71 67.1824 188.213C64.7906 185.617 61.8389 182.332 59.1191 178.942C57.893 177.414 55.4758 174.339 52.9699 170.418C51.7603 168.525 49.4932 164.835 47.2679 159.94C45.9912 157.131 40 144.207 40 126.5H200ZM200.069 95.4313C206.708 102.071 212.834 108.273 217.388 112.948C219.627 115.246 221.688 117.381 223.303 119.092C224.04 119.872 225.088 120.99 226.127 122.151C226.537 122.608 227.67 123.878 228.975 125.484C229.494 126.123 231.105 128.113 232.943 130.791C233.772 132 235.768 134.962 237.874 138.987C238.928 141.001 240.712 144.606 242.388 149.326C243.724 153.089 247 162.969 247 176.1H87.0001C87.0001 183.202 87.9482 189.031 88.8041 192.992C89.6853 197.07 90.7455 200.426 91.6082 202.856C93.2815 207.569 95.0618 211.165 96.1105 213.169C98.2065 217.175 100.187 220.111 100.996 221.29C102.792 223.909 104.342 225.819 104.78 226.359C105.924 227.766 106.817 228.758 106.911 228.863C107.32 229.32 107.439 229.437 106.981 228.952C106.206 228.131 104.811 226.679 102.787 224.602C98.8165 220.526 93.1918 214.829 86.9315 208.568L200.069 95.4313ZM247 176.1C247 226.774 205.818 246.616 198.06 249.899C186.703 254.704 176.955 255.656 174.309 255.914C167.198 256.606 161.398 256.197 159.732 256.08C154.977 255.748 150.601 255.084 147.868 254.633C141.75 253.624 134.623 252.12 127.81 250.362L167.79 95.4377C170.277 96.0795 172.75 96.5756 173.907 96.7665C174.811 96.9156 173.492 96.6517 170.884 96.4694C170.291 96.428 165.338 96.0309 158.804 96.667C156.447 96.8965 146.92 97.8037 135.713 102.546C128.105 105.765 87.0001 125.526 87.0001 176.1H247ZM128.207 250.464C56.3386 232.309 11.1412 177.32 -2.00007 108L155.2 78.1994C156.971 87.5426 159.733 91.0731 160.519 91.9557C161.05 92.5507 162.449 94.0874 167.393 95.3362L128.207 250.464ZM-1.91138 108.461C-3.26605 101.537 -4.99998 89.9476 -4.99998 79.8999H155C155 78.6018 154.96 77.6406 154.937 77.1585C154.911 76.6309 154.885 76.2765 154.873 76.1292C154.851 75.8558 154.849 75.8915 154.889 76.223C154.925 76.5257 154.975 76.8895 155.03 77.2447C155.087 77.6142 155.121 77.7877 155.111 77.739L-1.91138 108.461ZM-4.99998 79.8999C-4.99998 78.9757 -5.02196 75.0588 -4.67151 70.7334C-4.45209 68.0251 -3.51453 54.0791 4.38786 38.8597C15.5189 17.4222 34.3556 3.98324 53.6987 -1.66953C61.1712 -3.85326 67.3901 -4.49827 70.6546 -4.74699C73.9817 -5.00048 76.6742 -5.00006 77.5 -5.00006V155C77.7508 155 79.934 155.01 82.8099 154.791C85.6232 154.576 91.4492 153.991 98.5795 151.907C106.175 149.687 115.865 145.593 125.433 137.999C135.171 130.27 141.925 121.183 146.387 112.59C153.952 98.0208 154.696 85.0123 154.806 83.654C155.047 80.6785 155 78.5242 155 79.8999H-4.99998ZM77.5 -5.00006C85.2436 -5.00006 92.6637 -3.77611 93.725 -3.61338C97.034 -3.106 100.811 -2.42808 104.562 -1.62426L71.0377 154.824C70.5889 154.728 69.916 154.606 69.4751 154.538C69.2599 154.505 69.4887 154.545 70.1004 154.614C70.4073 154.649 71.0808 154.722 72.0146 154.794C72.4947 154.832 73.1716 154.878 73.9975 154.918C74.7863 154.955 75.9997 155 77.5 155V-5.00006Z" fill="#9F573B" mask="url(#path-4-inside-1_1944_9)"/>
<mask id="path-6-inside-2_1944_9" fill="white">
<path d="M412.4 63.6001C387.1 67.8001 362.1 80.2001 344.2 97.4001C325.6 115.2 315 138.3 312 167.1C310.5 182.3 310.6 185.6 313.1 188.1C315.2 190.2 315.9 190.3 326.9 189.7C388.8 186.5 428.4 151.5 438 91.3001C439.7 80.5001 439.8 65.7001 438.1 63.7001C436.4 61.6001 424.5 61.5001 412.4 63.6001ZM427 78.9001C427 85.2001 424.3 99.0001 421.1 108.7C413.2 132.9 399.2 151.2 380 162.6C375.9 165 370 168 367 169.1C360.2 171.7 345.2 175.5 338.5 176.4L333.5 177L357.1 153.3C370.1 140.2 381 128.7 381.4 127.7C382 125.8 380.5 122 378.6 120.8C374.8 118.2 372.6 119.9 348.6 143.7L324.8 167.5L325.4 161.9C325.7 158.8 327.1 152.3 328.5 147.4C337.5 116.3 359.7 93.9001 393.3 82.1001C402.8 78.8001 418.4 75.2001 423.8 75.1001C426.9 75.0001 427 75.2001 427 78.9001Z"/>
</mask>
<path d="M412.4 63.6001L426.079 142.422L425.79 142.472L425.501 142.52L412.4 63.6001ZM344.2 97.4001L399.629 155.085L399.57 155.142L399.512 155.198L344.2 97.4001ZM312 167.1L232.386 159.244L232.408 159.027L232.43 158.812L312 167.1ZM326.9 189.7L322.543 109.819L322.656 109.813L322.77 109.807L326.9 189.7ZM438 91.3001L517.027 103.74L517.014 103.819L517.001 103.898L438 91.3001ZM438.1 63.7001L377.145 115.512L376.523 114.781L375.92 114.036L438.1 63.7001ZM421.1 108.7L345.049 83.8738L345.088 83.7553L345.127 83.637L421.1 108.7ZM380 162.6L420.843 231.388L420.629 231.516L420.414 231.641L380 162.6ZM367 169.1L338.429 94.3759L338.943 94.1794L339.459 93.99L367 169.1ZM338.5 176.4L349.15 255.688L348.591 255.763L348.031 255.83L338.5 176.4ZM333.5 177L343.031 256.43L114.157 283.895L276.812 120.551L333.5 177ZM357.1 153.3L413.885 209.651L413.836 209.7L413.788 209.749L357.1 153.3ZM381.4 127.7L457.686 151.791L456.787 154.638L455.678 157.411L381.4 127.7ZM378.6 120.8L335.88 188.439L334.638 187.654L333.425 186.825L378.6 120.8ZM348.6 143.7L292.031 87.1316L292.149 87.0132L292.268 86.8954L348.6 143.7ZM324.8 167.5L381.368 224.069L221.11 384.326L245.255 158.977L324.8 167.5ZM325.4 161.9L405.028 169.606L404.988 170.015L404.944 170.423L325.4 161.9ZM328.5 147.4L251.578 125.422L251.615 125.292L251.653 125.161L328.5 147.4ZM393.3 82.1001L366.792 6.61949L366.92 6.57434L367.049 6.52963L393.3 82.1001ZM423.8 75.1001L426.379 155.059L425.83 155.076L425.281 155.086L423.8 75.1001ZM425.501 142.52C415.6 144.164 405.505 149.44 399.629 155.085L288.77 39.7149C318.695 10.9606 358.599 -8.56347 399.298 -15.3198L425.501 142.52ZM399.512 155.198C396.472 158.107 392.89 162.71 391.569 175.389L232.43 158.812C237.11 113.89 254.728 72.2929 288.888 39.6023L399.512 155.198ZM391.613 174.957C391.255 178.583 391.089 180.555 391.017 181.661C390.927 183.034 391.101 181.418 390.952 178.417C390.805 175.434 390.211 167.507 386.552 157.769C382.328 146.523 375.92 137.783 369.668 131.532L256.531 244.669C249.03 237.167 241.671 227.077 236.772 214.034C232.439 202.499 231.444 192.329 231.147 186.308C230.647 176.181 231.795 165.232 232.386 159.244L391.613 174.957ZM369.668 131.532C369.602 131.465 363.355 124.88 353.377 119.349C342.265 113.19 332.087 111.173 325.978 110.457C323.181 110.129 321.047 110.053 320.006 110.03C319.434 110.018 319.002 110.018 318.749 110.019C318.494 110.021 318.349 110.025 318.348 110.025C318.344 110.025 318.43 110.023 318.631 110.015C318.831 110.007 319.106 109.995 319.478 109.978C320.245 109.942 321.217 109.891 322.543 109.819L331.257 269.581C329.263 269.69 317.732 270.586 307.347 269.368C299.425 268.44 287.991 266.041 275.813 259.292C264.769 253.171 257.648 245.785 256.531 244.669L369.668 131.532ZM322.77 109.807C339.428 108.946 346.362 104.34 349.037 101.973C351.585 99.7168 356.565 93.9577 358.998 78.7018L517.001 103.898C509.834 148.842 490.214 190.683 455.088 221.777C420.087 252.76 376.272 267.255 331.03 269.593L322.77 109.807ZM358.973 78.8607C359.114 77.9652 359.317 75.6395 359.326 73.8227C359.33 72.8478 359.267 73.7984 359.525 76.1276C359.639 77.1621 360.016 80.3786 361.112 84.6971C361.669 86.8929 362.715 90.5936 364.574 95.0458C366.212 98.9679 369.916 107.008 377.145 115.512L499.055 11.8882C511.911 27.013 515.594 42.9683 516.195 45.3374C517.604 50.8903 518.238 55.6756 518.556 58.5476C519.22 64.5518 519.344 70.2524 519.324 74.5775C519.282 83.3607 518.586 93.835 517.027 103.74L358.973 78.8607ZM375.92 114.036C382.767 122.494 390.001 127.855 395.028 131.022C400.178 134.266 404.762 136.301 407.931 137.537C414.059 139.928 418.987 140.902 421.193 141.291C425.783 142.099 428.69 142.074 428.724 142.074C429.324 142.077 428.072 142.076 426.079 142.422L398.72 -15.2216C408.828 -16.9759 419.576 -17.977 429.575 -17.9238C434.309 -17.8986 441.267 -17.6363 448.944 -16.2843C452.694 -15.6239 458.925 -14.3133 466.076 -11.5237C471.525 -9.39805 487.156 -2.84711 500.279 13.3642L375.92 114.036ZM507 78.9001C507 97.1197 501.609 120.01 497.072 133.763L345.127 83.637C345.242 83.2887 345.509 82.4138 345.854 81.0627C346.188 79.7531 346.503 78.354 346.762 77.0436C347.029 75.6883 347.158 74.8204 347.196 74.5348C347.212 74.4092 347.177 74.6472 347.133 75.2007C347.095 75.676 347 76.9883 347 78.9001H507ZM497.15 133.526C484.084 173.551 458.94 208.768 420.843 231.388L339.157 93.8117C339.459 93.6321 342.315 92.2493 345.049 83.8738L497.15 133.526ZM420.414 231.641C414.874 234.884 404.182 240.675 394.54 244.21L339.459 93.99C338.889 94.199 338.422 94.3802 338.074 94.5182C337.722 94.6579 337.439 94.7749 337.234 94.8613C337.026 94.9486 336.867 95.0175 336.762 95.064C336.655 95.111 336.583 95.1433 336.55 95.1586C336.489 95.1864 336.52 95.1731 336.645 95.1127C336.766 95.0543 336.94 94.9695 337.159 94.8592C337.377 94.7497 337.618 94.6265 337.873 94.4933C338.128 94.3604 338.38 94.2262 338.621 94.0959C338.863 93.9652 339.075 93.8482 339.251 93.7499C339.428 93.6501 339.54 93.5854 339.585 93.5589L420.414 231.641ZM395.571 243.824C383.042 248.615 362.031 253.958 349.15 255.688L327.849 97.1122C327.069 97.2171 326.723 97.2865 326.948 97.2452C327.117 97.2143 327.511 97.1384 328.139 97.0045C329.415 96.7324 331.089 96.3417 332.932 95.8714C334.774 95.4014 336.454 94.9363 337.752 94.5489C339.293 94.0894 339.375 94.014 338.429 94.3759L395.571 243.824ZM348.031 255.83L343.031 256.43L323.968 97.5699L328.968 96.9699L348.031 255.83ZM276.812 120.551L300.412 96.8513L413.788 209.749L390.188 233.449L276.812 120.551ZM300.315 96.9487C306.496 90.7197 312.041 85.0085 315.94 80.8996C317.942 78.7893 319.201 77.4262 319.802 76.759C320.169 76.3509 319.86 76.6803 319.219 77.4519C319.022 77.6894 318.726 78.0497 318.363 78.5069C318.017 78.9425 317.473 79.6388 316.818 80.5277C316.231 81.323 315.122 82.8576 313.831 84.8859C313.17 85.9263 312.238 87.4447 311.205 89.3312C310.676 90.2957 310.054 91.48 309.389 92.8527C308.732 94.2086 307.941 95.9413 307.122 97.9888L455.678 157.411C452.89 164.381 449.719 169.369 448.832 170.763C447.476 172.894 446.281 174.552 445.59 175.489C444.191 177.386 442.96 178.887 442.329 179.648C440.965 181.291 439.636 182.785 438.722 183.801C436.761 185.98 434.408 188.498 432.01 191.026C427.108 196.192 420.703 202.78 413.885 209.651L300.315 96.9487ZM305.113 103.61C300.462 118.337 301.389 130.621 302.189 136.6C303.113 143.501 304.881 149.275 306.707 153.818C308.552 158.411 311.178 163.54 314.948 168.789C318.389 173.579 324.994 181.564 335.88 188.439L421.319 53.161C442.535 66.5608 451.697 85.5207 455.167 94.1568C458.08 101.403 466.371 124.289 457.686 151.791L305.113 103.61ZM333.425 186.825C335.615 188.323 342.275 192.767 352.057 196.006C363.1 199.663 375.236 200.878 387.432 199.067C398.542 197.418 406.753 193.691 411.286 191.283C415.791 188.891 418.766 186.666 419.741 185.921C421.423 184.637 421.439 184.421 418.037 187.66C415.071 190.482 410.985 194.501 404.931 200.505L292.268 86.8954C302.234 77.0125 313.391 65.8205 322.608 58.7791C326.34 55.9281 341.466 44.1377 363.936 40.8018C394.312 36.2922 416.053 49.4927 423.774 54.7755L333.425 186.825ZM405.168 200.269L381.368 224.069L268.231 110.932L292.031 87.1316L405.168 200.269ZM245.255 158.977L245.855 153.377L404.944 170.423L404.344 176.023L245.255 158.977ZM245.772 154.194C246.752 144.066 249.633 132.229 251.578 125.422L405.422 169.378C405.403 169.444 405.365 169.579 405.311 169.782C405.258 169.982 405.197 170.22 405.131 170.488C405.065 170.755 404.999 171.032 404.934 171.311C404.87 171.59 404.812 171.852 404.761 172.087C404.711 172.325 404.673 172.511 404.647 172.64C404.621 172.774 404.616 172.805 404.628 172.737C404.635 172.7 404.648 172.622 404.667 172.506C404.685 172.391 404.712 172.219 404.744 171.996C404.776 171.774 404.818 171.47 404.865 171.092C404.911 170.719 404.969 170.216 405.028 169.606L245.772 154.194ZM251.653 125.161C268.623 66.5184 311.575 26.0111 366.792 6.61949L419.808 157.581C407.825 161.789 406.376 166.082 405.347 169.639L251.653 125.161ZM367.049 6.52963C375.316 3.65797 384.532 1.18855 392.16 -0.565425C397.422 -1.7753 410.228 -4.6623 422.318 -4.88619L425.281 155.086C426.911 155.056 428.186 154.973 428.976 154.91C429.8 154.845 430.417 154.777 430.78 154.734C431.471 154.652 431.746 154.599 431.505 154.639C431.007 154.724 429.804 154.954 428.014 155.366C426.29 155.762 424.463 156.226 422.783 156.693C421.029 157.182 419.938 157.536 419.55 157.671L367.049 6.52963ZM421.22 -4.85831C421.825 -4.8778 423.574 -4.93452 425.662 -4.91273C427.636 -4.89213 431.707 -4.7967 436.727 -4.09217C446.796 -2.67886 470.031 2.55464 488.272 24.6645C503.941 43.6569 506.005 63.7931 506.477 68.176C506.843 71.5769 506.932 74.3565 506.965 75.7145C507 77.1467 507 78.4205 507 78.9001H347C347 76.8781 346.904 80.7299 347.394 85.2867C347.75 88.5946 349.596 107.993 364.852 126.486C382.68 148.096 405.309 153.067 414.488 154.355C419.063 154.997 422.617 155.064 423.992 155.079C424.823 155.087 425.464 155.079 425.808 155.072C425.992 155.069 426.135 155.065 426.225 155.063C426.314 155.061 426.37 155.059 426.379 155.059L421.22 -4.85831Z" fill="#9F573B" mask="url(#path-6-inside-2_1944_9)"/>
<path d="M46 152.9C44.1 153.9 41.2 156.9 39.5 159.5C37 163.5 36.5 165.4 36.5 170.6C36.5 176 36.9 177.3 39.6 180.6C45.7 188.2 55.5 190.9 63.3 187.1C74.6 181.6 77.5 166.2 69.1 156.6C64.3 151.1 52.8 149.3 46 152.9ZM60.3 166.2C62.5 168.9 62.5 171.5 60 174C55.8 178.2 49 175.4 49 169.4C49 163.3 56.1 161.2 60.3 166.2Z" stroke="#9F573B" stroke-width="5"/>
<path d="M423.9 153.1C414.1 158.8 411.3 172.8 418.2 181.6C420.9 184.9 429.4 189 433.9 189C442 189 450.1 182.1 452.1 173.3C453.8 165.7 449.4 156.8 442 153C436.7 150.3 428.7 150.4 423.9 153.1ZM437.4 165.1C440.5 167.6 440.8 171.2 438 174C433.7 178.3 426.6 174.9 427.2 168.7C427.4 166.5 428.3 165.2 430 164.3C433.4 162.6 434.3 162.7 437.4 165.1Z" stroke="#9F573B" stroke-width="5"/>
<mask id="path-10-inside-3_1944_9" fill="white">
<path d="M104.2 196.1C87.6 197.6 64 204.4 49.2 211.9C26.1 223.5 0 243.1 0 248.7C0 251.6 6.6 258.9 16.5 267C48.9 293.4 89 307.3 123.4 304.1C156.2 301.1 185 287.6 214.8 261C224 252.8 226.1 249.6 224.4 246.1C223 243.4 207.3 229.6 197.4 222.4C187.3 215.1 165.8 204.1 155.7 201.1C140.1 196.4 120.8 194.5 104.2 196.1ZM139.1 210C159.4 214.2 178.2 223 196.9 237.4L202.3 241.5L156.2 242C115 242.4 109.9 242.7 108.4 244.2C106.2 246.3 106.3 250.6 108.5 253C110.2 254.9 112.1 255 156.4 255.2L202.5 255.5L191.5 263.8C178.5 273.5 158.5 283.9 145.8 287.5C110.8 297.3 73.3 290.5 40 268.4C30.8 262.3 16 250.2 16 248.8C16 248.4 20.8 244.4 26.7 240C44.7 226.7 71.2 214.7 91.5 210.7C107.9 207.4 125.1 207.2 139.1 210Z"/>
</mask>
<path d="M104.2 196.1L111.875 275.731L111.638 275.754L111.4 275.775L104.2 196.1ZM49.2 211.9L85.3623 283.26L85.2317 283.327L85.1009 283.392L49.2 211.9ZM16.5 267L-34.0339 329.019L-34.0965 328.968L-34.159 328.917L16.5 267ZM123.4 304.1L115.99 224.444L116.052 224.438L116.113 224.433L123.4 304.1ZM214.8 261L161.527 201.318L161.549 201.299L161.57 201.279L214.8 261ZM224.4 246.1L295.42 209.275L295.903 210.205L296.361 211.148L224.4 246.1ZM197.4 222.4L244.263 157.563L244.358 157.632L244.454 157.701L197.4 222.4ZM155.7 201.1L132.921 277.789L132.772 277.744L132.622 277.699L155.7 201.1ZM139.1 210L154.789 131.554L155.049 131.606L155.308 131.659L139.1 210ZM196.9 237.4L148.523 301.116L148.306 300.951L148.09 300.785L196.9 237.4ZM202.3 241.5L250.677 177.784L436.62 318.963L203.168 321.495L202.3 241.5ZM156.2 242L157.068 321.995L157.022 321.996L156.977 321.996L156.2 242ZM108.4 244.2L164.969 300.769L164.311 301.426L163.638 302.069L108.4 244.2ZM108.5 253L167.472 198.942L167.798 199.297L168.119 199.657L108.5 253ZM156.4 255.2L156.761 175.201L156.841 175.201L156.921 175.202L156.4 255.2ZM202.5 255.5L203.021 175.502L439.304 177.039L250.686 319.361L202.5 255.5ZM191.5 263.8L239.686 327.661L239.514 327.79L239.342 327.918L191.5 263.8ZM145.8 287.5L167.618 364.468L167.494 364.503L167.37 364.537L145.8 287.5ZM40 268.4L84.2087 201.725L84.223 201.734L84.2374 201.744L40 268.4ZM26.7 240L-21.1259 175.87L-20.9838 175.764L-20.8413 175.659L26.7 240ZM91.5 210.7L107.281 289.128L107.124 289.16L106.966 289.191L91.5 210.7ZM111.4 275.775C104.937 276.359 91.1609 280.322 85.3623 283.26L13.0377 140.54C36.8391 128.478 70.2632 118.841 97.0004 116.425L111.4 275.775ZM85.1009 283.392C78.1629 286.876 69.8744 292.103 63.8967 296.581C60.7773 298.917 60.0821 299.712 60.9919 298.803C61.2981 298.497 63.861 295.968 66.9128 291.566C68.4697 289.32 71.1738 285.135 73.6993 279.309C76.0116 273.975 80 263.137 80 248.7H-80C-80 221.896 -66.7448 203.531 -64.5796 200.408C-60.0103 193.817 -55.2278 188.747 -52.1138 185.635C-45.5884 179.113 -38.3148 173.233 -32.0217 168.52C-19.1744 158.897 -2.86286 148.524 13.2992 140.408L85.1009 283.392ZM80 248.7C80 234.9 76.3356 224.602 74.4446 219.937C72.2945 214.632 70.0166 210.802 68.7323 208.778C66.1949 204.78 64.117 202.511 63.9318 202.306C63.3029 201.609 64.2112 202.672 67.159 205.084L-34.159 328.917C-41.1112 323.229 -48.4528 316.591 -54.8568 309.494C-57.9295 306.089 -62.2761 300.946 -66.3604 294.51C-68.1164 291.743 -80 273.953 -80 248.7H80ZM67.0339 204.981C86.7749 221.067 106.675 225.311 115.99 224.444L130.81 383.756C71.3247 389.29 11.0251 365.734 -34.0339 329.019L67.0339 204.981ZM116.113 224.433C128.624 223.288 141.879 218.856 161.527 201.318L268.073 320.682C228.121 356.345 183.776 378.912 130.687 383.768L116.113 224.433ZM161.57 201.279C163.264 199.77 163.5 199.486 163.025 199.975C162.8 200.207 159.83 203.21 156.502 208.358C153.061 213.682 147.094 224.566 145.394 239.976C143.544 256.734 147.559 271.006 152.439 281.052L296.361 211.148C302.091 222.945 306.481 238.929 304.428 257.527C302.524 274.778 295.777 287.631 290.873 295.217C282.709 307.846 271.831 317.333 268.03 320.721L161.57 201.279ZM153.38 282.925C154.298 284.696 155.163 286.199 155.888 287.397C156.62 288.606 157.297 289.649 157.874 290.505C159.004 292.182 159.998 293.513 160.702 294.422C162.068 296.188 163.174 297.442 163.68 298.007C164.257 298.65 164.667 299.078 164.826 299.241C165.004 299.424 165.073 299.49 165.005 299.424C164.854 299.276 164.448 298.886 163.752 298.246C163.077 297.627 162.25 296.884 161.298 296.048C159.371 294.355 157.201 292.519 155.104 290.812C152.934 289.046 151.292 287.786 150.346 287.099L244.454 157.701C252.04 163.219 260.43 170.165 266.877 175.828C270.182 178.73 273.746 181.968 276.961 185.117C278.513 186.637 280.624 188.76 282.808 191.197C283.21 191.645 290.042 198.902 295.42 209.275L153.38 282.925ZM150.537 287.237C150.83 287.449 149.962 286.821 147.615 285.447C145.475 284.193 142.878 282.771 140.143 281.373C137.39 279.966 134.931 278.806 133.078 277.998C130.786 276.999 130.938 277.199 132.921 277.789L178.479 124.412C190.851 128.086 204.097 134.374 212.957 138.902C222.425 143.741 234.43 150.456 244.263 157.563L150.537 287.237ZM132.622 277.699C127.095 276.034 118.246 275.117 111.875 275.731L96.5247 116.469C123.354 113.883 153.105 116.766 178.778 124.501L132.622 277.699ZM155.308 131.659C188.655 138.559 218.424 153.004 245.71 174.015L148.09 300.785C137.976 292.996 130.145 289.842 122.892 288.341L155.308 131.659ZM245.277 173.684L250.677 177.784L153.923 305.216L148.523 301.116L245.277 173.684ZM203.168 321.495L157.068 321.995L155.332 162.005L201.432 161.505L203.168 321.495ZM156.977 321.996C146.708 322.096 138.913 322.187 132.931 322.29C126.814 322.395 123.248 322.501 121.189 322.598C120.192 322.646 120.041 322.669 120.432 322.634C120.689 322.611 122.517 322.45 125.189 321.958C127.638 321.507 133.274 320.345 140.152 317.459C147.984 314.172 156.829 308.908 164.969 300.769L51.8315 187.632C69.5385 169.925 89.7409 165.795 96.2266 164.601C103.277 163.304 109.99 162.949 113.636 162.777C122.091 162.377 135.399 162.198 155.423 162.004L156.977 321.996ZM163.638 302.069C182.65 283.921 187.011 261.723 186.791 247.266C186.564 232.413 181.568 214.32 167.472 198.942L49.5277 307.058C33.2318 289.281 27.0861 267.837 26.8093 249.709C26.5386 231.977 31.9498 206.58 53.1619 186.332L163.638 302.069ZM168.119 199.657C165.678 196.928 159.986 190.921 151.095 185.461C142.647 180.273 134.945 177.784 130.029 176.545C125.458 175.392 122.036 175.017 121.075 174.916C119.902 174.793 119.424 174.789 120.166 174.823C121.726 174.895 124.922 174.977 131.301 175.044C137.457 175.108 145.64 175.151 156.761 175.201L156.039 335.199C134.935 335.104 121.138 335.038 112.784 334.652C109.746 334.512 100.674 334.15 90.9148 331.69C84.8896 330.171 76.4135 327.361 67.3632 321.803C57.8706 315.973 51.7469 309.547 48.8807 306.344L168.119 199.657ZM156.921 175.202L203.021 175.502L201.979 335.498L155.879 335.198L156.921 175.202ZM250.686 319.361L239.686 327.661L143.314 199.94L154.314 191.64L250.686 319.361ZM239.342 327.918C220.368 342.076 191.689 357.644 167.618 364.468L123.982 210.533C123.07 210.791 123.478 210.734 125.331 209.951C127.016 209.24 129.2 208.221 131.684 206.932C136.986 204.18 141.38 201.382 143.658 199.682L239.342 327.918ZM167.37 364.537C107.505 381.3 46.2076 368.535 -4.23736 335.056L84.2374 201.744C100.392 212.465 114.095 213.301 124.23 210.463L167.37 364.537ZM-4.20865 335.075C-11.7492 330.076 -19.97 323.77 -26.0656 318.79C-29.1502 316.27 -32.7637 313.215 -36.076 310.129C-37.5387 308.767 -40.2958 306.15 -43.2092 302.864C-44.5231 301.382 -47.4515 298.005 -50.5243 293.366C-52.0548 291.056 -54.6781 286.861 -57.1561 281.241C-59.1645 276.687 -64 264.83 -64 248.8H96C96 232.858 91.1934 221.109 89.2416 216.683C86.8201 211.192 84.2811 207.145 82.8612 205.002C80.0098 200.697 77.4082 197.73 76.517 196.724C75.3296 195.385 74.3932 194.435 73.9515 193.994C73.4566 193.5 73.1138 193.178 72.9885 193.061C72.7387 192.829 73.4002 193.443 75.1656 194.886C78.77 197.83 82.5492 200.625 84.2087 201.725L-4.20865 335.075ZM-64 248.8C-64 231.1 -58.0728 218.256 -56.2034 214.333C-53.6087 208.889 -50.9388 204.889 -49.5091 202.844C-46.5905 198.669 -43.8962 195.679 -42.8403 194.523C-40.4116 191.865 -38.2562 189.862 -37.3921 189.065C-35.2957 187.132 -33.2391 185.401 -31.8027 184.215C-28.6737 181.631 -24.9366 178.712 -21.1259 175.87L74.5259 304.13C72.4366 305.688 70.8238 306.969 70.0778 307.586C69.5766 307.999 70.0645 307.619 71.0765 306.685C71.3984 306.388 73.1327 304.797 75.2759 302.452C76.189 301.453 78.7744 298.593 81.6198 294.524C83.0129 292.531 85.6551 288.576 88.2313 283.171C90.0822 279.287 96 266.475 96 248.8H-64ZM-20.8413 175.659C5.83285 155.949 43.1447 138.69 76.0338 132.209L106.966 289.191C99.2554 290.71 83.5672 297.451 74.2413 304.342L-20.8413 175.659ZM75.7188 132.272C101.039 127.177 129.029 126.402 154.789 131.554L123.411 288.447C121.171 287.999 114.761 287.623 107.281 289.128L75.7188 132.272Z" fill="#9F573B" mask="url(#path-10-inside-3_1944_9)"/>
<mask id="path-12-inside-4_1944_9" fill="white">
<path d="M374 195.6C346.1 199.1 320 210.6 295.2 230.5C290.7 234.2 284.3 239.7 281 242.9C273.1 250.4 273.1 252.2 280.8 259.4C316.6 293 353.1 307.4 393.6 304C425.7 301.2 456.8 288.5 485.7 266.1C497.1 257.3 500.3 253.6 499.5 250.1C498.8 247 489.3 237.6 478.4 229.3C457.6 213.5 434.3 202.6 411 197.8C401.8 196 381.2 194.7 374 195.6ZM412 210.9C416.7 212 422.8 213.6 425.5 214.5C432.6 216.9 451.5 226 458.3 230.4C465.8 235.2 484 249.9 484 251.1C484 252.5 468.7 263.5 457.6 270.1C433.5 284.4 407.3 292 382.4 292C353.8 292 327.2 281.8 300.9 260.8L297.5 258H343C382.6 258 388.8 257.8 390.8 256.4C393.5 254.6 393.8 249.5 391.3 246.8C389.8 245.1 387 245 343.6 245L297.5 244.9L301 241.9C307.9 236 326.7 224 336 219.6C346.1 214.8 359.6 210.6 369.5 209C378.7 207.6 402.1 208.6 412 210.9Z"/>
</mask>
<path d="M374 195.6L364.042 116.222L364.059 116.22L364.077 116.218L374 195.6ZM295.2 230.5L244.391 168.706L244.76 168.403L245.132 168.104L295.2 230.5ZM281 242.9L336.691 300.332L336.387 300.627L336.08 300.918L281 242.9ZM280.8 259.4L335.439 200.966L335.493 201.017L335.547 201.067L280.8 259.4ZM393.6 304L400.552 383.697L400.422 383.708L400.292 383.719L393.6 304ZM485.7 266.1L436.691 202.869L436.753 202.821L436.816 202.773L485.7 266.1ZM499.5 250.1L421.511 267.926L421.488 267.823L421.465 267.721L499.5 250.1ZM478.4 229.3L526.791 165.595L526.828 165.623L526.866 165.652L478.4 229.3ZM411 197.8L426.361 119.288L426.751 119.365L427.141 119.445L411 197.8ZM412 210.9L430.103 132.975L430.167 132.99L430.231 133.005L412 210.9ZM425.5 214.5L450.798 138.605L450.958 138.659L451.118 138.713L425.5 214.5ZM458.3 230.4L415.176 297.782L415.007 297.674L414.84 297.565L458.3 230.4ZM457.6 270.1L498.486 338.863L498.454 338.881L498.423 338.9L457.6 270.1ZM300.9 260.8L250.982 323.316L250.51 322.939L250.043 322.554L300.9 260.8ZM297.5 258L246.643 319.754L74.5125 178L297.5 178V258ZM390.8 256.4L344.923 190.861L345.667 190.34L346.424 189.836L390.8 256.4ZM391.3 246.8L332.599 301.152L331.947 300.449L331.313 299.73L391.3 246.8ZM343.6 245V325H343.513L343.426 325L343.6 245ZM297.5 244.9L297.326 324.9L81.7846 324.432L245.436 184.159L297.5 244.9ZM301 241.9L248.936 181.159L248.973 181.128L249.009 181.097L301 241.9ZM336 219.6L370.339 291.855L370.276 291.885L370.213 291.915L336 219.6ZM369.5 209L356.736 130.025L357.1 129.966L357.464 129.91L369.5 209ZM383.958 274.978C372.445 276.422 359.943 281.12 345.267 292.896L245.132 168.104C280.056 140.08 319.754 121.778 364.042 116.222L383.958 274.978ZM346.008 292.294C344.328 293.675 342.158 295.506 340.122 297.275C339.117 298.148 338.251 298.914 337.567 299.531C336.822 300.204 336.573 300.447 336.691 300.332L225.308 185.468C231.05 179.9 239.523 172.709 244.391 168.706L346.008 292.294ZM336.08 300.918C334.261 302.645 337.291 300.031 340.813 295.28C344.536 290.26 354.795 275.015 355.045 252.137C355.3 228.814 345.031 213.006 340.814 207.298C337.02 202.164 333.656 199.299 335.439 200.966L226.16 317.834C224.093 315.901 217.842 310.11 212.129 302.379C205.994 294.075 194.775 275.998 195.054 250.388C195.329 225.222 206.589 207.671 212.292 199.979C217.796 192.557 223.788 186.904 225.919 184.881L336.08 300.918ZM335.547 201.067C358.506 222.615 373.58 225.399 386.907 224.28L400.292 383.719C332.62 389.4 274.694 363.385 226.052 317.732L335.547 201.067ZM386.648 224.302C401.66 222.993 418.444 217.012 436.691 202.869L534.709 329.33C495.155 359.988 449.74 379.407 400.552 383.697L386.648 224.302ZM436.816 202.773C442.789 198.162 440.401 199.452 436.608 203.847C434.334 206.482 428.556 213.589 424.363 224.788C419.49 237.805 418.067 252.856 421.511 267.926L577.489 232.274C586.259 270.645 566.545 298.176 557.741 308.378C549.699 317.698 540.011 325.238 534.584 329.427L436.816 202.773ZM421.465 267.721C422.998 274.513 425.134 279.712 426.56 282.819C428.07 286.107 429.534 288.665 430.564 290.352C432.564 293.626 434.297 295.843 435.01 296.734C436.481 298.57 437.235 299.236 436.58 298.589C435.463 297.487 432.996 295.279 429.934 292.948L526.866 165.652C534.704 171.62 542.437 178.263 548.97 184.71C552.14 187.839 556.081 191.955 559.87 196.684C561.744 199.022 564.419 202.547 567.115 206.961C569.114 210.235 574.6 219.482 577.535 232.479L421.465 267.721ZM430.009 293.005C417.757 283.698 405.31 278.308 394.858 276.154L427.141 119.445C463.29 126.892 497.442 143.301 526.791 165.595L430.009 293.005ZM395.639 276.311C396.246 276.43 396.37 276.435 395.868 276.364C395.423 276.301 394.715 276.211 393.748 276.106C391.787 275.894 389.382 275.691 386.898 275.54C384.377 275.387 382.29 275.319 380.917 275.308C380.24 275.303 380.038 275.315 380.242 275.307C380.257 275.307 381.668 275.264 383.923 274.982L364.077 116.218C375.876 114.743 389.583 115.408 396.602 115.835C404.982 116.344 416.567 117.372 426.361 119.288L395.639 276.311ZM430.231 133.005C435.293 134.19 444.403 136.474 450.798 138.605L400.202 290.395C401.079 290.687 401.421 290.774 400.873 290.617C400.473 290.502 399.835 290.325 398.985 290.1C397.256 289.641 395.318 289.157 393.769 288.795L430.231 133.005ZM451.118 138.713C459.804 141.649 470.206 146.471 476.839 149.678C483.559 152.928 493.864 158.125 501.76 163.234L414.84 297.565C415.648 298.089 415.975 298.261 415.561 298.024C415.231 297.836 414.634 297.504 413.75 297.034C411.968 296.087 409.674 294.925 407.186 293.721C404.698 292.518 402.382 291.452 400.58 290.662C399.684 290.27 399.089 290.023 398.784 289.9C398.368 289.732 398.819 289.928 399.882 290.287L451.118 138.713ZM501.424 163.018C509.089 167.924 518.368 175.138 524.18 179.825C527.447 182.459 531.049 185.449 534.207 188.258C535.614 189.51 538.019 191.684 540.522 194.254C541.593 195.355 544.217 198.083 547.08 201.785C548.434 203.536 551.242 207.289 554.077 212.454C555.449 214.953 564 229.918 564 251.1H404C404 263.034 406.681 272.291 408.42 277.297C410.298 282.7 412.401 286.863 413.818 289.443C416.584 294.482 419.288 298.083 420.507 299.659C423.1 303.012 425.325 305.297 425.884 305.871C427.363 307.389 428.287 308.18 427.871 307.81C427.382 307.375 425.966 306.166 423.745 304.375C418.582 300.212 415.01 297.676 415.176 297.782L501.424 163.018ZM564 251.1C564 267.941 558.686 280.352 556.306 285.396C553.469 291.41 550.46 295.843 548.703 298.278C545.184 303.155 541.843 306.633 540.373 308.129C537.1 311.458 534.03 314.047 532.456 315.35C528.863 318.325 524.968 321.226 521.682 323.59C514.977 328.414 506.414 334.149 498.486 338.863L416.714 201.337C419.886 199.451 424.523 196.385 428.243 193.709C430.169 192.323 430.793 191.799 430.416 192.112C430.249 192.249 429.836 192.595 429.252 193.116C428.73 193.582 427.642 194.57 426.269 195.966C425.238 197.015 422.237 200.106 418.947 204.665C417.305 206.941 414.384 211.232 411.605 217.121C409.284 222.041 404 234.346 404 251.1H564ZM498.423 338.9C463.469 359.64 423.317 372 382.4 372V212C391.283 212 403.531 209.159 416.777 201.3L498.423 338.9ZM382.4 372C332.535 372 288.806 353.517 250.982 323.316L350.817 198.284C365.593 210.082 375.065 212 382.4 212V372ZM250.043 322.554L246.643 319.754L348.356 196.245L351.756 199.045L250.043 322.554ZM297.5 178H343V338H297.5V178ZM343 178C352.878 178 360.467 177.987 366.368 177.948C372.378 177.909 376.062 177.845 378.335 177.769C379.438 177.732 379.818 177.705 379.714 177.712C379.699 177.713 378.467 177.793 376.532 178.075C374.739 178.336 370.681 179.001 365.54 180.636C359.984 182.404 352.625 185.47 344.923 190.861L436.677 321.938C420.617 333.18 404.77 335.651 399.58 336.406C393.439 337.3 387.51 337.552 383.665 337.68C375.277 337.96 362.286 338 343 338V178ZM346.424 189.836C320.026 207.434 313.876 233.668 313.118 247.59C312.297 262.675 316.214 283.456 332.599 301.152L450.001 192.447C468.886 212.843 473.903 237.524 472.882 256.285C471.924 273.882 464.273 303.565 435.176 322.964L346.424 189.836ZM331.313 299.73C333.235 301.908 336.099 304.906 339.929 308.082C343.824 311.311 348.02 314.148 352.446 316.55C360.998 321.19 368.471 323.145 372.446 324.002C376.379 324.851 379.25 325.111 379.911 325.169C380.778 325.246 381.008 325.238 380.154 325.206C378.379 325.139 375.018 325.076 368.701 325.041C362.573 325.006 354.483 325 343.6 325V165C364.404 165 377.943 165.009 386.17 165.319C389.283 165.436 397.455 165.717 406.188 167.601C411.315 168.707 419.592 170.948 428.753 175.919C439.08 181.522 446.396 188.327 451.287 193.87L331.313 299.73ZM343.426 325L297.326 324.9L297.673 164.9L343.773 165L343.426 325ZM245.436 184.159L248.936 181.159L353.063 302.64L349.563 305.64L245.436 184.159ZM249.009 181.097C261.864 170.105 286.786 154.382 301.786 147.285L370.213 291.915C370.686 291.691 369.879 292.064 367.595 293.383C365.559 294.559 363.124 296.039 360.606 297.644C358.081 299.254 355.814 300.772 354.082 301.99C351.991 303.46 351.893 303.641 352.99 302.703L249.009 181.097ZM301.661 147.345C318.291 139.441 339.034 132.886 356.736 130.025L382.263 287.975C382.305 287.968 381.762 288.059 380.648 288.333C379.578 288.597 378.278 288.957 376.853 289.406C373.775 290.375 371.424 291.339 370.339 291.855L301.661 147.345ZM357.464 129.91C370.258 127.963 384.996 128.243 394.004 128.64C403.349 129.051 417.704 130.095 430.103 132.975L393.896 288.825C395.238 289.136 395.915 289.227 395.652 289.187C395.482 289.161 394.955 289.087 394.044 288.99C392.189 288.794 389.708 288.605 386.97 288.485C384.225 288.364 381.816 288.337 380.105 288.369C379.706 288.376 379.394 288.386 379.167 288.395C378.937 288.404 378.837 288.411 378.857 288.41C378.87 288.409 379.084 288.395 379.472 288.355C379.843 288.318 380.555 288.238 381.535 288.089L357.464 129.91Z" fill="#9F573B" mask="url(#path-12-inside-4_1944_9)"/>
<mask id="path-14-inside-5_1944_9" fill="white">
<path d="M239.3 282C197.8 326.2 185.7 375.6 203.1 429.3C209.2 448.1 223.4 473.3 237.4 490.2C244.9 499.2 247.1 500.6 251.1 499C255.2 497.3 269.1 481.6 276.9 469.9C289.3 451.1 297.8 431.7 302.2 411.3C304.9 398.5 305.2 376.6 302.7 363.7C296.9 334.4 281.7 306.8 257.1 281C249.4 272.8 247.8 272.9 239.3 282ZM243.9 391.3C245.4 393.1 250.6 393.5 253 392C254.3 391.2 254.6 384.4 255 344.3L255.5 297.6L262.7 307C275.5 324 283.9 340.7 288.8 358.9C291 367.3 291.4 370.5 291.4 385.5C291.5 398.8 291.1 404.2 289.6 410.5C285.9 426.5 278.1 444.9 269.5 458.5C263.9 467.2 249.9 484.1 248.6 483.7C246.8 483.1 234.9 466.9 230.1 458.6C198.6 403.5 200.7 352 236.4 304.7L241.5 297.9L242 343.8C242.4 380.7 242.8 390 243.9 391.3Z"/>
</mask>
<path d="M239.3 282L297.763 336.608L297.693 336.684L297.622 336.759L239.3 282ZM203.1 429.3L127.005 453.99L127.001 453.975L126.996 453.959L203.1 429.3ZM237.4 490.2L175.942 541.415L175.868 541.325L175.793 541.235L237.4 490.2ZM251.1 499L281.741 572.899L281.278 573.092L280.811 573.278L251.1 499ZM276.9 469.9L343.682 513.948L343.573 514.112L343.464 514.276L276.9 469.9ZM302.2 411.3L380.478 427.812L380.44 427.989L380.402 428.167L302.2 411.3ZM302.7 363.7L381.177 348.165L381.208 348.322L381.239 348.479L302.7 363.7ZM257.1 281L199.201 336.206L198.99 335.985L198.781 335.762L257.1 281ZM243.9 391.3L304.971 339.625L305.165 339.854L305.358 340.085L243.9 391.3ZM253 392L210.6 324.16L210.836 324.013L211.072 323.867L253 392ZM255 344.3L175.004 343.502L175.004 343.473L175.005 343.443L255 344.3ZM255.5 297.6L175.505 296.743L177.988 64.8404L319.01 248.954L255.5 297.6ZM262.7 307L326.21 258.354L326.411 258.616L326.61 258.88L262.7 307ZM288.8 358.9L366.049 338.102L366.12 338.366L366.19 338.631L288.8 358.9ZM291.4 385.5L211.402 386.101L211.4 385.801V385.5H291.4ZM289.6 410.5L211.657 392.476L211.715 392.223L211.776 391.97L289.6 410.5ZM269.5 458.5L337.116 501.257L336.943 501.529L336.769 501.8L269.5 458.5ZM248.6 483.7L225.073 560.162L224.184 559.889L223.302 559.595L248.6 483.7ZM230.1 458.6L160.847 498.65L160.747 498.478L160.648 498.305L230.1 458.6ZM236.4 304.7L300.4 352.7L300.327 352.797L300.254 352.894L236.4 304.7ZM241.5 297.9L177.5 249.9L318.928 61.3293L321.495 297.028L241.5 297.9ZM242 343.8L321.995 342.928L321.995 342.933L242 343.8ZM297.622 336.759C274.309 361.589 271.561 381.051 279.205 404.64L126.996 453.959C99.8391 370.149 121.291 290.811 180.978 227.241L297.622 336.759ZM279.195 404.61C281.841 412.765 290.732 429.175 299.007 439.165L175.793 541.235C156.069 517.425 136.559 483.435 127.005 453.99L279.195 404.61ZM298.858 438.985C300.395 440.83 300.454 440.817 299.718 440.054C299.299 439.619 295.402 435.501 288.759 431.239C281.006 426.266 268.635 420.528 252.554 419.677C237.396 418.875 226.058 422.854 221.389 424.722L280.811 573.278C274.142 575.946 261.029 580.35 244.1 579.454C226.246 578.509 212.107 572.159 202.366 565.91C188.125 556.774 177.95 543.823 175.942 541.415L298.858 438.985ZM220.459 425.101C217.483 426.334 215.053 427.562 213.257 428.54C211.431 429.534 209.915 430.459 208.752 431.206C206.487 432.661 204.809 433.923 203.841 434.678C201.959 436.148 200.873 437.184 200.782 437.269C200.531 437.508 201.215 436.862 202.739 435.142C204.133 433.569 205.7 431.694 207.191 429.793C208.724 427.836 209.786 426.349 210.336 425.524L343.464 514.276C337.077 523.857 329.257 533.618 322.486 541.258C319.048 545.138 315.001 549.467 310.746 553.493C308.654 555.473 305.749 558.105 302.29 560.804C300.043 562.559 292.501 568.438 281.741 572.899L220.459 425.101ZM210.118 425.852C217.747 414.286 221.936 403.996 223.998 394.433L380.402 428.167C373.664 459.404 360.853 487.914 343.682 513.948L210.118 425.852ZM223.923 394.788C223.775 395.488 223.922 394.965 224.098 393.031C224.259 391.26 224.377 389.039 224.405 386.617C224.433 384.191 224.365 382.005 224.247 380.298C224.117 378.417 223.99 378.036 224.161 378.921L381.239 348.479C385.839 372.215 385.308 404.91 380.478 427.812L223.923 394.788ZM224.223 379.235C221.896 367.479 215.334 353.125 199.201 336.206L314.999 225.794C348.066 260.474 371.904 301.321 381.177 348.165L224.223 379.235ZM198.781 335.762C196.708 333.555 199.681 337.06 204.953 340.927C211.1 345.435 228.192 356.292 253.029 354.884C276.095 353.576 290.729 342.357 294.258 339.561C298.041 336.565 300.024 334.188 297.763 336.608L180.837 227.392C182.826 225.262 188.197 219.46 194.911 214.141C201.372 209.024 218.48 196.586 243.971 195.141C271.233 193.595 290.7 205.396 299.578 211.907C307.582 217.777 313.642 224.345 315.419 226.237L198.781 335.762ZM305.358 340.085C293.085 325.358 278.993 319.387 272.918 317.182C265.588 314.521 259.125 313.498 254.248 313.123C249.233 312.737 243.52 312.854 237.272 313.925C231.619 314.893 221.564 317.308 210.6 324.16L295.4 459.84C273.663 473.425 251.962 473.42 241.977 472.652C235.313 472.139 227.118 470.773 218.316 467.577C210.77 464.837 195.465 458.142 182.442 442.515L305.358 340.085ZM211.072 323.867C189.878 336.91 181.607 355.408 178.946 362.207C175.992 369.755 175.027 375.831 174.782 377.381C174.225 380.915 174.273 382.73 174.409 379.514C174.63 374.271 174.8 363.994 175.004 343.502L334.996 345.098C334.801 364.706 334.62 377.879 334.266 386.261C334.115 389.858 333.819 396.028 332.827 402.316C332.366 405.243 331.161 412.294 327.94 420.524C325.012 428.004 316.448 446.89 294.928 460.133L211.072 323.867ZM175.005 343.443L175.505 296.743L335.495 298.456L334.995 345.156L175.005 343.443ZM319.01 248.954L326.21 258.354L199.19 355.646L191.99 346.246L319.01 248.954ZM326.61 258.88C344.768 282.996 358.167 308.826 366.049 338.102L211.551 379.698C209.633 372.573 206.232 365.003 198.79 355.12L326.61 258.88ZM366.19 338.631C370.797 356.223 371.4 366.964 371.4 385.5H211.4C211.4 381.983 211.375 379.861 211.335 378.459C211.297 377.121 211.262 377.087 211.327 377.738C211.414 378.598 211.562 379.559 211.721 380.345C211.823 380.847 211.833 380.783 211.41 379.169L366.19 338.631ZM371.398 384.898C371.508 399.51 371.262 412.913 367.425 429.03L211.776 391.97C211.722 392.196 211.588 392.803 211.464 393.607C211.343 394.389 211.307 394.87 211.309 394.851C211.316 394.752 211.358 394.115 211.386 392.616C211.415 391.106 211.424 389.04 211.402 386.101L371.398 384.898ZM367.543 428.524C361.762 453.523 350.395 480.256 337.116 501.257L201.885 415.743C205.805 409.544 210.038 399.477 211.657 392.476L367.543 428.524ZM336.769 501.8C331.439 510.081 324.216 519.309 319.027 525.569C316.287 528.874 312.944 532.767 309.593 536.29C308.16 537.796 305.211 540.848 301.48 544.022C299.906 545.361 295.692 548.892 289.783 552.395C286.917 554.094 281 557.394 272.905 559.957C266.309 562.045 247.714 567.129 225.073 560.162L272.127 407.238C249.567 400.296 231.078 405.371 224.612 407.419C216.646 409.941 210.882 413.167 208.192 414.762C202.633 418.057 198.859 421.258 197.804 422.156C196.238 423.488 195.14 424.543 194.665 425.006C194.12 425.539 193.772 425.902 193.661 426.019C193.475 426.215 194.226 425.413 195.848 423.456C197.308 421.696 198.887 419.706 200.265 417.886C201.799 415.858 202.379 414.971 202.231 415.2L336.769 501.8ZM223.302 559.595C208.289 554.59 198.527 546.179 197.397 545.251C194.128 542.568 191.677 540.138 190.39 538.827C187.689 536.075 185.48 533.483 184.163 531.901C181.306 528.472 178.455 524.732 176.047 521.461C171.517 515.308 165.379 506.487 160.847 498.65L299.353 418.55C299.256 418.382 299.769 419.253 301.077 421.191C302.258 422.941 303.621 424.871 304.903 426.614C305.533 427.469 306.076 428.188 306.506 428.744C306.961 429.332 307.15 429.558 307.087 429.483C307.048 429.436 306.85 429.199 306.514 428.819C306.211 428.478 305.542 427.733 304.58 426.752C303.801 425.958 301.795 423.945 298.9 421.57C297.43 420.363 294.953 418.419 291.661 416.303C288.829 414.483 282.616 410.711 273.898 407.805L223.302 559.595ZM160.648 498.305C139.177 460.747 126.323 419.314 128.117 375.456C129.929 331.154 146.421 291.119 172.546 256.506L300.254 352.894C290.679 365.58 288.272 374.946 287.983 381.994C287.677 389.486 289.523 401.353 299.552 418.895L160.648 498.305ZM172.4 256.7L177.5 249.9L305.5 345.9L300.4 352.7L172.4 256.7ZM321.495 297.028L321.995 342.928L162.005 344.671L161.505 298.771L321.495 297.028ZM321.995 342.933C322.198 361.581 322.391 371.945 322.622 377.663C322.675 378.982 322.719 379.739 322.742 380.083C322.771 380.508 322.746 379.976 322.61 378.858C322.519 378.107 322.113 374.769 320.954 370.302C320.353 367.987 319.237 364.133 317.27 359.53C315.43 355.222 311.746 347.632 304.971 339.625L182.829 442.975C170.543 428.455 166.842 413.415 166.084 410.496C164.691 405.128 164.071 400.561 163.781 398.179C163.175 393.196 162.913 388.097 162.753 384.137C162.41 375.655 162.203 362.918 162.005 344.667L321.995 342.933Z" fill="#9F573B" mask="url(#path-14-inside-5_1944_9)"/>
<mask id="path-16-inside-6_1944_9" fill="white">
<path d="M172.7 311.1C109.9 316.4 72.6 350.4 63.5 410.5C61.5 424 61.5 433.9 63.7 436.9C65.3 439.2 65.6 439.3 74.9 438.7C127.4 435.5 172.5 402.4 185 357.9C187.9 347.6 189.9 334.2 190.2 323.3C190.6 310.2 189.7 309.6 172.7 311.1ZM144.2 348.3C118.9 373.7 117.9 374.9 122 379C126.5 383.5 127.8 382.6 153.3 357.2L177.2 333.5L176.5 338C175.3 346.1 171.1 360.7 168.1 367.4C157.3 391.2 136.8 408.7 107.7 418.9C98.8 422 81.4 426 76.6 426C74 426 74 425.9 74.6 420.2C77.4 392.9 87.7 368.8 103.6 352.6C117.7 338.2 131.9 330.8 154.8 326C170.4 322.7 171 321.5 144.2 348.3Z"/>
</mask>
<path d="M172.7 311.1L179.731 390.79L179.58 390.804L179.428 390.817L172.7 311.1ZM63.5 410.5L-15.6363 398.776L-15.6176 398.65L-15.5984 398.523L63.5 410.5ZM63.7 436.9L128.212 389.591L128.803 390.396L129.372 391.215L63.7 436.9ZM74.9 438.7L69.7494 358.866L69.8911 358.857L70.0328 358.848L74.9 438.7ZM185 357.9L107.981 336.265L107.987 336.242L107.994 336.219L185 357.9ZM190.2 323.3L110.23 321.099L110.234 320.979L110.237 320.858L190.2 323.3ZM144.2 348.3L87.52 291.843L87.5756 291.787L87.6314 291.731L144.2 348.3ZM153.3 357.2L96.8427 300.52L96.9061 300.457L96.9696 300.394L153.3 357.2ZM177.2 333.5L120.87 276.694L293.651 105.359L256.249 345.796L177.2 333.5ZM176.5 338L97.3637 326.276L97.4061 325.99L97.4507 325.703L176.5 338ZM168.1 367.4L241.115 400.093L241.033 400.276L240.95 400.458L168.1 367.4ZM107.7 418.9L134.163 494.396L134.089 494.422L134.015 494.448L107.7 418.9ZM74.6 420.2L154.183 428.362L154.172 428.468L154.16 428.575L74.6 420.2ZM103.6 352.6L160.761 408.57L160.728 408.604L160.695 408.637L103.6 352.6ZM154.8 326L171.357 404.268L171.284 404.283L171.212 404.298L154.8 326ZM179.428 390.817C160.95 392.376 154.059 397.367 151.825 399.401C149.845 401.204 145.015 406.517 142.598 422.477L-15.5984 398.523C-8.91486 354.382 9.45479 312.646 44.1004 281.099C78.4913 249.783 121.65 235.124 165.972 231.383L179.428 390.817ZM142.636 422.224C141.976 426.68 142.029 428.17 142.024 427.197C142.022 426.791 142.014 423.837 141.219 419.375C140.807 417.062 140.006 413.326 138.398 408.78C136.868 404.454 133.888 397.331 128.212 389.591L-0.81241 484.209C-12.1878 468.697 -15.289 453.116 -16.3002 447.441C-17.6515 439.857 -17.9465 433.021 -17.9738 428.078C-18.0291 418.029 -16.9761 407.82 -15.6363 398.776L142.636 422.224ZM129.372 391.215C129.364 391.203 129.292 391.099 129.185 390.948C129.077 390.795 128.901 390.547 128.675 390.237C128.243 389.644 127.469 388.599 126.434 387.32C124.36 384.76 120.659 380.526 115.237 376.124C102.481 365.769 89.0839 361.549 79.4531 359.957C75.3464 359.279 72.1097 359.105 70.4095 359.047C68.6542 358.987 67.437 359.02 67.1563 359.028C66.843 359.037 67.1647 359.033 69.7494 358.866L80.0506 518.534C77.9853 518.667 74.782 518.875 71.7468 518.962C69.4684 519.028 62.0866 519.257 53.3719 517.817C42.3036 515.989 27.9505 511.349 14.3973 500.347C8.5765 495.622 4.51694 491.008 2.08468 488.004C-0.123883 485.277 -1.78105 482.86 -1.97243 482.585L129.372 391.215ZM70.0328 358.848C94.7171 357.344 106.258 342.398 107.981 336.265L262.019 379.534C238.742 462.402 160.083 513.656 79.7672 518.552L70.0328 358.848ZM107.994 336.219C109.047 332.48 110.105 325.635 110.23 321.099L270.17 325.501C269.695 342.765 266.753 362.72 262.006 379.581L107.994 336.219ZM110.237 320.858C110.378 316.239 109.932 321.291 110.989 328.038C112.378 336.905 118.165 360.615 142.29 377.397C161.595 390.827 180.402 390.502 181.043 390.515C183.656 390.568 184.784 390.344 179.731 390.79L165.668 231.41C169.115 231.105 176.732 230.395 184.282 230.548C189.86 230.661 212.055 231.023 233.66 246.053C260.085 264.435 267.084 290.658 269.061 303.274C270.705 313.771 270.222 323.811 270.163 325.742L110.237 320.858ZM200.88 404.757C194.387 411.275 190.198 415.498 187.277 418.55C183.713 422.274 184.73 421.502 186.774 418.691C187.915 417.122 191.24 412.423 194.237 405.334C197.447 397.742 201.183 385.263 199.923 369.62C198.62 353.447 192.566 341.086 187.362 333.258C184.947 329.626 182.705 326.942 181.311 325.361C179.932 323.796 178.84 322.703 178.569 322.431L65.4314 435.568C64.431 434.568 59.1332 429.38 54.116 421.833C48.2812 413.055 41.8304 399.73 40.4397 382.47C37.866 350.529 54.5051 328.531 57.3761 324.584C64.974 314.137 77.8888 301.512 87.52 291.843L200.88 404.757ZM178.569 322.431C178.368 322.231 177.42 321.282 176.048 320.059C174.664 318.826 172.283 316.801 169.059 314.574C162.273 309.886 150.946 303.759 135.628 301.746C105.509 297.787 85.3377 312.771 84.0603 313.661C80.6587 316.029 79.5246 317.428 83.2109 313.93C86.162 311.129 90.3224 307.015 96.8427 300.52L209.757 413.879C200.246 423.354 186.959 436.978 175.49 444.964C170.137 448.691 147.203 464.644 114.778 460.382C98.3074 458.217 85.9411 451.62 78.1229 446.22C71.2495 441.472 66.4409 436.578 65.4314 435.568L178.569 322.431ZM96.9696 300.394L120.87 276.694L233.53 390.306L209.63 414.006L96.9696 300.394ZM256.249 345.796L255.549 350.296L97.4507 325.703L98.1507 321.203L256.249 345.796ZM255.636 349.724C253.447 364.503 247.326 386.221 241.115 400.093L95.0852 334.707C94.8831 335.158 94.7456 335.487 94.6716 335.667C94.6325 335.762 94.6042 335.833 94.5866 335.877C94.569 335.922 94.5599 335.945 94.5592 335.947C94.5589 335.948 94.5833 335.884 94.6313 335.751C94.6788 335.619 94.7425 335.439 94.8209 335.21C95.1577 334.226 95.5997 332.83 96.0663 331.201C96.5308 329.579 96.9193 328.076 97.1944 326.896C97.5107 325.54 97.4936 325.399 97.3637 326.276L255.636 349.724ZM240.95 400.458C219.528 447.666 179.906 478.363 134.163 494.396L81.2373 343.403C93.6937 339.037 95.072 334.733 95.2497 334.342L240.95 400.458ZM134.015 494.448C125.672 497.354 115.94 499.884 108.46 501.596C104.32 502.544 89.6808 506 76.6 506V346C74.2861 346 72.507 346.113 71.5469 346.187C70.5062 346.266 69.7372 346.353 69.3253 346.403C68.5404 346.498 68.2429 346.558 68.5829 346.5C69.2506 346.384 70.7018 346.101 72.7647 345.629C74.7546 345.173 76.8094 344.657 78.6081 344.164C79.4932 343.922 80.2143 343.712 80.7559 343.548C81.325 343.375 81.516 343.306 81.3854 343.352L134.015 494.448ZM76.6 506C76.5056 506 74.0753 506.016 71.2705 505.859C68.6409 505.712 61.9469 505.257 53.7994 503.006C44.9637 500.564 32.532 495.504 20.7884 484.804C8.81289 473.894 2.16318 461.33 -1.36528 450.921C-6.94312 434.466 -5.62756 419.896 -5.59008 419.201C-5.41042 415.871 -5.0216 412.406 -4.96044 411.825L154.16 428.575C153.922 430.844 154.085 429.529 154.178 427.821C154.234 426.767 154.375 423.819 154.151 419.929C153.941 416.306 153.267 408.705 150.165 399.554C146.762 389.514 140.287 377.229 128.544 366.531C117.034 356.044 104.893 351.128 96.4131 348.785C88.6219 346.632 82.3497 346.229 80.2155 346.11C77.9059 345.98 76.0444 346 76.6 346V506ZM-4.98252 412.038C-0.745625 370.728 15.3204 328.336 46.5052 296.563L160.695 408.637C160.08 409.264 155.546 415.072 154.183 428.362L-4.98252 412.038ZM46.4391 296.63C73.2562 269.242 102.464 255.231 138.388 247.701L171.212 404.298C167.867 404.999 165.747 405.608 164.465 406.036C163.837 406.246 163.421 406.409 163.173 406.512C162.93 406.614 162.818 406.672 162.801 406.681C162.787 406.688 162.809 406.677 162.842 406.656C162.874 406.636 162.855 406.645 162.769 406.711C162.613 406.83 161.972 407.333 160.761 408.57L46.4391 296.63ZM138.243 247.732C139.032 247.565 142.235 246.871 143.981 246.516C145.531 246.201 150.699 245.129 156.625 244.619C159.594 244.363 165.704 243.96 173.246 244.775C179.508 245.451 196.1 247.832 212.772 260.097C233.861 275.61 244.908 299.272 245.59 322.72C246.128 341.247 240.144 354.95 237.692 360.124C232.572 370.927 225.941 378.588 224.502 380.288C221.846 383.425 219.101 386.334 217.001 388.516C212.831 392.85 206.963 398.674 200.769 404.868L87.6314 291.731C94.8372 284.526 98.9443 280.449 101.711 277.574C103.08 276.151 103.044 276.129 102.387 276.905C102.027 277.331 100.979 278.583 99.6429 280.449C98.5099 282.03 95.7828 285.957 93.1079 291.601C90.9684 296.115 85.1314 309.277 85.6571 327.367C86.3257 350.378 97.2004 373.708 117.963 388.982C134.31 401.006 150.423 403.24 156.058 403.849C162.973 404.596 168.309 404.205 170.362 404.028C174.995 403.629 180.071 402.425 171.357 404.268L138.243 247.732Z" fill="#9F573B" mask="url(#path-16-inside-6_1944_9)"/>
<mask id="path-18-inside-7_1944_9" fill="white">
<path d="M315.3 311.1C311.2 312.6 310.7 314.4 311.4 325.8C313.7 359.8 324 384.2 344.3 403.7C357.7 416.4 372.8 425.3 391.5 431.4C406 436.2 429.7 440.1 435.3 438.6C439.7 437.5 440.5 433.4 439.2 419.1C436.4 387.7 425.6 362.8 406.5 343.5C392.3 329.1 377.7 320.8 357.5 315.5C344.6 312.2 319.5 309.5 315.3 311.1ZM352.7 327.6C372.1 332.4 386.9 340.8 399.7 354.3C409.2 364.4 415.1 374.6 420.2 389.4C423.8 400 427 415.8 427 422.9V426.2L421.3 425.5C412.1 424.4 394.2 419.5 385.2 415.7C371.9 410 362.4 403.5 352 393C338.5 379.4 331.6 366.8 327 347.9C323 331 322.2 330.7 348.8 357.3C374.5 383 375.7 383.8 379.9 378.4C381.1 376.9 382 375 382 374.2C382 373.3 371.1 361.7 357.8 348.3L333.5 324L338.5 324.6C341.3 325 347.6 326.3 352.7 327.6Z"/>
</mask>
<path d="M315.3 311.1L343.779 385.859L343.284 386.048L342.786 386.23L315.3 311.1ZM311.4 325.8L231.582 331.199L231.565 330.951L231.55 330.703L311.4 325.8ZM344.3 403.7L289.268 461.765L289.073 461.58L288.879 461.394L344.3 403.7ZM391.5 431.4L416.309 355.344L416.475 355.398L416.641 355.453L391.5 431.4ZM435.3 438.6L414.601 361.324L415.247 361.151L415.897 360.989L435.3 438.6ZM439.2 419.1L359.528 426.343L359.522 426.274L359.516 426.206L439.2 419.1ZM406.5 343.5L349.637 399.773L349.587 399.722L349.537 399.672L406.5 343.5ZM357.5 315.5L377.326 237.996L377.565 238.057L377.803 238.119L357.5 315.5ZM352.7 327.6L333.485 405.258L333.212 405.191L332.939 405.121L352.7 327.6ZM399.7 354.3L457.753 299.257L457.863 299.372L457.973 299.489L399.7 354.3ZM420.2 389.4L495.835 363.336L495.893 363.505L495.95 363.673L420.2 389.4ZM427 426.2H507V516.626L417.248 505.603L427 426.2ZM421.3 425.5L430.797 346.066L430.924 346.081L431.051 346.097L421.3 425.5ZM385.2 415.7L354.082 489.4L353.884 489.316L353.686 489.232L385.2 415.7ZM352 393L408.777 336.641L408.807 336.672L408.838 336.703L352 393ZM327 347.9L249.269 366.819L249.209 366.572L249.151 366.326L327 347.9ZM379.9 378.4L316.752 329.285L317.088 328.852L317.43 328.424L379.9 378.4ZM357.8 348.3L414.368 291.731L414.474 291.837L414.58 291.944L357.8 348.3ZM333.5 324L276.931 380.569L113.373 217.011L343.031 244.57L333.5 324ZM338.5 324.6L348.031 245.17L348.924 245.277L349.813 245.404L338.5 324.6ZM342.786 386.23C344.942 385.441 355.794 381.532 366.729 371.574C379.51 359.934 385.95 346.218 388.848 335.351C391.185 326.589 391.132 319.953 391.135 319.462C391.143 318.35 391.09 318.299 391.249 320.897L231.55 330.703C231.36 327.601 231.106 323.05 231.139 318.348C231.168 314.266 231.364 304.949 234.251 294.124C237.699 281.194 244.989 266.035 258.996 253.279C271.155 242.205 283.608 237.509 287.813 235.97L342.786 386.23ZM391.217 320.401C392.473 338.957 396.676 343.082 399.72 346.006L288.879 461.394C251.323 425.318 234.927 380.643 231.582 331.199L391.217 320.401ZM399.331 345.635C403.663 349.741 408.284 352.726 416.309 355.344L366.69 507.456C337.316 497.874 311.736 483.059 289.268 461.765L399.331 345.635ZM416.641 355.453C417.4 355.704 419.185 356.23 421.895 356.864C424.5 357.473 427.248 358.017 429.718 358.423C430.931 358.622 431.945 358.767 432.727 358.865C433.542 358.966 433.886 358.99 433.797 358.984C433.737 358.979 433.457 358.96 432.987 358.945C432.536 358.931 431.711 358.913 430.588 358.939C429.518 358.963 427.717 359.036 425.404 359.287C424.218 359.416 422.729 359.61 421.005 359.91C419.302 360.206 417.12 360.649 414.601 361.324L455.999 515.876C440.067 520.143 425.035 518.764 422.468 518.582C416.053 518.127 409.552 517.255 403.756 516.302C392.502 514.452 378.664 511.42 366.359 507.347L416.641 355.453ZM415.897 360.989C405.66 363.548 390.663 369.789 377.986 384.142C366.159 397.533 362.288 411.344 360.928 418.175C359.621 424.74 359.768 429.297 359.768 429.32C359.776 429.805 359.781 429.125 359.528 426.343L518.871 411.857C519.38 417.458 521.039 433.394 517.846 449.425C515.899 459.206 511.084 475.142 497.91 490.058C483.887 505.936 467.14 513.102 454.703 516.211L415.897 360.989ZM359.516 426.206C358.098 410.3 353.636 403.814 349.637 399.773L463.362 287.227C497.563 321.786 514.702 365.1 518.884 411.994L359.516 426.206ZM349.537 399.672C346.838 396.935 345.348 395.997 344.594 395.567C343.775 395.1 341.811 394.091 337.197 392.881L377.803 238.119C411.273 246.901 438.72 262.237 463.462 287.328L349.537 399.672ZM337.673 393.004C337.731 393.019 337.342 392.92 336.438 392.739C335.572 392.565 334.463 392.362 333.144 392.147C330.459 391.708 327.489 391.311 324.744 391.021C323.396 390.879 322.234 390.777 321.305 390.709C320.847 390.676 320.484 390.654 320.215 390.64C319.941 390.626 319.815 390.623 319.825 390.623C319.834 390.623 319.894 390.624 320.001 390.625C320.107 390.626 320.28 390.627 320.513 390.624C320.931 390.62 321.801 390.603 323.013 390.524C324.121 390.451 326.264 390.28 329.051 389.831C330.487 389.599 332.423 389.242 334.707 388.685C336.925 388.144 340.081 387.268 343.779 385.859L286.82 236.341C299.322 231.578 310.474 231.002 312.567 230.865C316.973 230.577 320.968 230.6 323.877 230.674C329.852 230.825 336.046 231.325 341.53 231.904C351.951 233.003 365.67 235.014 377.326 237.996L337.673 393.004ZM371.914 249.942C404.974 258.122 433.627 273.811 457.753 299.257L341.646 409.343C340.305 407.929 339.571 407.481 339.166 407.251C338.673 406.971 337.123 406.158 333.485 405.258L371.914 249.942ZM457.973 299.489C476.357 319.034 487.624 339.508 495.835 363.336L344.564 415.464C343.276 411.726 342.546 410.481 342.481 410.369C342.435 410.29 342.409 410.25 342.345 410.166C342.272 410.068 342.013 409.734 341.427 409.111L457.973 299.489ZM495.95 363.673C499.099 372.944 501.608 382.955 503.353 391.559C504.823 398.807 507 410.996 507 422.9H347C347 424.842 347.101 426.134 347.133 426.513C347.171 426.979 347.195 427.104 347.159 426.838C347.083 426.271 346.892 425.072 346.546 423.366C346.21 421.706 345.806 419.963 345.384 418.349C344.948 416.682 344.607 415.59 344.449 415.127L495.95 363.673ZM507 422.9V426.2H347V422.9H507ZM417.248 505.603L411.548 504.903L431.051 346.097L436.751 346.797L417.248 505.603ZM411.802 504.934C394.481 502.863 369.322 495.835 354.082 489.4L416.317 342C415.826 341.793 416.383 342.044 418.237 342.651C419.911 343.199 421.976 343.82 424.188 344.422C426.407 345.026 428.412 345.513 429.961 345.848C431.764 346.238 431.929 346.201 430.797 346.066L411.802 504.934ZM353.686 489.232C330.689 479.376 312.64 466.944 295.161 449.297L408.838 336.703C411.181 339.068 412.293 339.856 412.67 340.114C413.021 340.354 414.005 341.008 416.713 342.168L353.686 489.232ZM295.223 449.359C271.058 425.016 257.177 399.31 249.269 366.819L404.731 328.981C405.789 333.329 406.425 334.183 406.175 333.73C406.104 333.602 406.109 333.649 406.363 333.977C406.65 334.349 407.352 335.206 408.777 336.641L295.223 449.359ZM249.151 366.326C249.086 366.055 246.397 355.671 245.471 347.367C245.151 344.503 244.643 338.898 245.098 331.979C245.47 326.328 246.904 311.292 256.548 295.237C268.794 274.853 290.275 259.717 316.272 256.661C336.785 254.249 352.375 260.344 358.233 262.883C370.27 268.099 378.71 275.338 380.357 276.709C383.67 279.469 386.704 282.313 388.923 284.437C393.353 288.677 399.217 294.581 405.368 300.731L292.231 413.869C285.082 406.719 281.071 402.686 278.295 400.028C276.911 398.704 277.009 398.86 277.959 399.651C278.471 400.078 279.895 401.247 281.997 402.705C283.763 403.93 288.212 406.917 294.616 409.692C299.818 411.946 314.871 417.927 334.955 415.566C360.523 412.56 381.683 397.64 393.703 377.63C403.122 361.951 404.426 347.45 404.753 342.488C405.163 336.259 404.693 331.5 404.485 329.63C404.002 325.304 402.913 321.295 404.849 329.474L249.151 366.326ZM405.368 300.731C411.954 307.318 416.106 311.438 419.028 314.215C422.808 317.808 421.296 316.002 417.307 313.297C415.967 312.389 391.485 294.677 357.041 303.495C340.674 307.685 329.815 316.117 324.342 321.136C321.61 323.642 319.659 325.814 318.603 327.037C317.545 328.261 316.836 329.176 316.752 329.285L443.048 427.515C442.311 428.462 438.322 433.703 432.481 439.059C426.038 444.968 414.195 454.023 396.723 458.496C360.071 467.879 332.895 449.374 327.517 445.728C319.49 440.285 312.598 433.798 308.794 430.182C304.131 425.75 298.495 420.132 292.231 413.869L405.368 300.731ZM317.43 328.424C314.172 332.497 311.634 336.62 309.612 340.732C308.578 342.834 307.159 345.986 305.833 350.025C305.159 352.077 304.312 354.955 303.589 358.479C302.918 361.753 302 367.271 302 374.2H462C462 386.946 458.926 396.656 457.848 399.94C456.315 404.608 454.596 408.479 453.188 411.343C450.415 416.98 446.828 422.803 442.369 428.376L317.43 328.424ZM302 374.2C302 383.682 303.697 391.146 304.85 395.345C306.093 399.866 307.508 403.447 308.511 405.771C310.465 410.302 312.422 413.656 313.38 415.243C315.371 418.543 317.13 420.881 317.642 421.559C318.38 422.538 318.939 423.222 319.157 423.487C319.291 423.65 319.392 423.77 319.452 423.84C319.512 423.912 319.547 423.952 319.55 423.956C319.553 423.959 319.481 423.876 319.32 423.695C319.161 423.517 318.946 423.278 318.669 422.973C318.108 422.356 317.381 421.568 316.481 420.606C312.791 416.664 307.319 411.003 301.02 404.656L414.58 291.944C421.581 298.997 428.209 305.836 433.294 311.269C435.742 313.885 438.364 316.74 440.627 319.36C441.628 320.518 443.455 322.659 445.369 325.197C446.205 326.305 448.21 328.998 450.368 332.573C451.409 334.298 453.429 337.77 455.425 342.398C456.547 344.998 462 357.35 462 374.2H302ZM301.231 404.869L276.931 380.569L390.068 267.431L414.368 291.731L301.231 404.869ZM343.031 244.57L348.031 245.17L328.968 404.03L323.968 403.43L343.031 244.57ZM349.813 245.404C356.503 246.36 365.833 248.39 372.46 250.079L332.939 405.121C331.698 404.805 329.983 404.409 328.314 404.059C327.514 403.891 326.898 403.77 326.516 403.699C325.993 403.601 326.307 403.67 327.186 403.796L349.813 245.404Z" fill="#9F573B" mask="url(#path-18-inside-7_1944_9)"/>
<path d="M46.5 312.9C36.2 319.1 33 332.5 39.7 340.8C46 348.5 55.4 350.9 63.8 346.9C74.2 341.8 77.2999 327 69.8 317.4C65.1 311.5 52.7 309.1 46.5 312.9ZM60.3 326.2C62.5 328.9 62.5 331.5 60 334C55.5 338.5 48.6 335.2 49.2 328.9C49.7 323.1 56.2 321.6 60.3 326.2Z" stroke="#9F573B" stroke-width="5"/>
<path d="M424.4 312.9C419.6 315.8 416.1 321.1 414.8 327.2C413.7 332.3 413.8 333.1 416.1 337.6C422.6 350.8 440.6 352.9 448.5 341.2C453.7 333.6 453.8 326.5 448.7 318.9C444 311.8 431.3 308.7 424.4 312.9ZM438.3 326.2C440.5 328.9 440.5 331.5 438 334C434 338 427 335.5 427 330C427 323.5 433.9 321.2 438.3 326.2Z" stroke="#9F573B" stroke-width="5"/>
<path d="M160.5 415.5C153 419.6 149.5 426.4 150.2 435.3C150.8 442.3 153.6 446.2 160.5 449.6C165 451.7 167 452.2 171.1 451.8C180.3 450.9 187.5 442.3 187.5 432.4C187.4 426.4 185.1 422 179.7 417.7C176.6 415.1 174.9 414.5 169.7 414.2C165.3 414 162.6 414.4 160.5 415.5ZM172.4 428.1C175.4 430.5 175.8 434.4 173.3 437.2C169.8 441.1 162 438 162 432.6C162 430.1 166.1 426 168.5 426C169.2 426 170.9 426.9 172.4 428.1Z" stroke="#9F573B" stroke-width="5"/>
<path d="M319.5 415.9C313.2 419.7 309 427 309 434C309.1 441.7 317.2 450.3 325.7 451.6C334.2 452.9 341.3 449.2 345 441.5C348.7 433.9 347.1 424 341.3 418.8C336 414 325 412.5 319.5 415.9ZM333.3 429.2C335.5 431.9 335.5 434.5 333 437C328.5 441.5 321.6 438.2 322.2 431.9C322.7 426.1 329.2 424.6 333.3 429.2Z" stroke="#9F573B" stroke-width="5"/>
</g>
<defs>
<clipPath id="clip0_1944_9">
<rect width="500" height="500" fill="white"/>
</clipPath>
</defs>
</svg>
