<svg width="154" height="193" viewBox="0 0 154 193" fill="none" xmlns="http://www.w3.org/2000/svg">
<path d="M66.5906 83.7409C65.5588 81.4614 65.9471 79.0749 67.4577 78.4106C68.9683 77.7463 71.0289 79.0557 72.0609 81.3361C72.4861 82.2413 72.6793 83.2363 72.6244 84.2377L76.8694 93.9518L72.0817 95.8736L68.4052 86.0932C67.6122 85.4644 66.99 84.6578 66.5906 83.7409Z" fill="#FFAFAF"/>
<path d="M95.9279 87.8653C98.5159 90.3057 98.3538 94.4694 95.5839 96.7012L82.0195 107.63C80.5391 108.823 78.342 108.402 77.4081 106.746C73.8434 100.975 73.1714 100.658 71.0996 94.7435L76.9422 92.6999L80.2364 96.8248L87.4287 88.3401C89.6024 85.7758 93.4821 85.5591 95.9279 87.8653Z" fill="#D82C27"/>
<path d="M43.5562 73.1086V68.8081H0.942066V73.1086H43.5562Z" fill="#DFDFDF"/>
<path d="M151.46 73.1086V68.8081H108.846V73.1086H151.46Z" fill="#DFDFDF"/>
<path d="M24.5489 53.9546H17.2633C14.4378 53.9546 12.1472 56.2452 12.1472 59.0707V85.9762C12.1472 88.8017 14.4378 91.0923 17.2633 91.0923H24.5489C27.3744 91.0923 29.665 88.8017 29.665 85.9762V59.0707C29.665 56.2452 27.3744 53.9546 24.5489 53.9546Z" fill="#3F3D56"/>
<path d="M139.466 53.9546H132.18C129.355 53.9546 127.064 56.2452 127.064 59.0707V85.9762C127.064 88.8017 129.355 91.0923 132.18 91.0923H139.466C142.291 91.0923 144.582 88.8017 144.582 85.9762V59.0707C144.582 56.2452 142.291 53.9546 139.466 53.9546Z" fill="#3F3D56"/>
<path d="M134.848 81.9832H23.5821C19.7138 81.9832 16.4038 79.2208 15.7118 75.4151L11.4567 52.0121C9.60624 41.8343 13.4405 31.465 21.465 24.9399L29.8554 6.88805C31.8002 2.70362 36.0384 0 40.6527 0H103.329C106.661 0 109.862 1.40963 112.112 3.8676L127.529 20.7124C138.809 28.3131 145.208 41.4586 144.232 55.0257L142.826 74.558C142.527 78.7216 139.022 81.9832 134.848 81.9832Z" fill="#DFDFDF"/>
<path d="M115.859 23.2986H31.7959C30.336 23.2986 28.9888 22.5681 28.1922 21.3449C27.3956 20.1214 27.2725 18.5938 27.8631 17.2587L32.2939 7.24107C32.9683 5.71648 34.4808 4.7116 36.1471 4.68115L107.808 4.7684C109.173 4.7595 110.476 5.37365 111.303 6.45448L119.274 16.3849C120.275 17.6939 120.444 19.4248 119.714 20.9029C118.984 22.3806 117.507 23.2986 115.859 23.2986Z" fill="white"/>
<path d="M128.465 49.7506C132.529 49.7506 135.823 46.4565 135.823 42.3931C135.823 38.3297 132.529 35.0356 128.465 35.0356C124.402 35.0356 121.108 38.3297 121.108 42.3931C121.108 46.4565 124.402 49.7506 128.465 49.7506Z" fill="white"/>
<path d="M31.7671 49.7506C35.8306 49.7506 39.1246 46.4565 39.1246 42.3931C39.1246 38.3297 35.8306 35.0356 31.7671 35.0356C27.7037 35.0356 24.4097 38.3297 24.4097 42.3931C24.4097 46.4565 27.7037 49.7506 31.7671 49.7506Z" fill="white"/>
<path d="M121.283 69.8958H41.0513V69.7206C41.0513 65.567 44.4304 62.188 48.5839 62.188H113.75C117.904 62.188 121.283 65.567 121.283 69.7206V69.8958Z" fill="#3F3D56"/>
<path d="M22.6441 26.483C22.21 26.483 21.7749 26.3448 21.4097 26.0656L18.4721 23.8197C18.1804 23.5967 17.8175 23.4738 17.4501 23.4738H11.035C10.301 23.4738 9.64327 23.0947 9.27555 22.4594C8.90783 21.8244 8.90646 21.0651 9.27187 20.4288L10.8379 17.7005C11.1508 17.1555 11.7094 16.7805 12.3324 16.6973L20.3586 15.6271C21.359 15.4943 22.2903 16.0989 22.5766 17.0651L24.5938 23.8731C24.8159 24.6228 24.583 25.4439 24.0003 25.9657C23.6163 26.3092 23.1308 26.483 22.6441 26.483Z" fill="#DFDFDF"/>
<path d="M126.727 25.0815C126.241 25.0815 125.755 24.9077 125.371 24.5642C124.789 24.0424 124.556 23.2213 124.778 22.4716L126.795 15.6637C127.081 14.6968 128.014 14.0901 129.013 14.226L137.039 15.2959C137.662 15.379 138.221 15.754 138.534 16.299L140.1 19.0273C140.465 19.6637 140.464 20.4229 140.096 21.0579C139.728 21.6933 139.07 22.0724 138.336 22.0724H131.921C131.554 22.0724 131.191 22.1952 130.899 22.4183L127.962 24.6641C127.597 24.9433 127.161 25.0815 126.727 25.0815Z" fill="#DFDFDF"/>
<path d="M5.24289 13.2925H0.942383V189.613H5.24289V13.2925Z" fill="#DFDFDF"/>
<path d="M153.806 13.2925H149.505V189.613H153.806V13.2925Z" fill="#DFDFDF"/>
<path d="M104.98 176.447V184.434L111.019 184.629L110.767 176.447H104.98Z" fill="#FFAFAF"/>
<path d="M103.785 180.891C103.703 180.891 103.623 180.902 103.546 180.924C102.456 181.235 96.1476 186.867 94.2402 188.586C94.0045 188.798 93.8793 189.101 93.8966 189.418C93.9137 189.733 94.0705 190.019 94.3263 190.203C95.773 191.245 98.7365 192.893 102.332 192.227C103.986 191.921 105.656 191.728 107.128 191.558C110.281 191.194 112.771 190.907 112.771 189.79C112.771 187.897 112.251 182.906 111.597 182.696C111.538 182.678 111.469 182.724 111.39 182.835C110.39 184.235 106.955 183.49 106.809 183.457L106.771 183.449L106.749 183.416C106.731 183.39 105.05 180.891 103.785 180.891Z" fill="#2F2E41"/>
<path d="M93.6816 176.447V184.434L99.7202 184.629L99.4686 176.447H93.6816Z" fill="#FFAFAF"/>
<path d="M91.2467 119.276L88.0326 121.71L87.4482 149.176L92.9024 179.174L100.012 179.466L100.207 150.832L109.362 124.73L107.512 118.594L91.2467 119.276Z" fill="#2F2E41"/>
<path d="M106.246 123.951L109.363 124.73L111.603 179.174L103.519 178.492L98.1621 140.021L106.246 123.951Z" fill="#2F2E41"/>
<path d="M89.3704 192.574C86.5994 192.574 84.3479 191.349 83.1454 190.524C82.7821 190.274 82.5573 189.878 82.5285 189.437C82.4994 188.992 82.6729 188.566 83.0045 188.267C85.989 185.582 91.1517 181.034 92.194 180.736C93.5448 180.349 95.3576 182.932 95.5908 183.275C95.9682 183.352 99.0606 183.943 99.9331 182.721C100.1 182.488 100.256 182.478 100.358 182.51C101.291 182.809 101.668 188.812 101.668 189.79C101.668 191.08 99.2289 191.361 95.8528 191.751C94.3831 191.921 92.7173 192.113 91.0697 192.418C90.4857 192.526 89.9179 192.574 89.3704 192.574Z" fill="#2F2E41"/>
<path d="M97.9258 83.7012L100.144 88.171L91.7588 92.2209L91.8615 85.0553L97.9258 83.7012Z" fill="#FFAFAF"/>
<path d="M91.7887 87.0822C95.956 87.0822 99.3342 83.704 99.3342 79.5367C99.3342 75.3695 95.956 71.9912 91.7887 71.9912C87.6214 71.9912 84.2432 75.3695 84.2432 79.5367C84.2432 83.704 87.6214 87.0822 91.7887 87.0822Z" fill="#FFAFAF"/>
<path d="M91.7375 90.4785L99.4744 85.9067C105.149 89.8863 109.874 90.8173 110.025 97.7465L108.979 114.275L109.04 121.394C109.066 124.382 106.651 126.818 103.662 126.818H92.6142C89.6905 126.818 87.5123 124.121 88.1279 121.263L90.2136 111.579L87.9863 92.7058L91.7375 90.4785Z" fill="#D82C27"/>
<path d="M99.5482 83.3337L98.1531 84.3331C98.1531 84.3331 97.7426 79.9772 97.1762 79.7839C96.6098 79.5906 95.8456 80.5945 95.8456 80.5945L95.2875 82.2298L93.4421 81.4606C93.4421 81.4606 91.3053 80.3098 90.5501 80.052C89.7949 79.7943 89.9094 77.6059 89.9094 77.6059C89.9094 77.6059 80.8432 78.8472 82.2054 73.6207C82.2054 73.6207 82.6744 69.7757 83.6783 70.5399C84.6823 71.3041 84.6958 69.4116 84.6958 69.4116L86.9704 68.9231C86.9704 68.9231 90.0917 64.7185 96.2488 68.2953C102.406 71.8722 99.5482 83.3337 99.5482 83.3337Z" fill="#2F2E41"/>
<path d="M83.8008 100.035L81.7624 99.7247C81.1932 99.638 80.7985 99.1013 80.8852 98.5321L81.1343 96.897C80.3945 97.3542 79.8515 98.1194 79.7103 99.0465C79.4923 100.477 80.3005 101.824 81.5831 102.349L79.7995 114.056C79.795 114.085 79.796 114.114 79.7952 114.143C78.4107 114.258 77.2333 115.305 77.0149 116.739C76.8869 117.579 77.1126 118.391 77.5804 119.025L77.8048 117.552C77.8915 116.983 78.4282 116.588 78.9973 116.675L81.0357 116.986C81.6048 117.072 81.9996 117.609 81.9129 118.178L81.6638 119.813C82.4036 119.356 82.9466 118.591 83.0878 117.664C83.3062 116.23 82.4941 114.88 81.2066 114.358C81.2145 114.33 81.224 114.303 81.2284 114.274L83.012 102.566C84.3926 102.447 85.5652 101.402 85.7832 99.9717C85.9112 99.1314 85.6855 98.319 85.2177 97.6852L84.9933 99.158C84.9066 99.7272 84.3699 100.122 83.8008 100.035Z" fill="#3F3D56"/>
<path d="M80.0042 110.221C77.5581 109.695 75.8709 107.963 76.2356 106.354C76.6003 104.744 78.8787 103.867 81.3255 104.394C82.3061 104.591 83.2208 105.027 83.9931 105.667L94.3266 108.034L93.0231 113.026L82.9745 110.162C81.9973 110.426 80.9788 110.446 80.0042 110.221Z" fill="#FFAFAF"/>
<path d="M100.772 89.0942C104.274 88.4658 107.524 91.0731 107.67 94.6272L108.385 112.032C108.463 113.932 106.818 115.447 104.931 115.212C98.1715 114.645 98.6464 115.337 92.6597 113.483L93.0606 107.122L98.6391 107.037L96.0979 96.2083C95.3298 92.9356 97.4637 89.6882 100.772 89.0942Z" fill="#D82C27"/>
</svg>
