<svg width="958" height="961" viewBox="0 0 958 961" fill="none" xmlns="http://www.w3.org/2000/svg">
<g clip-path="url(#clip0_2486_3)" filter="url(#filter0_d_2486_3)">
<g filter="url(#filter1_d_2486_3)">
<path d="M81.0608 737.265C95.3889 759.418 111.629 780.274 129.596 799.594C146.213 817.47 162.476 833.023 178.36 845.626C209.743 871.347 237.5 887.362 256.757 897.34C266.268 902.628 273.957 905.778 278.988 908.247L286.677 911.843L286.696 911.853L294.551 915.105C299.771 917.151 307.319 920.718 317.623 924.159C337.968 931.639 368.559 941.331 408.778 947.144C428.827 950.371 451.325 951.878 475.802 952.082C500.288 952.344 526.835 950.532 554.812 945.895C610.647 936.718 672.718 916.12 732.136 878.628C761.716 859.843 790.717 837.16 817.245 810.068C843.845 783.064 867.758 751.632 888.293 716.925C890.991 712.677 893.309 708.113 895.754 703.622C898.16 699.116 900.658 694.601 903 690.057L909.508 676.38L912.779 669.507C913.98 666.824 914.797 664.642 915.827 662.183L921.727 647.767C923.652 642.926 925.246 637.944 927.03 633.016C930.724 623.198 933.489 613.021 936.537 602.867C942 582.396 946.743 561.443 949.46 539.96C951.191 529.272 951.881 518.405 952.911 507.532C953.305 502.089 953.407 496.611 953.665 491.129L954 482.895L953.961 474.642C953.927 430.559 947.468 385.805 934.947 342.242C928.668 320.458 920.571 299.097 911.273 278.159C901.81 257.284 890.631 237.108 878.325 217.565C865.872 198.094 851.758 179.625 836.628 161.972C821.386 144.393 804.589 128.145 786.941 112.849C769.191 97.6509 750.08 84.0566 730.323 71.5072C710.512 59.196 689.185 48.338 668.281 39.0013C646.4 29.825 624.538 21.9756 601.869 15.9002C579.22 10.0873 556.27 5.46508 533.086 2.92799C509.902 0.531849 486.621 -0.600607 463.442 0.317995C440.288 1.3581 417.25 3.70564 394.62 7.92927C372.034 12.3133 349.774 17.9415 328.184 25.2904C306.672 32.819 285.656 41.4364 265.569 51.6771C225.437 72.1779 188.6 97.8794 156.61 127.741L150.578 133.287L144.819 139.09C141.008 142.978 137.091 146.75 133.397 150.716C126.184 158.813 118.743 166.643 112.138 175.125C98.349 191.611 86.3148 209.21 75.1117 227.004C69.7848 236.078 64.2538 244.943 59.583 254.314C57.2014 258.946 54.6303 263.519 52.4237 268.161L45.9741 282.076C44.8999 284.433 43.8404 286.591 42.7565 289.109L39.9084 296.234L34.2315 310.407C32.5012 315.17 30.9168 319.977 29.2643 324.735C27.6506 329.508 25.8961 334.213 24.6129 339.059C13.1426 377.392 6.32837 415.998 4.55921 453.573C2.81935 489.821 5.14247 526.149 11.4852 561.88C23.8353 630.576 50.3241 690.008 81.0608 737.265ZM10.1097 453.884C12.2969 416.77 19.4853 378.758 31.2327 341.114C32.5498 336.356 34.3384 331.739 35.9812 327.054C37.6678 322.383 39.2814 317.668 41.0408 312.997L46.8003 299.107L49.6922 292.132C50.6303 289.989 51.821 287.573 52.8709 285.303L59.408 271.427C61.634 266.819 64.1468 262.44 66.5089 257.91C71.102 248.827 76.6233 240.107 81.9065 231.218C93.0318 213.793 104.964 196.563 118.612 180.451C125.149 172.16 132.512 164.514 139.637 156.607C143.288 152.733 147.161 149.054 150.923 145.258L156.61 139.596L162.568 134.186C194.146 105.063 230.438 80.0857 269.889 60.2361C289.632 50.321 310.279 42.0099 331.377 34.7631C352.559 27.6962 374.377 22.3256 396.491 18.17C418.649 14.1699 441.187 12.0217 463.816 11.1371C486.466 10.3789 509.192 11.628 531.803 14.1019C554.413 16.7167 576.775 21.3729 598.827 27.1664C620.771 33.1787 642.443 41.1447 663.158 49.9614C684.393 59.6675 704.247 70.0054 723.616 82.2194C742.746 94.5841 761.225 107.94 778.362 122.852C795.393 137.851 811.592 153.754 826.261 170.94C840.813 188.199 854.373 206.221 866.305 225.21C878.096 244.268 888.789 263.908 897.8 284.215C906.617 304.589 914.393 325.304 920.376 346.437C932.308 388.687 938.34 432.027 938.204 474.662L938.272 482.647L937.971 490.613C937.732 495.911 937.659 501.214 937.295 506.482C936.318 517.005 935.701 527.518 934.053 537.865C931.497 558.658 926.957 578.955 921.742 598.794C918.816 608.632 916.182 618.503 912.624 628.024C910.908 632.802 909.392 637.638 907.535 642.328L901.858 656.316L899.083 663.106L895.909 670.023L889.591 683.792L882.82 696.866C880.541 701.192 878.417 705.561 875.836 709.741C856.385 743.691 833.59 774.573 808.073 801.217C782.508 827.798 755.052 850.895 726.493 869.908C669.296 908.033 608.737 929.836 553.81 940.208C498.704 950.867 449.07 949.453 409.211 944.077C369.191 938.804 338.624 929.535 318.274 922.342C307.96 919.041 300.402 915.581 295.178 913.608L287.314 910.468L279.634 906.876C274.614 904.412 266.886 901.248 257.447 895.989C238.292 886.064 210.589 870.083 179.327 844.45C148.099 818.992 113.037 783.681 82.9514 736.055C52.7882 688.749 27.082 629.385 15.7088 561.146C9.84387 525.713 7.9658 489.735 10.1097 453.884Z" fill="#111111"/>
<path d="M573.146 189.642C571.964 185.261 568.604 181.688 564.521 179.766C580.179 188.386 568.881 203.544 561.465 195.548C553.924 187.416 541.879 183.437 531.566 180.422C499.207 170.972 462.011 168.221 428.783 174.369C408.942 178.045 375.104 196.412 409.44 211.367C443.836 226.35 489.469 218.478 524.876 211.589C535.49 209.522 557.161 198.254 560.724 210.255C565.019 224.724 563.847 240.719 561.259 255.37C555.669 287.034 540.123 330.719 508.697 345.63C484.88 356.928 481.541 335.289 465.36 322.382C451.304 311.166 426.76 304.571 425.329 285.857C424.268 271.988 420.457 216.383 394.861 226.406C380.711 232.963 386.764 259.127 391.024 269.594C395.325 277.816 400.981 284.965 407.994 291.041C421.536 303.182 417.386 305.111 422.491 321.427C427.585 337.716 440.426 346.368 455.928 353.796C465.656 358.462 466.922 368.013 466.06 386.252C465.336 401.508 464.636 416.773 463.697 432.023C463.288 438.659 450.879 475.958 454.468 479.741C459.082 483.8 508.608 476.876 488.334 493.771C468.97 509.903 430.392 479.965 407.805 484.215C380.438 489.374 409.262 512.855 419.869 516.746C448.055 527.077 481.643 529.038 511.149 524.331C536.818 520.239 573.423 493.234 528.243 478.172C501.255 469.172 492.841 481.191 492.876 445.341C492.909 415.916 499.949 385.353 490.987 356.533C528.512 357.705 551 314.566 561.283 284.404C567.763 265.398 571.819 244.819 570.469 224.666C569.928 216.553 568.44 208.294 565.01 200.865C570.766 198.642 574.759 195.716 573.146 189.642C573.433 190.723 571.964 185.261 573.146 189.642ZM401.701 273.454C394.394 263.179 392.715 217.086 407.763 238.843C417.309 252.642 418.199 274.019 418.444 290.261C413.734 286.564 401.152 272.663 401.701 273.454C405.147 278.482 399.93 270.969 401.701 273.454ZM438.803 338.061C430.004 329.496 427.683 316.647 426.543 305.043C445.47 317.749 467.707 328.629 479.698 349.044C465.107 348.649 441.869 341.074 438.803 338.061C443.418 342.596 430.097 329.589 438.803 338.061ZM503.296 481.549C518.531 481.658 563.347 495.014 529.28 505.919C495.774 516.647 460.5 521.654 425.8 513.637C390.648 505.511 406.953 489.563 435.347 493.519C448.331 495.324 506.682 511.785 497.974 481.479C463.412 481.114 507.368 481.644 503.296 481.549C514.65 481.63 501.509 481.507 503.296 481.549ZM475.228 474.844C470.117 474.921 465.007 474.998 459.895 475.078C477.893 442.183 468.199 391.912 468.031 355.774C493.378 357.759 486.564 375.897 485.884 398.351C485.123 423.655 483.224 449.497 488.444 474.491C465.82 474.935 476.515 474.802 475.228 474.844C479.556 474.711 470.112 475.276 475.228 474.844ZM542.407 204.202C525.413 206.64 401.553 217.684 401.196 196.463C408.225 161.843 541.37 176.955 556.99 201.454C550.171 202.967 543.301 204.172 536.379 205.062C538.376 204.8 540.443 204.51 542.407 204.202C547.234 203.448 529.021 206.122 542.407 204.202Z" fill="#111111"/>
<path d="M329.919 653.703C345.903 687.924 336.067 725.835 352.05 725.835C325.82 725.835 313.525 699.195 301.23 669.072L282.582 622.76C269.058 589.767 264.959 582.39 250 582.39H277.254C303.484 582.39 306.558 596.12 319.673 629.112L329.919 653.703ZM391.395 687.924C391.395 705.342 392.829 725.425 402.666 725.835C389.346 725.835 362.296 720.916 362.296 683.006V620.096C362.296 602.677 360.862 582.8 351.026 582.39C364.345 582.39 391.395 587.104 391.395 625.014V687.924ZM281.148 678.293C281.148 710.875 295.492 725.835 308.402 725.835H253.893C266.803 725.835 281.148 710.875 281.148 678.293ZM467.856 687.924V625.014C467.856 587.104 440.806 582.39 427.487 582.39C437.323 582.8 438.757 602.677 438.757 620.096V683.006C438.757 720.916 465.807 725.835 479.126 725.835C469.29 725.425 467.856 705.342 467.856 687.924ZM529.537 725.835H486.913C513.143 725.63 522.774 708.826 529.537 690.383V725.835ZM597.801 574.194C591.243 574.194 592.678 584.03 592.678 595.71V607.596C592.678 633.211 569.112 643.866 555.792 643.866C565.628 643.457 563.579 625.629 563.579 617.227V609.85V607.186C563.579 580.341 587.145 574.194 597.801 574.194ZM626.515 618.456C626.515 594.276 645.368 582.39 669.139 582.39H676.926C663.196 582.39 655.819 592.636 655.819 603.497C655.819 633.211 718.729 652.268 718.729 686.285C718.729 711.285 697.418 725.835 671.393 725.835H666.27C680 725.835 686.557 714.974 686.557 704.728C686.557 674.4 626.515 652.268 626.515 618.456ZM691.065 617.022C700.492 617.022 708.279 609.44 708.279 599.809C708.279 590.177 700.082 582.39 691.065 582.39C681.434 582.39 673.647 590.177 673.647 599.809C673.647 609.44 681.434 617.022 691.065 617.022ZM640.04 725.835C649.466 725.835 657.253 718.252 657.253 708.621C657.253 698.99 649.057 691.203 640.04 691.203C630.409 691.203 622.622 698.99 622.622 708.621C622.622 718.252 630.409 725.835 640.04 725.835Z" fill="#111111"/>
<path d="M266.842 767.317C266.842 766.011 264.933 765.007 262.59 765.007C259.442 765.007 256.295 767.183 256.295 775.085C256.295 780.978 258.706 784.795 262.791 784.795C265.201 784.795 267.344 783.724 268.617 781.681C269.052 780.978 269.286 780.878 269.554 780.878C269.889 780.878 270.157 781.146 270.157 781.48C270.157 781.849 269.855 782.351 269.353 783.021C268.047 784.695 265.57 786.503 261.585 786.503C254.185 786.503 250 781.514 250 775.085C250 768.69 254.52 763.634 261.753 763.634C266.842 763.634 270.19 766.279 270.19 769.359C270.19 771.502 268.884 772.44 267.646 772.44C266.507 772.44 265.402 771.67 265.402 770.297C265.402 768.857 266.842 768.355 266.842 767.317ZM284.722 763.667C291.921 763.667 296.675 768.69 296.675 775.085C296.675 781.48 291.921 786.503 284.722 786.503C277.49 786.503 272.768 781.48 272.768 775.085C272.768 768.69 277.49 763.667 284.722 763.667ZM284.722 785.264C289.108 785.264 290.381 780.71 290.381 775.085C290.381 769.46 289.108 764.906 284.722 764.906C280.336 764.906 279.063 769.46 279.063 775.085C279.063 780.71 280.336 785.264 284.722 785.264ZM319.31 764.036C319.678 764.036 319.946 764.304 319.946 764.638C319.946 765.007 319.678 765.275 319.31 765.275H318.841C318.105 765.275 317.636 765.844 317.636 766.446V786.101H314.823L302.334 769.945V783.69C302.334 784.293 302.803 784.862 303.539 784.862H304.008C304.377 784.862 304.644 785.13 304.644 785.498C304.644 785.833 304.377 786.101 304.008 786.101H299.153C298.785 786.101 298.517 785.833 298.517 785.498C298.517 785.13 298.785 784.862 299.153 784.862H299.622C300.359 784.862 300.827 784.293 300.827 783.69V766.446C300.827 765.844 300.359 765.275 299.622 765.275H299.153C298.785 765.275 298.517 765.007 298.517 764.638C298.517 764.304 298.785 764.036 299.153 764.036H304.477L316.129 779.009V766.446C316.129 765.844 315.66 765.275 314.924 765.275H314.455C314.087 765.275 313.819 765.007 313.819 764.638C313.819 764.304 314.087 764.036 314.455 764.036H319.31ZM344.724 764.036C345.058 764.036 345.36 764.304 345.36 764.638C345.36 765.007 345.058 765.275 344.724 765.275H343.92C343.049 765.275 342.681 765.71 342.38 766.446L334.143 786.302H332.368L323.696 766.413C323.428 765.81 322.993 765.275 322.056 765.275H321.319C320.984 765.275 320.683 765.007 320.683 764.638C320.683 764.304 320.984 764.036 321.319 764.036H331.833C332.167 764.036 332.469 764.304 332.469 764.638C332.469 765.007 332.167 765.275 331.833 765.275H330.627C329.941 765.275 329.529 765.8 329.824 766.446L335.536 779.334L340.873 766.446C341.107 765.83 340.736 765.275 340.069 765.275H338.864C338.529 765.275 338.228 765.007 338.228 764.638C338.228 764.304 338.529 764.036 338.864 764.036H344.724ZM364.043 779.471C364.378 779.471 364.646 779.739 364.646 780.108V786.101H346.739C346.371 786.101 346.103 785.833 346.103 785.465C346.103 785.13 346.371 784.862 346.739 784.862H347.208C347.891 784.862 348.407 784.373 348.407 783.821L348.4 766.329C348.4 765.77 347.891 765.275 347.201 765.275H346.733C346.364 765.275 346.096 765.007 346.096 764.672C346.096 764.304 346.364 764.036 346.733 764.036H364.646V770.029C364.646 770.397 364.378 770.665 364.01 770.665C363.675 770.665 363.407 770.397 363.407 770.029V769.895C363.407 767.585 362.034 765.275 359.289 765.275H355.298C354.615 765.275 354.099 765.753 354.099 766.316L354.102 773.98H354.501C356.911 773.98 358.117 773.11 358.117 770.732V770.665C358.117 770.33 358.418 770.029 358.753 770.029C359.088 770.029 359.389 770.33 359.389 770.665V778.601C359.389 778.936 359.088 779.237 358.753 779.237C358.418 779.237 358.117 778.969 358.117 778.5V778.433C358.117 776.223 356.978 775.286 354.501 775.286H354.102L354.106 783.807C354.106 784.373 354.615 784.862 355.304 784.862H359.289C362.034 784.862 363.407 782.552 363.407 780.241V780.108C363.407 779.739 363.675 779.471 364.043 779.471ZM388.72 764.036C389.089 764.036 389.357 764.304 389.357 764.638C389.357 765.007 389.089 765.275 388.72 765.275H388.252C387.515 765.275 387.046 765.844 387.046 766.446V786.101H384.234L371.744 769.945V783.69C371.744 784.293 372.213 784.862 372.95 784.862H373.419C373.787 784.862 374.055 785.13 374.055 785.498C374.055 785.833 373.787 786.101 373.419 786.101H368.564C368.195 786.101 367.927 785.833 367.927 785.498C367.927 785.13 368.195 784.862 368.564 784.862H369.032C369.769 784.862 370.238 784.293 370.238 783.69V766.446C370.238 765.844 369.769 765.275 369.032 765.275H368.564C368.195 765.275 367.927 765.007 367.927 764.638C367.927 764.304 368.195 764.036 368.564 764.036H373.887L385.539 779.009V766.446C385.539 765.844 385.071 765.275 384.334 765.275H383.865C383.497 765.275 383.229 765.007 383.229 764.638C383.229 764.304 383.497 764.036 383.865 764.036H388.72ZM400.372 784.862C400.741 784.862 401.009 785.13 401.009 785.465C401.009 785.833 400.741 786.101 400.372 786.101H391.339C390.97 786.101 390.703 785.833 390.703 785.465C390.703 785.13 390.97 784.862 391.339 784.862H391.807C392.491 784.862 393.006 784.383 393.006 783.821L393 766.329C393 765.763 392.491 765.275 391.801 765.275H391.332C390.964 765.275 390.696 765.007 390.696 764.672C390.696 764.304 390.964 764.036 391.332 764.036H400.366C400.734 764.036 401.002 764.304 401.002 764.672C401.002 765.007 400.734 765.275 400.366 765.275H399.897C399.214 765.275 398.698 765.763 398.698 766.316L398.705 783.807C398.705 784.367 399.214 784.862 399.904 784.862H400.372ZM416.612 761.866C417.03 762.83 415.775 763.235 415.239 762.569L412.795 759.589L410.35 762.569C409.731 763.322 408.499 762.713 408.978 761.866L411.154 758.082C411.988 756.649 413.588 756.629 414.435 758.082L416.612 761.866ZM420.295 779.471C420.63 779.471 420.898 779.739 420.898 780.108V786.101H402.991C402.623 786.101 402.355 785.833 402.355 785.465C402.355 785.13 402.623 784.862 402.991 784.862H403.46C404.143 784.862 404.658 784.373 404.658 783.821L404.652 766.329C404.652 765.77 404.143 765.275 403.453 765.275H402.984C402.616 765.275 402.348 765.007 402.348 764.672C402.348 764.304 402.616 764.036 402.984 764.036H420.898V770.029C420.898 770.397 420.63 770.665 420.261 770.665C419.927 770.665 419.659 770.397 419.659 770.029V769.895C419.659 767.585 418.286 765.275 415.54 765.275H411.549C410.866 765.275 410.35 765.753 410.35 766.316L410.354 773.98H410.752C413.163 773.98 414.368 773.11 414.368 770.732V770.665C414.368 770.33 414.67 770.029 415.005 770.029C415.339 770.029 415.641 770.33 415.641 770.665V778.601C415.641 778.936 415.339 779.237 415.005 779.237C414.67 779.237 414.368 778.969 414.368 778.5V778.433C414.368 776.223 413.23 775.286 410.752 775.286H410.354L410.357 783.807C410.357 784.373 410.866 784.862 411.556 784.862H415.54C418.286 784.862 419.659 782.552 419.659 780.241V780.108C419.659 779.739 419.927 779.471 420.295 779.471ZM444.972 764.036C445.34 764.036 445.608 764.304 445.608 764.638C445.608 765.007 445.34 765.275 444.972 765.275H444.503C443.767 765.275 443.298 765.844 443.298 766.446V786.101H440.485L427.996 769.945V783.69C427.996 784.293 428.465 784.862 429.201 784.862H429.67C430.038 784.862 430.306 785.13 430.306 785.498C430.306 785.833 430.038 786.101 429.67 786.101H424.815C424.447 786.101 424.179 785.833 424.179 785.498C424.179 785.13 424.447 784.862 424.815 784.862H425.284C426.021 784.862 426.489 784.293 426.489 783.69V766.446C426.489 765.844 426.021 765.275 425.284 765.275H424.815C424.447 765.275 424.179 765.007 424.179 764.638C424.179 764.304 424.447 764.036 424.815 764.036H430.139L441.791 779.009V766.446C441.791 765.844 441.322 765.275 440.586 765.275H440.117C439.749 765.275 439.481 765.007 439.481 764.638C439.481 764.304 439.749 764.036 440.117 764.036H444.972ZM464.292 767.317C464.292 766.011 462.383 765.007 460.039 765.007C456.892 765.007 453.744 767.183 453.744 775.085C453.744 780.978 456.155 784.795 460.24 784.795C462.651 784.795 464.794 783.724 466.066 781.681C466.502 780.978 466.736 780.878 467.004 780.878C467.339 780.878 467.606 781.146 467.606 781.48C467.606 781.849 467.305 782.351 466.803 783.021C465.497 784.695 463.019 786.503 459.035 786.503C451.635 786.503 447.45 781.514 447.45 775.085C447.45 768.69 451.97 763.634 459.202 763.634C464.292 763.634 467.64 766.279 467.64 769.359C467.64 771.502 466.334 772.44 465.095 772.44C463.957 772.44 462.852 771.67 462.852 770.297C462.852 768.857 464.292 768.355 464.292 767.317ZM479.393 784.862C479.761 784.862 480.029 785.13 480.029 785.465C480.029 785.833 479.761 786.101 479.393 786.101H470.359C469.99 786.101 469.723 785.833 469.723 785.465C469.723 785.13 469.99 784.862 470.359 784.862H470.828C471.511 784.862 472.026 784.383 472.026 783.821L472.02 766.329C472.02 765.763 471.511 765.275 470.821 765.275H470.352C469.984 765.275 469.716 765.007 469.716 764.672C469.716 764.304 469.984 764.036 470.352 764.036H479.386C479.754 764.036 480.022 764.304 480.022 764.672C480.022 765.007 479.754 765.275 479.386 765.275H478.917C478.234 765.275 477.718 765.763 477.718 766.316L477.725 783.807C477.725 784.367 478.234 784.862 478.924 784.862H479.393ZM504.806 784.862C505.141 784.862 505.442 785.13 505.442 785.498C505.442 785.833 505.141 786.101 504.806 786.101H494.292C493.958 786.101 493.656 785.833 493.656 785.498C493.656 785.13 493.958 784.862 494.292 784.862H495.498C496.184 784.862 496.596 784.336 496.301 783.69L494.49 779.605H486.943L485.252 783.69C485.018 784.306 485.389 784.862 486.056 784.862H487.261C487.596 784.862 487.897 785.13 487.897 785.498C487.897 785.833 487.596 786.101 487.261 786.101H481.401C481.067 786.101 480.765 785.833 480.765 785.498C480.765 785.13 481.067 784.862 481.401 784.862H482.205C483.076 784.862 483.444 784.427 483.745 783.69L491.982 763.835H493.757L502.429 783.724C502.697 784.326 503.132 784.862 504.07 784.862H504.806ZM487.442 778.4H493.958L490.589 770.803L487.442 778.4ZM524.193 764.036C532.497 764.036 537.653 766.815 537.653 774.918C537.653 781.279 533.099 786.101 524.193 786.101H514.858C514.489 786.101 514.222 785.833 514.222 785.465C514.222 785.13 514.489 784.862 514.858 784.862H515.327C516.01 784.862 516.525 784.373 516.525 783.821L516.519 766.329C516.519 765.77 516.01 765.275 515.32 765.275H514.851C514.483 765.275 514.215 765.007 514.215 764.672C514.215 764.304 514.483 764.036 514.851 764.036H524.193ZM524.193 784.862C528.445 784.862 531.358 781.849 531.358 774.918C531.358 767.92 528.814 765.275 524.193 765.275H523.416C522.733 765.275 522.217 765.763 522.217 766.316L522.224 783.807C522.224 784.367 522.733 784.862 523.423 784.862H524.193ZM557.442 779.471C557.776 779.471 558.044 779.739 558.044 780.108V786.101H540.138C539.769 786.101 539.501 785.833 539.501 785.465C539.501 785.13 539.769 784.862 540.138 784.862H540.606C541.289 784.862 541.805 784.373 541.805 783.821L541.798 766.329C541.798 765.77 541.289 765.275 540.6 765.275H540.131C539.763 765.275 539.495 765.007 539.495 764.672C539.495 764.304 539.763 764.036 540.131 764.036H558.044V770.029C558.044 770.397 557.776 770.665 557.408 770.665C557.073 770.665 556.805 770.397 556.805 770.029V769.895C556.805 767.585 555.433 765.275 552.687 765.275H548.696C548.013 765.275 547.497 765.753 547.497 766.316L547.5 773.98H547.899C550.31 773.98 551.515 773.11 551.515 770.732V770.665C551.515 770.33 551.816 770.029 552.151 770.029C552.486 770.029 552.787 770.33 552.787 770.665V778.601C552.787 778.936 552.486 779.237 552.151 779.237C551.816 779.237 551.515 778.969 551.515 778.5V778.433C551.515 776.223 550.377 775.286 547.899 775.286H547.5L547.504 783.807C547.504 784.373 548.013 784.862 548.702 784.862H552.687C555.433 784.862 556.805 782.552 556.805 780.241V780.108C556.805 779.739 557.073 779.471 557.442 779.471ZM583.739 774.476C588.3 774.847 591.159 776.351 591.159 779.94C591.159 783.958 587.811 786.101 581.583 786.101H570.004C569.636 786.101 569.368 785.833 569.368 785.465C569.368 785.13 569.636 784.862 570.004 784.862H570.473C571.21 784.862 571.679 784.293 571.679 783.69L571.672 766.446C571.672 765.844 571.203 765.275 570.466 765.275H569.998C569.629 765.275 569.362 765.007 569.362 764.672C569.362 764.304 569.629 764.036 569.998 764.036H580.813C585.802 764.036 589.853 765.208 589.853 768.991C589.853 771.66 587.961 773.819 583.739 774.476ZM577.391 766.446V774.148H578.804C581.482 774.148 583.592 772.775 583.592 769.527C583.592 766.972 582.112 765.305 578.596 765.275H578.529C577.849 765.275 577.391 765.871 577.391 766.446ZM579.273 784.862C582.42 784.862 584.864 783.121 584.864 780.041C584.864 777.094 582.654 775.453 579.273 775.453H577.397V783.69C577.397 784.293 577.866 784.862 578.603 784.862H579.273ZM610.881 779.471C611.215 779.471 611.483 779.739 611.483 780.108V786.101H593.577C593.208 786.101 592.94 785.833 592.94 785.465C592.94 785.13 593.208 784.862 593.577 784.862H594.045C594.728 784.862 595.244 784.373 595.244 783.821L595.237 766.329C595.237 765.77 594.728 765.275 594.039 765.275H593.57C593.202 765.275 592.934 765.007 592.934 764.672C592.934 764.304 593.202 764.036 593.57 764.036H611.483V770.029C611.483 770.397 611.215 770.665 610.847 770.665C610.512 770.665 610.244 770.397 610.244 770.029V769.895C610.244 767.585 608.872 765.275 606.126 765.275H602.135C601.452 765.275 600.936 765.753 600.936 766.316L600.939 773.98H601.338C603.749 773.98 604.954 773.11 604.954 770.732V770.665C604.954 770.33 605.255 770.029 605.59 770.029C605.925 770.029 606.226 770.33 606.226 770.665V778.601C606.226 778.936 605.925 779.237 605.59 779.237C605.255 779.237 604.954 778.969 604.954 778.5V778.433C604.954 776.223 603.816 775.286 601.338 775.286H600.939L600.943 783.807C600.943 784.373 601.452 784.862 602.141 784.862H606.126C608.872 784.862 610.244 782.552 610.244 780.241V780.108C610.244 779.739 610.512 779.471 610.881 779.471ZM629.142 774.476C633.703 774.847 636.562 776.351 636.562 779.94C636.562 783.958 633.214 786.101 626.986 786.101H615.407C615.039 786.101 614.771 785.833 614.771 785.465C614.771 785.13 615.039 784.862 615.407 784.862H615.876C616.613 784.862 617.082 784.293 617.082 783.69L617.075 766.446C617.075 765.844 616.606 765.275 615.869 765.275H615.401C615.032 765.275 614.765 765.007 614.765 764.672C614.765 764.304 615.032 764.036 615.401 764.036H626.216C631.205 764.036 635.256 765.208 635.256 768.991C635.256 771.66 633.364 773.819 629.142 774.476ZM622.794 766.446V774.148H624.207C626.885 774.148 628.995 772.775 628.995 769.527C628.995 766.972 627.515 765.305 623.999 765.275H623.932C623.253 765.275 622.794 765.871 622.794 766.446ZM624.676 784.862C627.823 784.862 630.267 783.121 630.267 780.041C630.267 777.094 628.057 775.453 624.676 775.453H622.801V783.69C622.801 784.293 623.269 784.862 624.006 784.862H624.676ZM648.013 784.862C648.382 784.862 648.649 785.13 648.649 785.465C648.649 785.833 648.382 786.101 648.013 786.101H638.98C638.611 786.101 638.343 785.833 638.343 785.465C638.343 785.13 638.611 784.862 638.98 784.862H639.448C640.131 784.862 640.647 784.383 640.647 783.821L640.64 766.329C640.64 765.763 640.131 765.275 639.442 765.275H638.973C638.605 765.275 638.337 765.007 638.337 764.672C638.337 764.304 638.605 764.036 638.973 764.036H648.007C648.375 764.036 648.643 764.304 648.643 764.672C648.643 765.007 648.375 765.275 648.007 765.275H647.538C646.855 765.275 646.339 765.763 646.339 766.316L646.346 783.807C646.346 784.367 646.855 784.862 647.544 784.862H648.013ZM659.967 764.036C668.271 764.036 673.427 766.815 673.427 774.918C673.427 781.279 668.873 786.101 659.967 786.101H650.632C650.263 786.101 649.995 785.833 649.995 785.465C649.995 785.13 650.263 784.862 650.632 784.862H651.1C651.783 784.862 652.299 784.373 652.299 783.821L652.292 766.329C652.292 765.77 651.783 765.275 651.094 765.275H650.625C650.257 765.275 649.989 765.007 649.989 764.672C649.989 764.304 650.257 764.036 650.625 764.036H659.967ZM659.967 784.862C664.219 784.862 667.132 781.849 667.132 774.918C667.132 767.92 664.587 765.275 659.967 765.275H659.19C658.507 765.275 657.991 765.763 657.991 766.316L657.998 783.807C657.998 784.367 658.507 784.862 659.197 784.862H659.967ZM698.707 784.862C699.041 784.862 699.343 785.13 699.343 785.498C699.343 785.833 699.041 786.101 698.707 786.101H688.193C687.858 786.101 687.557 785.833 687.557 785.498C687.557 785.13 687.858 784.862 688.193 784.862H689.398C690.085 784.862 690.497 784.336 690.202 783.69L688.39 779.605H680.843L679.152 783.69C678.918 784.306 679.29 784.862 679.956 784.862H681.161C681.496 784.862 681.798 785.13 681.798 785.498C681.798 785.833 681.496 786.101 681.161 786.101H675.302C674.967 786.101 674.666 785.833 674.666 785.498C674.666 785.13 674.967 784.862 675.302 784.862H676.106C676.976 784.862 677.344 784.427 677.646 783.69L685.883 763.835H687.657L696.329 783.724C696.597 784.326 697.032 784.862 697.97 784.862H698.707ZM681.342 778.4H687.858L684.49 770.803L681.342 778.4ZM708.952 786.503C704.198 786.503 700.749 783.757 700.749 780.509C700.749 778.768 701.988 777.931 703.193 777.931C704.265 777.931 705.336 778.634 705.336 780.007C705.336 781.279 704.164 781.882 704.164 782.719C704.164 784.192 706.441 785.23 708.383 785.23C710.794 785.23 713.439 784.126 713.439 781.246C713.439 776.458 701.318 778.668 701.318 770.431C701.318 765.475 705.638 763.634 710.292 763.634C714.377 763.634 718.194 765.944 718.194 769.058C718.194 770.9 716.955 771.77 715.783 771.77C714.678 771.77 713.607 771.034 713.607 769.661C713.607 768.255 714.745 767.92 714.745 767.083C714.745 765.71 712.468 764.906 710.56 764.906C708.015 764.906 705.772 765.944 705.772 768.623C705.772 773.21 718.729 771.502 718.729 779.572C718.729 783.288 715.08 786.503 708.952 786.503Z" fill="#111111"/>
</g>
</g>
<defs>
<filter id="filter0_d_2486_3" x="0" y="0" width="958" height="960.107" filterUnits="userSpaceOnUse" color-interpolation-filters="sRGB">
<feFlood flood-opacity="0" result="BackgroundImageFix"/>
<feColorMatrix in="SourceAlpha" type="matrix" values="0 0 0 0 0 0 0 0 0 0 0 0 0 0 0 0 0 0 127 0" result="hardAlpha"/>
<feOffset dy="4"/>
<feGaussianBlur stdDeviation="2"/>
<feComposite in2="hardAlpha" operator="out"/>
<feColorMatrix type="matrix" values="0 0 0 0 0 0 0 0 0 0 0 0 0 0 0 0 0 0 0.25 0"/>
<feBlend mode="normal" in2="BackgroundImageFix" result="effect1_dropShadow_2486_3"/>
<feBlend mode="normal" in="SourceGraphic" in2="effect1_dropShadow_2486_3" result="shape"/>
</filter>
<filter id="filter1_d_2486_3" x="4" y="-3.05176e-05" width="958" height="960.107" filterUnits="userSpaceOnUse" color-interpolation-filters="sRGB">
<feFlood flood-opacity="0" result="BackgroundImageFix"/>
<feColorMatrix in="SourceAlpha" type="matrix" values="0 0 0 0 0 0 0 0 0 0 0 0 0 0 0 0 0 0 127 0" result="hardAlpha"/>
<feOffset dx="4" dy="4"/>
<feGaussianBlur stdDeviation="2"/>
<feComposite in2="hardAlpha" operator="out"/>
<feColorMatrix type="matrix" values="0 0 0 0 0 0 0 0 0 0 0 0 0 0 0 0 0 0 0.25 0"/>
<feBlend mode="normal" in2="BackgroundImageFix" result="effect1_dropShadow_2486_3"/>
<feBlend mode="normal" in="SourceGraphic" in2="effect1_dropShadow_2486_3" result="shape"/>
</filter>
<clipPath id="clip0_2486_3">
<rect width="950" height="952.107" fill="white" transform="translate(4)"/>
</clipPath>
</defs>
</svg>
