<svg width="150" height="150" viewBox="0 0 150 150" fill="none" xmlns="http://www.w3.org/2000/svg">
<g filter="url(#filter0_d_2385_42)">
<path d="M6.83008 68.4235L6.97341 66.5635C6.9823 66.4479 7.02008 66.3435 7.08674 66.2501C7.55341 65.6201 7.44674 64.9535 7.71674 64.2601C7.9323 63.6957 8.13008 63.099 8.31008 62.4701C8.51897 61.739 8.71897 61.1412 8.91008 60.6768C9.91674 58.2301 10.9101 56.1268 11.8901 54.3668C11.9612 54.2379 12.0356 54.1046 12.1134 53.9668C13.0645 52.3068 14.0467 50.7546 15.0601 49.3101C15.5467 48.6168 16.429 47.5046 17.7067 45.9735C19.3001 44.0668 21.0734 42.3835 22.8067 40.6468C23.6356 39.8135 24.5712 38.949 25.6134 38.0535C26.6445 37.1668 27.6501 36.349 28.6301 35.6001C31.339 33.5224 34.2023 31.5723 37.2201 29.7501C40.5001 27.7679 43.9901 25.9501 47.6901 24.2968C48.6545 23.8657 49.4567 23.5212 50.0967 23.2635C51.0401 22.8835 51.9501 22.4168 52.8767 22.1068C53.9523 21.7468 55.0267 21.3512 56.1001 20.9201C56.7601 20.6557 57.4467 20.4279 58.1601 20.2368C59.7267 19.8135 61.2801 19.2335 62.8201 18.8568C63.6579 18.6523 64.5245 18.4523 65.4201 18.2568C65.5934 18.2201 65.6767 18.1301 65.8301 18.0435C66.0501 17.9201 66.4867 18.0301 66.8067 17.8935C67.0267 17.7979 67.2723 17.7235 67.5434 17.6701C72.1967 16.7679 75.6967 16.2035 78.0434 15.9768C81.939 15.6012 86.1556 15.4512 90.6934 15.5268C90.7867 15.5268 90.849 15.5712 90.8801 15.6601C90.9223 15.7735 90.9356 15.889 90.9201 16.0068C90.7979 16.8823 90.6756 17.7857 90.5534 18.7168C90.5401 18.82 90.4874 18.9142 90.4062 18.9799C90.325 19.0456 90.2214 19.0779 90.1167 19.0701C88.6056 18.9435 87.0567 18.9446 85.4701 19.0735C83.9534 19.1935 82.4367 19.1401 80.9234 19.2968C76.5923 19.7412 73.749 20.0757 72.3934 20.3001C67.849 21.0512 63.1078 22.1712 58.1701 23.6601C57.8901 23.7446 57.609 23.849 57.3267 23.9735C57.0512 24.0935 56.769 24.1968 56.4801 24.2835C54.2601 24.9568 52.2912 25.6657 50.5734 26.4101C48.3023 27.3924 46.1023 28.3712 43.9734 29.3468C42.8834 29.8468 41.8634 30.4835 40.7901 31.0435C35.8856 33.6057 31.2279 36.6257 26.8167 40.1035C22.1901 43.7523 17.9445 48.1046 14.0801 53.1601C13.949 53.3312 13.8501 53.5223 13.7834 53.7335C13.7001 54.0068 13.5001 54.1035 13.3434 54.3301C11.5523 56.9524 9.98786 59.8923 8.65008 63.1501C8.26786 64.079 7.97008 64.9446 7.75674 65.7468C7.6723 66.0624 7.55674 66.3657 7.41008 66.6568C7.09341 67.2801 7.31674 67.8735 6.83008 68.4235Z" fill="black"/>
<path d="M114.007 33.0902C110.176 31.7102 106.201 30.8002 102.084 30.3602C98.968 30.0269 95.5558 29.9124 91.8469 30.0169C91.0602 30.0369 90.4369 30.3402 89.6635 30.2902C88.7335 30.2302 87.9802 30.4435 87.1002 30.5102C83.4635 30.7969 80.1135 31.5702 76.4502 32.4502C75.7569 32.6169 75.0769 32.8213 74.4102 33.0635C73.5402 33.3769 72.6469 33.5469 71.7735 33.8302C66.8758 35.4235 62.1469 37.3402 57.5869 39.5802C57.581 39.5826 57.5746 39.5835 57.5683 39.5829C57.562 39.5823 57.5561 39.5802 57.551 39.5769C57.546 39.5735 57.542 39.569 57.5395 39.5637C57.5371 39.5585 57.5361 39.5527 57.5369 39.5469L57.8935 36.1969C57.9002 36.1413 57.928 36.1013 57.9769 36.0769C59.8857 35.0969 61.8135 34.2324 63.7602 33.4835C64.4535 33.2169 65.0869 32.8469 65.7902 32.5802C68.9235 31.3824 71.6358 30.4402 73.9269 29.7535C76.1624 29.0824 78.3524 28.5169 80.4969 28.0569C81.5169 27.8391 82.628 27.6491 83.8302 27.4869C83.9013 27.478 83.9635 27.4502 84.0169 27.4035C84.0684 27.3605 84.1337 27.3379 84.2002 27.3402C84.698 27.3558 85.2091 27.2513 85.7335 27.0269C85.8424 26.9789 85.9625 26.9627 86.0802 26.9802C86.6202 27.0647 87.1146 27.0313 87.5635 26.8802C87.9146 26.7624 88.2813 26.7047 88.6635 26.7069C89.148 26.7069 89.6324 26.6647 90.1169 26.5802C90.628 26.4891 91.1769 26.4391 91.7635 26.4302C95.0613 26.3813 97.5669 26.3935 99.2802 26.4669C104.514 26.6847 109.705 27.7047 114.854 29.5269C115.491 29.7513 116.108 30.0035 116.704 30.2835C117.51 30.6635 118.344 30.9169 119.154 31.2969C127.397 35.1769 134.474 41.0435 139.337 48.7369C141.615 52.3369 143.292 56.5558 144.37 61.3935C144.6 62.4335 144.694 63.6735 144.804 64.7502C144.946 66.1569 144.981 68.468 144.91 71.6835C144.897 72.3035 144.828 72.9447 144.704 73.6069C144.588 74.2269 144.528 74.8802 144.524 75.5669C144.524 75.6824 144.502 75.7947 144.46 75.9035C144.385 76.0947 144.346 76.088 144.344 75.8835C144.317 73.4702 144.309 71.0369 144.32 68.5835C144.32 67.9035 143.924 67.3235 144.004 66.5969C144.06 66.0835 143.79 65.6435 143.724 65.1269C143.379 62.5202 142.587 59.8369 141.347 57.0769C138.598 50.9569 134.422 45.6713 128.82 41.2202C125.954 38.9424 122.907 37.0147 119.68 35.4369C118.116 34.6724 116.225 33.8902 114.007 33.0902Z" fill="black"/>
<path d="M68.9818 41.2736L66.8822 41.314C66.5729 41.3199 66.3271 41.5754 66.333 41.8846L66.3408 42.2912C66.3468 42.6004 66.6022 42.8463 66.9115 42.8403L69.0111 42.8C69.3203 42.7941 69.5662 42.5386 69.5602 42.2294L69.5524 41.8228C69.5465 41.5136 69.291 41.2677 68.9818 41.2736Z" fill="black"/>
<path d="M77.7399 48.5533C77.7798 48.6341 77.8418 48.7018 77.9186 48.7484C77.9954 48.7951 78.0837 48.8188 78.1732 48.8167L81.4466 48.71C81.5391 48.7065 81.6296 48.7372 81.701 48.7962C81.7723 48.8552 81.8194 48.9385 81.8332 49.03L81.8532 49.1733C81.8866 49.3867 81.7943 49.4933 81.5766 49.4933L77.7632 49.5C77.6077 49.5 77.5054 49.4278 77.4566 49.2833C77.3432 48.9567 77.1388 48.7022 76.8432 48.52C76.8191 48.505 76.7985 48.485 76.7825 48.4615C76.7666 48.438 76.7558 48.4114 76.7508 48.3835C76.7457 48.3555 76.7466 48.3268 76.7534 48.2993C76.7601 48.2717 76.7725 48.2458 76.7899 48.2233L76.9866 47.9633C77.0604 47.8678 77.1034 47.7527 77.1099 47.6333C77.1899 46.0533 77.8666 45.34 79.2566 44.6C80.5299 43.9222 81.7988 43.2644 83.0632 42.6267C83.1196 42.5984 83.1844 42.592 83.2448 42.6087C83.3052 42.6253 83.357 42.6638 83.3899 42.7167C83.4277 42.7767 83.4366 42.84 83.4166 42.9067C83.3321 43.1778 83.1632 43.3778 82.9099 43.5067C81.5143 44.2222 80.0588 45.0122 78.5432 45.8767C78.4254 45.9433 78.3399 46.0389 78.2866 46.1633C78.051 46.7055 77.8499 47.2811 77.6832 47.89C77.6188 48.1255 77.6377 48.3467 77.7399 48.5533Z" fill="black"/>
<path d="M67.2101 44.1266C67.4368 43.8088 67.829 43.7177 68.3868 43.8533C68.5046 43.8822 68.5968 43.9466 68.6634 44.0466L71.2701 47.9466C71.2909 47.9768 71.3029 48.0121 71.305 48.0486C71.3071 48.0851 71.2991 48.1216 71.2819 48.1539C71.2647 48.1862 71.239 48.2132 71.2075 48.2319C71.176 48.2506 71.1401 48.2603 71.1034 48.2599L64.7668 48.2633C64.7264 48.2634 64.6867 48.2525 64.652 48.2318C64.6173 48.2111 64.5888 48.1814 64.5697 48.1458C64.5505 48.1103 64.5414 48.0701 64.5432 48.0298C64.545 47.9894 64.5578 47.9503 64.5801 47.9166C65.429 46.6499 66.3057 45.3866 67.2101 44.1266Z" fill="black"/>
<path d="M76.3002 49.4935C75.7668 49.4913 75.2402 49.4979 74.7202 49.5135C74.6024 49.5157 74.5068 49.4735 74.4335 49.3868C74.3735 49.3135 74.3302 49.2324 74.3035 49.1435C74.2863 49.088 74.2925 49.0278 74.3206 48.9759C74.3487 48.9241 74.3965 48.8849 74.4535 48.8668C75.0335 48.6824 75.6191 48.6379 76.2102 48.7335C76.3613 48.7579 76.4446 48.8457 76.4602 48.9968C76.4891 49.2724 76.6368 49.4568 76.9035 49.5502C77.0391 49.5968 77.1046 49.6913 77.1002 49.8335C77.0957 49.9824 77.1257 50.1246 77.1902 50.2602C77.2413 50.3646 77.3246 50.4168 77.4402 50.4168L81.5002 50.4002C81.534 50.4001 81.5675 50.407 81.5986 50.4204C81.6296 50.4338 81.6576 50.4535 81.6808 50.4782C81.7039 50.5029 81.7217 50.5321 81.7331 50.564C81.7444 50.5958 81.7491 50.6297 81.7468 50.6635C81.5968 53.2135 81.6702 55.9235 81.2902 58.5468C81.2742 58.651 81.2217 58.7459 81.1422 58.8144C81.0626 58.8829 80.9614 58.9205 80.8568 58.9201L75.8968 58.9368C75.1235 58.939 74.7324 58.5535 74.7235 57.7802C74.7168 57.0313 74.7102 56.2868 74.7035 55.5468C74.6991 54.8557 74.6479 54.1524 74.5502 53.4368C74.4213 52.5057 74.3868 51.5646 74.4468 50.6135C74.4557 50.4757 74.5291 50.4068 74.6668 50.4068H75.7802C76.0735 50.4068 76.2879 50.2768 76.4235 50.0168L76.5135 49.8502C76.6379 49.6146 76.5668 49.4957 76.3002 49.4935Z" fill="black"/>
<path d="M64.4301 50.0633C64.3911 50.0454 64.3562 50.0199 64.3275 49.9884C64.2988 49.9569 64.277 49.92 64.2634 49.88C64.1656 49.5889 64.2201 49.3655 64.4267 49.21C64.5734 49.1011 64.7401 49.0533 64.9267 49.0666C67.1667 49.2289 69.2412 49.2422 71.1501 49.1066C71.2591 49.0988 71.3676 49.1281 71.4578 49.1899C71.548 49.2516 71.6146 49.3421 71.6467 49.4466C71.7245 49.6933 71.6612 49.8833 71.4567 50.0166C70.7812 50.4589 70.0467 50.5411 69.2534 50.2633C68.4201 49.9666 67.3901 50 66.6068 50.25C65.8368 50.5 65.1367 50.4 64.4301 50.0633Z" fill="black"/>
<path d="M67.3768 51.0867C67.7812 50.9423 68.1812 50.9545 68.5768 51.1234C69.4034 51.4789 70.2401 51.5 71.0868 51.1867C71.3668 51.0823 71.5534 51.1711 71.6468 51.4534C71.689 51.58 71.7001 51.71 71.6801 51.8434C71.6423 52.1211 71.4823 52.2589 71.2001 52.2567L64.5868 52.1867C64.2712 52.1845 64.1357 52.0267 64.1801 51.7134L64.2001 51.59C64.2401 51.3167 64.3957 51.2045 64.6668 51.2534C65.6712 51.4334 66.5746 51.3778 67.3768 51.0867Z" fill="black"/>
<path d="M64.38 59.4168C64.1667 58.9324 64.1267 58.4157 64.26 57.8668C64.5689 56.5735 64.6345 55.1435 64.4567 53.5768C64.4518 53.5309 64.457 53.4845 64.4717 53.4408C64.4865 53.3971 64.5105 53.3571 64.5422 53.3235C64.5738 53.29 64.6124 53.2636 64.6551 53.2464C64.6979 53.2291 64.7439 53.2213 64.79 53.2235C66.9456 53.3213 69.0767 53.3013 71.1834 53.1635C71.2183 53.1614 71.2533 53.1676 71.2854 53.1815C71.3175 53.1954 71.3459 53.2167 71.3683 53.2436C71.3907 53.2706 71.4065 53.3024 71.4143 53.3365C71.4221 53.3707 71.4218 53.4062 71.4134 53.4401C71.1178 54.5713 71.0734 55.6501 71.28 56.6768C71.4467 57.5068 71.42 58.3168 71.4267 59.1701C71.43 59.9535 70.8134 60.4135 70.12 60.5635C69.9756 60.5946 69.8411 60.5713 69.7167 60.4935C69.2856 60.2157 68.8411 59.9768 68.3834 59.7768C67.56 59.4168 66.6934 60.1235 66.0034 60.5201C65.8634 60.6001 65.7211 60.6035 65.5767 60.5301L64.67 60.0601C64.5634 60.0068 64.5023 59.9201 64.4867 59.8001C64.4667 59.6668 64.4311 59.539 64.38 59.4168Z" fill="black"/>
<path d="M80.8804 59.7609L75.4139 59.799C75.1985 59.8005 75.0251 59.9764 75.0266 60.1917L75.0268 60.2184C75.0283 60.4338 75.2042 60.6072 75.4195 60.6057L80.8861 60.5675C81.1015 60.566 81.2749 60.3902 81.2733 60.1748L81.2732 60.1481C81.2717 59.9328 81.0958 59.7594 80.8804 59.7609Z" fill="black"/>
<path d="M7.06669 82.6633C7.14225 82.9478 7.22114 83.2222 7.30336 83.4867C8.76114 88.0867 10.5667 91.7411 12.72 94.45C15.2445 97.6256 17.89 100.256 20.6567 102.34C23.4656 104.458 26.0311 106.083 28.3534 107.217C29.1845 107.621 30.0045 108.022 30.8134 108.42C32.6245 109.309 34.5156 110.124 36.4867 110.867C36.7734 110.973 37.0478 111.074 37.31 111.17C40.4878 112.334 43.58 113.313 46.5867 114.107C53.8267 116.018 61.2534 117.429 68.8667 118.34C69.5334 118.42 70.2034 118.471 70.8767 118.493C71.8 118.523 72.6667 118.837 73.58 118.807C75.2734 118.747 76.8734 119.093 78.5434 119.1C80.5278 119.109 82.4834 119.106 84.41 119.09C85.7434 119.08 87.0634 118.797 88.4267 118.803C88.9445 118.806 89.4722 118.773 90.01 118.707C92.7256 118.364 95.4478 117.984 98.1767 117.567C98.3478 117.54 98.5167 117.491 98.6834 117.42C99.1467 117.223 99.5734 117.413 100.027 117.113C100.131 117.044 100.254 117.008 100.38 117.01C100.893 117.02 101.36 116.77 101.877 116.66C102.714 116.482 103.478 116.292 104.167 116.09C105.549 115.688 106.937 115.263 108.33 114.817C109.059 114.583 109.771 114.317 110.467 114.017C111.198 113.699 111.94 113.389 112.693 113.087C115.656 111.891 118.62 110.363 121.587 108.503C127.071 105.063 131.72 100.909 135.533 96.04C137.06 94.0933 138.491 91.8589 139.827 89.3367C141.182 86.7767 142.331 84.0244 143.273 81.08C143.289 81.0333 143.302 81.0311 143.313 81.0733C143.318 81.0844 143.319 81.0956 143.317 81.1067C143.117 82.1067 142.973 83.0867 142.667 84.0767C142.387 84.9811 142.107 85.8567 141.827 86.7033C141.569 87.4722 141.224 88.3133 140.793 89.2267C140.418 90.0244 140.054 90.8289 139.703 91.64C139.541 92.0178 139.347 92.3756 139.12 92.7133C138.797 93.1967 138.623 93.7567 138.32 94.26C136.642 97.0467 135.063 99.3078 133.583 101.043C131.193 103.847 128.297 106.68 125.383 108.973C122.146 111.527 118.504 113.774 114.46 115.717C111.778 117.006 109.204 118.046 106.74 118.837C105.758 119.152 104.786 119.459 103.823 119.757C102.812 120.07 101.823 120.33 100.857 120.537C96.63 121.44 92.39 122.297 88.1734 122.423C87.53 122.443 86.96 122.703 86.3334 122.683C85.0023 122.648 83.7767 122.663 82.6567 122.73C81.3167 122.812 80.1111 122.822 79.04 122.76C77.04 122.643 74.8767 122.873 72.8967 122.497C71.9534 122.32 70.93 122.413 69.9234 122.313C60.9656 121.42 52.2167 119.726 43.6767 117.23C39.5834 116.034 36.83 115.13 35.4167 114.517C33.9656 113.886 32.5578 113.28 31.1934 112.7C29.9045 112.151 28.1167 111.226 25.83 109.923C21.3434 107.368 17.4534 104.283 14.16 100.67C12.0089 98.3122 10.1778 95.5967 8.66669 92.5233C8.38892 91.9589 7.92003 90.7589 7.26003 88.9233C6.91336 87.9667 6.78003 86.8933 6.47003 85.88C6.37447 85.5667 6.31669 85.25 6.29669 84.93C6.27891 84.65 6.1978 84.3933 6.05336 84.16C5.993 84.0565 5.96949 83.9366 5.98669 83.82C6.06225 83.2933 6.03336 82.8 5.90003 82.34C5.76669 81.8844 5.69891 81.4522 5.69669 81.0433C5.6878 79.1278 5.69669 77.1989 5.72336 75.2567C5.73669 74.2067 6.12336 73.3667 6.01003 72.2833C5.99669 72.1589 6.03447 72.0556 6.12336 71.9733C6.13776 71.9591 6.156 71.9496 6.17583 71.946C6.19567 71.9424 6.21624 71.9448 6.23501 71.9529C6.25378 71.961 6.26993 71.9746 6.28148 71.9918C6.29303 72.0091 6.29948 72.0293 6.30003 72.05C6.31003 73.75 6.15669 75.5367 6.44003 77.2267C6.51336 77.6733 6.55114 78.1256 6.55336 78.5833C6.55669 79.6933 6.80336 80.8033 6.92669 81.9C6.95336 82.1556 7.00003 82.41 7.06669 82.6633Z" fill="black"/>
<path d="M60.2335 95.7033L62.0769 95.72C62.2458 95.72 62.348 95.8033 62.3835 95.97L62.4035 96.0733C62.4085 96.0954 62.4083 96.1184 62.4031 96.1405C62.3979 96.1626 62.3877 96.1833 62.3734 96.2012C62.3591 96.219 62.3409 96.2335 62.3201 96.2437C62.2994 96.2539 62.2767 96.2594 62.2535 96.26L59.7235 96.3067C59.6678 96.3076 59.6125 96.2973 59.5608 96.2766C59.509 96.2559 59.4619 96.2251 59.4222 96.186C59.3825 96.1469 59.351 96.1003 59.3295 96.0489C59.308 95.9976 59.2969 95.9424 59.2969 95.8867L59.3002 91.81C59.3007 91.6979 59.3244 91.587 59.3699 91.4846C59.4154 91.3822 59.4817 91.2904 59.5645 91.2151C59.6473 91.1398 59.7448 91.0827 59.8509 91.0474C59.9569 91.0121 60.069 90.9993 60.1802 91.01C60.6158 91.05 61.0424 91.06 61.4602 91.04C61.718 91.0289 61.9569 91.0989 62.1769 91.25C62.248 91.2989 62.2935 91.3656 62.3135 91.45C62.3647 91.6656 62.2791 91.7711 62.0569 91.7667L60.2902 91.7333C60.2299 91.7324 60.1711 91.7512 60.1229 91.7867C60.0746 91.8223 60.0397 91.8727 60.0235 91.93C59.8947 92.37 59.8869 92.7733 60.0002 93.14C60.0342 93.2476 60.1079 93.3382 60.2064 93.3934C60.3049 93.4485 60.4207 93.464 60.5302 93.4367C61.0947 93.2989 61.5813 93.3411 61.9902 93.5633C62.2858 93.7256 62.2669 93.8289 61.9335 93.8733C61.4247 93.9444 60.8969 93.9467 60.3502 93.88C60.1302 93.8533 60.0102 93.95 59.9902 94.17L59.8835 95.3167C59.8613 95.5722 59.978 95.7011 60.2335 95.7033Z" fill="black"/>
<path d="M34.1539 96.3149C33.5453 96.3383 32.951 96.0853 32.5017 95.6114C32.0525 95.1376 31.7852 94.4818 31.7585 93.7884C31.7454 93.445 31.7917 93.1027 31.8948 92.781C31.9979 92.4594 32.1559 92.1646 32.3597 91.9136C32.5635 91.6627 32.8091 91.4603 33.0825 91.3182C33.3559 91.1761 33.6517 91.097 33.9531 91.0855C34.5617 91.0621 35.156 91.3152 35.6053 91.789C36.0545 92.2628 36.3218 92.9186 36.3485 93.612C36.3617 93.9554 36.3154 94.2977 36.2122 94.6194C36.1091 94.941 35.9511 95.2358 35.7473 95.4868C35.5435 95.7377 35.2979 95.9401 35.0245 96.0822C34.7512 96.2243 34.4553 96.3034 34.1539 96.3149ZM34.0193 95.7502C34.2403 95.7517 34.4596 95.7005 34.6645 95.5994C34.8695 95.4983 35.0561 95.3493 35.2137 95.161C35.3713 94.9727 35.4969 94.7486 35.5832 94.5017C35.6696 94.2548 35.7149 93.9899 35.7168 93.722C35.7187 93.4541 35.677 93.1885 35.5941 92.9404C35.5113 92.6923 35.3888 92.4666 35.2339 92.276C35.0789 92.0855 34.8944 91.934 34.6908 91.83C34.4873 91.7261 34.2688 91.6718 34.0477 91.6702C33.8267 91.6687 33.6074 91.7199 33.4025 91.821C33.1975 91.9221 33.0109 92.0711 32.8533 92.2594C32.6957 92.4478 32.5701 92.6718 32.4838 92.9187C32.3975 93.1656 32.3521 93.4305 32.3502 93.6984C32.3483 93.9663 32.39 94.2319 32.4729 94.48C32.5558 94.7281 32.6782 94.9538 32.8332 95.1444C32.9882 95.3349 33.1727 95.4865 33.3762 95.5904C33.5797 95.6943 33.7982 95.7486 34.0193 95.7502Z" fill="black"/>
<path d="M71.8334 91.2969C72.3468 91.528 72.7112 91.9091 72.9268 92.4402C72.9351 92.4604 72.939 92.4822 72.9381 92.5041C72.9373 92.526 72.9318 92.5474 72.9221 92.567C72.9123 92.5866 72.8984 92.6039 72.8814 92.6176C72.8644 92.6314 72.8446 92.6414 72.8234 92.6469L72.7234 92.6735C72.5679 92.7157 72.4568 92.6635 72.3901 92.5169C71.9234 91.5035 70.3301 91.4369 69.7168 92.4069C69.2323 93.1713 69.1845 93.9702 69.5734 94.8035C70.0734 95.8769 71.7301 96.1302 72.3134 94.9435C72.4045 94.7569 72.5434 94.7102 72.7301 94.8035L72.8368 94.8535C72.8602 94.8655 72.8809 94.8821 72.8977 94.9024C72.9144 94.9226 72.9268 94.946 72.934 94.971C72.9412 94.9961 72.9431 95.0223 72.9395 95.048C72.936 95.0737 72.9271 95.0983 72.9134 95.1202C71.7134 97.0935 69.2134 96.5135 68.7434 94.3502C68.5256 93.3413 68.7645 92.4713 69.4601 91.7402C69.8156 91.3669 70.2179 91.158 70.6668 91.1135C71.0756 91.0713 71.4645 91.1324 71.8334 91.2969Z" fill="black"/>
<path d="M76.1535 96.0534C76.1602 96.0845 76.1646 96.1179 76.1669 96.1534C76.1713 96.2201 76.1402 96.2534 76.0735 96.2534C75.9335 96.2579 75.8102 96.2245 75.7035 96.1534C75.6779 96.1369 75.6559 96.1155 75.6388 96.0903C75.6217 96.0651 75.6098 96.0367 75.6039 96.0069C75.598 95.977 75.5982 95.9462 75.6044 95.9164C75.6106 95.8866 75.6228 95.8584 75.6402 95.8334L75.7802 95.6267C75.838 95.5423 75.8746 95.449 75.8902 95.3467C75.9613 94.8823 76.1369 94.4523 76.4169 94.0567C76.4791 93.9701 76.5002 93.8745 76.4802 93.7701C76.4558 93.6256 76.4902 93.4979 76.5835 93.3867C76.6769 93.2779 76.748 93.1567 76.7969 93.0234C76.9902 92.5056 77.1902 91.9612 77.3969 91.3901C77.4858 91.1434 77.6435 91.0867 77.8702 91.2201C78.0546 91.3312 78.1802 91.489 78.2469 91.6934C78.7202 93.129 79.2569 94.5623 79.8569 95.9934C79.8675 96.0187 79.8717 96.0463 79.8688 96.0736C79.866 96.101 79.8563 96.1271 79.8407 96.1497C79.8251 96.1723 79.804 96.1906 79.7795 96.2029C79.7549 96.2152 79.7277 96.2211 79.7002 96.2201L79.5869 96.2167C79.4335 96.2101 79.3224 96.139 79.2535 96.0034L78.7602 95.0167C78.7261 94.9478 78.6733 94.8897 78.608 94.849C78.5426 94.8084 78.4672 94.7868 78.3902 94.7867H76.9435C76.8885 94.7867 76.8341 94.7977 76.7833 94.819C76.7325 94.8403 76.6865 94.8716 76.6477 94.9109C76.609 94.9503 76.5784 94.997 76.5576 95.0483C76.5369 95.0997 76.5264 95.1546 76.5269 95.2101C76.5291 95.4567 76.4335 95.6534 76.2402 95.8001C76.2019 95.8286 76.1731 95.8681 76.1576 95.9133C76.1421 95.9585 76.1407 96.0074 76.1535 96.0534ZM77.0102 93.9234C77.0001 93.9547 76.9977 93.9879 77.003 94.0203C77.0083 94.0527 77.0213 94.0834 77.0408 94.1098C77.0604 94.1362 77.086 94.1575 77.1154 94.1721C77.1449 94.1866 77.1774 94.1939 77.2102 94.1934L78.2469 94.1834C78.2799 94.1832 78.3125 94.1751 78.3418 94.1598C78.371 94.1444 78.3962 94.1222 78.4152 94.0951C78.4341 94.068 78.4463 94.0368 78.4506 94.004C78.455 93.9712 78.4514 93.9379 78.4402 93.9067L77.9035 92.4134C77.889 92.3731 77.8623 92.3384 77.8272 92.3139C77.7921 92.2894 77.7502 92.2765 77.7074 92.2768C77.6645 92.2772 77.6229 92.2909 77.5882 92.3159C77.5535 92.341 77.5274 92.3762 77.5135 92.4167L77.0102 93.9234Z" fill="black"/>
<path d="M27.6366 95.1735C28.2733 95.9735 29.7833 95.9101 30.2099 94.8701C30.2344 94.8079 30.2799 94.7824 30.3466 94.7935L30.7166 94.8635C30.7633 94.8724 30.7755 94.8979 30.7533 94.9402C30.3199 95.789 29.7444 96.2468 29.0266 96.3135C28.3977 96.3713 27.8477 96.169 27.3766 95.7068C26.3188 94.6646 26.1722 93.469 26.9366 92.1201C27.6933 90.7801 30.3433 90.7302 30.6766 92.4368C30.7011 92.5546 30.6544 92.6268 30.5366 92.6535C30.3744 92.6913 30.2555 92.6357 30.1799 92.4868C29.9844 92.109 29.6799 91.869 29.2666 91.7668C28.2422 91.5157 27.6044 91.8613 27.3533 92.8035C27.1733 93.4902 27.1733 94.5868 27.6366 95.1735Z" fill="black"/>
<path d="M38.01 92.6503L38.0666 95.5837C38.0688 95.7514 38.0108 95.9136 37.9033 96.0403C37.8389 96.1159 37.7633 96.1737 37.6766 96.2137C37.6536 96.2251 37.628 96.2304 37.6023 96.2291C37.5766 96.2278 37.5517 96.2199 37.5299 96.2062C37.5082 96.1925 37.4903 96.1734 37.4781 96.1507C37.4658 96.1281 37.4596 96.1027 37.46 96.077L37.51 91.6537C37.5166 91.0626 37.7078 90.9937 38.0833 91.447C38.81 92.3248 39.4633 93.2281 40.0433 94.157C40.1811 94.377 40.3689 94.5681 40.6066 94.7303C40.624 94.7417 40.6442 94.7484 40.6649 94.7497C40.6857 94.751 40.7063 94.7468 40.7247 94.7377C40.7431 94.7285 40.7585 94.7146 40.7694 94.6975C40.7803 94.6804 40.7863 94.6606 40.7866 94.6403L40.8966 91.4537C40.9011 91.3337 40.9633 91.2681 41.0833 91.257L41.2266 91.247C41.3355 91.2359 41.39 91.2848 41.39 91.3937L41.4033 95.5103C41.4078 96.5259 41.1311 96.6092 40.5733 95.7603C39.7866 94.5692 38.9978 93.5081 38.2066 92.577C38.0711 92.417 38.0055 92.4415 38.01 92.6503Z" fill="black"/>
<path d="M44.7801 94.9766C44.9179 94.8921 44.999 94.721 45.0235 94.4632C45.0413 94.2699 45.0857 94.091 45.1568 93.9266C45.5279 93.1021 45.8168 92.2421 46.0235 91.3466C46.0308 91.3134 46.0498 91.2842 46.0769 91.2644C46.104 91.2447 46.1373 91.236 46.1701 91.2399L46.4835 91.2666C46.5657 91.2732 46.5957 91.3166 46.5735 91.3966C46.169 92.9343 45.6157 94.4388 44.9135 95.9099C44.8557 96.0321 44.7701 96.1221 44.6568 96.1799C44.4746 96.2732 44.339 96.2277 44.2501 96.0432C43.5435 94.5655 42.9701 93.0488 42.5301 91.4932C42.5149 91.4415 42.5199 91.3859 42.544 91.3377C42.5681 91.2894 42.6096 91.2521 42.6601 91.2332L42.7568 91.1966C42.7852 91.1863 42.8164 91.1872 42.8442 91.1989C42.872 91.2106 42.8944 91.2324 42.9068 91.2599C43.4246 92.3732 43.8624 93.541 44.2201 94.7632C44.3135 95.0788 44.5001 95.1499 44.7801 94.9766Z" fill="black"/>
<path d="M48.5568 95.7002L50.3234 95.7202C50.3918 95.7209 50.4585 95.7427 50.5145 95.7826C50.5704 95.8225 50.6131 95.8786 50.6368 95.9435L50.6834 96.0602C50.7079 96.1268 50.6845 96.1657 50.6134 96.1768C49.7779 96.3146 48.9212 96.3479 48.0434 96.2768C47.8879 96.2641 47.743 96.1929 47.6384 96.0777C47.5337 95.9625 47.4771 95.812 47.4801 95.6568L47.5334 91.5868C47.5357 91.3379 47.6623 91.2146 47.9134 91.2168L50.4201 91.2468C50.4422 91.2466 50.464 91.2512 50.4842 91.2603C50.5044 91.2693 50.5224 91.2826 50.5372 91.2993C50.552 91.3159 50.5632 91.3356 50.57 91.357C50.5768 91.3784 50.5791 91.4011 50.5768 91.4235L50.5634 91.5235C50.5456 91.6857 50.4557 91.7646 50.2934 91.7602L48.5401 91.7168C48.3712 91.7124 48.2845 91.7935 48.2801 91.9602L48.2534 93.0568C48.2516 93.1246 48.2722 93.191 48.3121 93.2454C48.352 93.2997 48.4088 93.339 48.4734 93.3568C49.0734 93.5268 49.8534 93.1935 50.3568 93.5502C50.3906 93.5743 50.4159 93.6086 50.429 93.6481C50.4421 93.6875 50.4424 93.7301 50.4298 93.7697C50.4172 93.8093 50.3924 93.844 50.3589 93.8686C50.3254 93.8932 50.285 93.9066 50.2434 93.9068L48.7434 93.9135C48.459 93.9135 48.3112 94.0557 48.3001 94.3402L48.2568 95.3868C48.2501 95.5935 48.3501 95.6979 48.5568 95.7002Z" fill="black"/>
<path d="M52.8402 92.7367C52.609 92.3989 52.4946 92.4345 52.4968 92.8434L52.5002 96.0834C52.5002 96.1923 52.4446 96.2456 52.3335 96.2434L52.0735 96.24C51.9646 96.2378 51.9102 96.1823 51.9102 96.0734L51.9335 91.44C51.9335 91.3378 51.9824 91.2689 52.0802 91.2334C52.3624 91.1356 52.5813 91.2067 52.7368 91.4467C53.1257 92.0511 53.539 92.6667 53.9768 93.2934C54.3702 93.8578 54.7713 94.3656 55.1802 94.8167C55.2043 94.8434 55.2359 94.8622 55.2709 94.8707C55.3059 94.8792 55.3426 94.8771 55.3763 94.8645C55.4101 94.852 55.4393 94.8296 55.4602 94.8002C55.481 94.7709 55.4926 94.736 55.4935 94.7L55.5102 91.4034C55.5124 91.29 55.569 91.2345 55.6802 91.2367L55.9168 91.2467C56.0257 91.2511 56.0802 91.3078 56.0802 91.4167L56.0768 95.57C56.0768 96.4345 55.7968 96.5378 55.2368 95.88C54.819 95.3889 54.4302 94.8511 54.0702 94.2667C53.7168 93.69 53.2102 93.2867 52.8402 92.7367Z" fill="black"/>
<path d="M57.7398 91.2236H57.4798C57.3915 91.2236 57.3198 91.2953 57.3198 91.3836V96.077C57.3198 96.1653 57.3915 96.237 57.4798 96.237H57.7398C57.8282 96.237 57.8998 96.1653 57.8998 96.077V91.3836C57.8998 91.2953 57.8282 91.2236 57.7398 91.2236Z" fill="black"/>
<path d="M66.5766 94.6034C66.8055 94.8901 66.921 94.849 66.9232 94.4801L66.9399 91.5534C66.9421 91.3201 67.0588 91.2167 67.2899 91.2434C67.3255 91.2479 67.3577 91.2601 67.3866 91.2801C67.5777 91.4267 67.6655 91.6034 67.6499 91.8101C67.5432 93.2145 67.4955 94.4723 67.5066 95.5834C67.5155 96.4923 67.2577 96.5756 66.7332 95.8334C66.3444 95.2845 65.951 94.7523 65.5532 94.2367C65.1466 93.7101 64.9732 93.1267 64.3599 92.7701C64.327 92.751 64.2894 92.7416 64.2514 92.7428C64.2133 92.7441 64.1764 92.756 64.1448 92.7772C64.1133 92.7983 64.0882 92.828 64.0726 92.8627C64.057 92.8973 64.0515 92.9357 64.0566 92.9734C64.1944 94.0156 64.211 94.9934 64.1066 95.9067C64.0989 95.9773 64.07 96.0439 64.0237 96.098C63.9773 96.1521 63.9156 96.1912 63.8466 96.2101L63.7332 96.2434C63.7158 96.2475 63.6976 96.2477 63.6802 96.2439C63.6627 96.24 63.6464 96.2323 63.6325 96.2214C63.6187 96.2104 63.6076 96.1965 63.6002 96.1806C63.5928 96.1648 63.5893 96.1475 63.5899 96.1301L63.6099 92.0001C63.6166 90.9801 63.9032 90.8945 64.4699 91.7434C65.0944 92.679 65.7966 93.6323 66.5766 94.6034Z" fill="black"/>
<path d="M74.4035 91.2134L74.3902 91.2134C74.2429 91.2142 74.1242 91.3342 74.1249 91.4815L74.1482 95.9348C74.149 96.0821 74.269 96.2008 74.4163 96.2L74.4296 96.2C74.5769 96.1992 74.6957 96.0792 74.6949 95.9319L74.6716 91.4786C74.6708 91.3314 74.5508 91.2126 74.4035 91.2134Z" fill="black"/>
<path d="M82.8268 91.5734C82.8268 91.5184 82.8377 91.464 82.8588 91.4132C82.88 91.3624 82.911 91.3163 82.95 91.2776C82.9891 91.2389 83.0354 91.2082 83.0863 91.1875C83.1373 91.1668 83.1918 91.1563 83.2468 91.1568L84.6568 91.1634C85.2629 91.1659 85.8431 91.4337 86.27 91.9081C86.6968 92.3825 86.9355 93.0246 86.9335 93.6934V93.7601C86.9325 94.0917 86.8723 94.4198 86.7563 94.7258C86.6403 95.0318 86.4708 95.3096 86.2575 95.5433C86.0442 95.7771 85.7913 95.9621 85.5132 96.088C85.2351 96.2138 84.9373 96.278 84.6368 96.2767L83.2268 96.2701C83.1169 96.2692 83.0118 96.2249 82.9343 96.1469C82.8569 96.0688 82.8135 95.9633 82.8135 95.8534L82.8268 91.5734ZM83.4001 92.2467L83.3935 95.1534C83.393 95.2264 83.407 95.2987 83.4346 95.3662C83.4622 95.4337 83.5029 95.4951 83.5544 95.5468C83.6058 95.5986 83.6669 95.6396 83.7343 95.6676C83.8016 95.6957 83.8739 95.7101 83.9468 95.7101H84.5735C85.042 95.7109 85.4917 95.5168 85.8236 95.1705C86.1556 94.8242 86.3426 94.354 86.3435 93.8634V93.5501C86.3439 93.3071 86.2987 93.0665 86.2103 92.8418C86.1219 92.6172 85.9922 92.413 85.8284 92.2409C85.6647 92.0688 85.4702 91.9322 85.256 91.8388C85.0418 91.7454 84.8122 91.6972 84.5801 91.6968H83.9535C83.8073 91.6967 83.6671 91.7546 83.5634 91.8576C83.4597 91.9607 83.401 92.1006 83.4001 92.2467Z" fill="black"/>
<path d="M89.0702 95.6903L90.9902 95.737C91.0324 95.7378 91.0726 95.7549 91.1024 95.7848C91.1323 95.8146 91.1494 95.8548 91.1503 95.897V96.0236C91.1525 96.1947 91.068 96.2803 90.8969 96.2803L88.4269 96.2903C88.2847 96.2903 88.2091 96.2181 88.2003 96.0736C88.1203 94.7436 88.3169 93.347 88.1102 92.0036C88.0191 91.4058 88.2747 91.1303 88.8769 91.177C89.5703 91.2303 90.2458 91.2247 90.9036 91.1603C90.9276 91.1582 90.9518 91.1614 90.9744 91.1698C90.997 91.1781 91.0175 91.1914 91.0344 91.2086C91.0513 91.2258 91.0642 91.2465 91.0721 91.2693C91.08 91.2921 91.0828 91.3163 91.0802 91.3403L91.0669 91.4436C91.0592 91.5129 91.0284 91.5776 90.9794 91.6272C90.9304 91.6768 90.8661 91.7084 90.7969 91.717C90.2703 91.7836 89.7158 91.7736 89.1336 91.687C88.9891 91.6647 88.8991 91.7258 88.8636 91.8703C88.7747 92.2303 88.7547 92.6247 88.8036 93.0536C88.8128 93.1328 88.8403 93.2088 88.884 93.2755C88.9277 93.3421 88.9863 93.3978 89.0552 93.4379C89.1241 93.478 89.2014 93.5015 89.281 93.5065C89.3605 93.5116 89.4402 93.498 89.5136 93.467C89.8336 93.3292 90.1902 93.2881 90.5836 93.3436C90.7636 93.3681 90.8658 93.4703 90.8903 93.6503L90.9003 93.7503C90.9031 93.7712 90.9015 93.7924 90.8954 93.8126C90.8893 93.8327 90.879 93.8514 90.8651 93.8672C90.8511 93.883 90.834 93.8956 90.8147 93.9042C90.7955 93.9128 90.7747 93.9172 90.7536 93.917L89.2336 93.9203C88.9491 93.9225 88.8058 94.0658 88.8036 94.3503L88.7902 95.4003C88.788 95.5892 88.8814 95.6858 89.0702 95.6903Z" fill="black"/>
<path d="M97.4536 93.3335C97.4269 93.7735 97.5502 94.1402 97.8236 94.4335C97.9641 94.5826 98.0418 94.78 98.0406 94.9849C98.0393 95.1897 97.9592 95.3862 97.8169 95.5335C96.9102 96.4802 95.7736 96.3069 94.6102 96.2835C94.5781 96.2827 94.5476 96.2693 94.5252 96.2463C94.5028 96.2232 94.4902 96.1924 94.4902 96.1602L94.4702 91.5002C94.4698 91.4607 94.4772 91.4215 94.4922 91.3849C94.5071 91.3483 94.5292 91.315 94.5571 91.2871C94.5851 91.2591 94.6183 91.2371 94.6549 91.2221C94.6915 91.2072 94.7307 91.1998 94.7702 91.2002C95.308 91.2091 95.8325 91.2102 96.3436 91.2035C96.9169 91.1991 97.3669 91.5124 97.6936 92.1435C97.8869 92.5169 97.8502 92.8235 97.5836 93.0635C97.5066 93.1319 97.4598 93.229 97.4536 93.3335ZM95.0502 92.1302L95.1002 93.1502C95.1054 93.2602 95.1539 93.3636 95.2351 93.4379C95.3163 93.5122 95.4236 93.5514 95.5336 93.5469L95.7669 93.5369C96.1686 93.518 96.5498 93.4133 96.8267 93.2458C97.1036 93.0782 97.2536 92.8616 97.2436 92.6435L97.2336 92.4369C97.229 92.3287 97.1852 92.2233 97.1047 92.1269C97.0241 92.0304 96.9083 91.9448 96.7641 91.8748C96.6198 91.8048 96.4498 91.7519 96.2638 91.7191C96.0778 91.6863 95.8795 91.6742 95.6802 91.6835L95.4469 91.6969C95.337 91.7021 95.2335 91.7506 95.1592 91.8317C95.0849 91.9129 95.0457 92.0202 95.0502 92.1302ZM95.4202 95.7069L96.9069 95.6935C96.9599 95.6931 97.0122 95.6822 97.061 95.6616C97.1098 95.6409 97.154 95.6108 97.1911 95.5731C97.2283 95.5353 97.2576 95.4906 97.2775 95.4415C97.2973 95.3924 97.3073 95.3398 97.3069 95.2869L97.3036 94.7802C97.3014 94.5445 97.2248 94.3191 97.0904 94.1535C96.956 93.9879 96.775 93.8956 96.5869 93.8969L95.7136 93.9035C95.6202 93.9042 95.5279 93.9279 95.442 93.9733C95.3561 94.0187 95.2783 94.085 95.2129 94.1683C95.1476 94.2516 95.0961 94.3503 95.0613 94.4587C95.0265 94.5671 95.0092 94.6832 95.0102 94.8002L95.0136 95.3069C95.014 95.3599 95.0249 95.4122 95.0455 95.461C95.0662 95.5097 95.0963 95.554 95.1341 95.5911C95.1718 95.6282 95.2165 95.6576 95.2656 95.6775C95.3147 95.6973 95.3673 95.7073 95.4202 95.7069Z" fill="black"/>
<path d="M99.61 95.0004C99.5744 95.4604 99.7878 95.6959 100.25 95.707L101.763 95.7404C101.892 95.7426 101.974 95.8059 102.01 95.9304L102.06 96.1004C102.096 96.227 102.047 96.2904 101.913 96.2904L99.6467 96.297C99.5615 96.297 99.4771 96.2802 99.3984 96.2475C99.3198 96.2148 99.2483 96.1669 99.1882 96.1065C99.1281 96.0461 99.0806 95.9744 99.0483 95.8955C99.016 95.8167 98.9996 95.7322 99 95.647L99.0067 91.7037C99.0076 91.5717 99.0603 91.4454 99.1533 91.3523C99.2464 91.2593 99.3722 91.207 99.5033 91.207H101.92C102.04 91.207 102.08 91.2648 102.04 91.3804L101.973 91.577C101.933 91.6881 101.856 91.7437 101.74 91.7437L100.257 91.7537C99.8744 91.7559 99.6689 91.947 99.64 92.327L99.6067 92.7537C99.5711 93.2181 99.7867 93.4459 100.253 93.437L101.497 93.417C101.572 93.4152 101.647 93.4352 101.712 93.4748C101.777 93.5144 101.83 93.5718 101.863 93.6404L101.92 93.7604C101.973 93.8693 101.94 93.9226 101.82 93.9204L100.357 93.9037C99.9122 93.897 99.6733 94.1159 99.64 94.5604L99.61 95.0004Z" fill="black"/>
<path d="M106.18 93.7399L106.623 94.2132C106.683 94.2799 106.724 94.3577 106.747 94.4466C106.91 95.1032 106.817 95.8299 106.047 96.0632C105.135 96.3366 104.259 96.3788 103.417 96.1899C103.277 96.1588 103.207 96.071 103.207 95.9266L103.213 91.4232C103.213 91.2788 103.285 91.2077 103.43 91.2099C104.273 91.2299 105.747 90.9266 106.297 91.7366C106.683 92.3054 106.64 92.9043 106.167 93.5332C106.113 93.6066 106.118 93.6754 106.18 93.7399ZM104.01 91.8532C103.694 92.4888 103.767 93.0421 104.227 93.5132C104.307 93.5932 104.402 93.6188 104.513 93.5899L105.693 93.2699C105.822 93.2343 105.901 93.1521 105.93 93.0232C106.008 92.661 105.979 92.3354 105.843 92.0466C105.813 91.9839 105.769 91.9295 105.713 91.8883C105.657 91.847 105.592 91.8201 105.523 91.8099L104.393 91.6499C104.218 91.6254 104.09 91.6932 104.01 91.8532ZM103.87 94.2566L103.82 95.2699C103.814 95.3781 103.852 95.4841 103.924 95.5647C103.997 95.6452 104.098 95.6939 104.207 95.6999L105.087 95.7466C105.38 95.7616 105.666 95.6826 105.883 95.527C106.099 95.3714 106.227 95.1519 106.24 94.9166L106.243 94.8632C106.249 94.7464 106.227 94.6293 106.176 94.5185C106.126 94.4077 106.05 94.3054 105.951 94.2175C105.852 94.1296 105.733 94.0577 105.601 94.0061C105.469 93.9545 105.326 93.924 105.18 93.9166L104.303 93.8699C104.249 93.8667 104.195 93.8742 104.144 93.892C104.093 93.9097 104.047 93.9373 104.006 93.9733C103.966 94.0092 103.933 94.0527 103.91 94.1013C103.886 94.1499 103.873 94.2027 103.87 94.2566Z" fill="black"/>
<path d="M108.268 91.1899L108.248 91.19C108.102 91.1905 107.985 91.3088 107.985 91.4542L108.001 95.9609C108.002 96.1063 108.12 96.2238 108.265 96.2233L108.285 96.2232C108.431 96.2227 108.548 96.1044 108.548 95.959L108.532 91.4523C108.531 91.3069 108.413 91.1894 108.268 91.1899Z" fill="black"/>
<path d="M109.824 91.6368C109.824 91.5764 109.835 91.5165 109.859 91.4607C109.882 91.4049 109.916 91.3542 109.958 91.3115C110.001 91.2688 110.052 91.2349 110.108 91.2118C110.163 91.1887 110.223 91.1768 110.284 91.1768L111.607 91.1801C111.916 91.1805 112.223 91.2457 112.509 91.3721C112.794 91.4984 113.054 91.6834 113.272 91.9165C113.491 92.1496 113.664 92.4262 113.782 92.7305C113.9 93.0348 113.961 93.3609 113.96 93.6901V93.7568C113.959 94.4215 113.71 95.0587 113.268 95.5281C112.825 95.9976 112.225 96.2609 111.6 96.2601L110.277 96.2568C110.155 96.2568 110.038 96.2083 109.952 96.122C109.865 96.0358 109.817 95.9188 109.817 95.7968L109.824 91.6368ZM110.407 92.1868L110.394 95.1601C110.393 95.2389 110.408 95.317 110.438 95.39C110.468 95.4629 110.512 95.5293 110.567 95.5853C110.622 95.6414 110.688 95.6859 110.761 95.7165C110.833 95.747 110.911 95.763 110.99 95.7634H111.344C111.603 95.7648 111.86 95.7171 112.1 95.623C112.34 95.5289 112.558 95.3903 112.742 95.2151C112.926 95.0399 113.073 94.8316 113.173 94.6019C113.273 94.3723 113.326 94.1259 113.327 93.8768V93.4968C113.329 92.9938 113.124 92.5104 112.756 92.1528C112.388 91.7953 111.887 91.5928 111.364 91.5901H111.01C110.931 91.5896 110.853 91.6047 110.78 91.6345C110.707 91.6642 110.641 91.7081 110.585 91.7635C110.529 91.8189 110.484 91.8848 110.454 91.9574C110.423 92.03 110.407 92.108 110.407 92.1868Z" fill="black"/>
<path d="M114.667 95.9202L116.387 91.3668C116.41 91.3039 116.451 91.2489 116.504 91.2081C116.557 91.1674 116.621 91.1426 116.687 91.1366C116.754 91.1307 116.821 91.1439 116.881 91.1746C116.94 91.2053 116.99 91.2523 117.024 91.3102C117.27 91.7302 117.46 92.1624 117.594 92.6068C117.911 93.6802 118.317 94.7613 118.81 95.8502C118.888 96.0213 118.834 96.0946 118.647 96.0702L118.524 96.0568C118.461 96.0485 118.401 96.0251 118.348 95.9886C118.296 95.952 118.253 95.9034 118.224 95.8468L117.77 94.9702C117.71 94.8524 117.615 94.7924 117.484 94.7902L115.947 94.7635C115.851 94.7619 115.757 94.7957 115.684 94.8585C115.612 94.9213 115.565 95.0086 115.554 95.1035C115.514 95.4413 115.365 95.7624 115.107 96.0668C115.04 96.1446 114.958 96.1724 114.86 96.1502C114.805 96.1391 114.755 96.1157 114.71 96.0802C114.687 96.061 114.67 96.0353 114.663 96.0065C114.655 95.9778 114.656 95.9476 114.667 95.9202ZM116 93.8102C115.984 93.851 115.978 93.8951 115.983 93.9388C115.987 93.9824 116.002 94.0243 116.027 94.0609C116.051 94.0976 116.083 94.1278 116.122 94.1491C116.16 94.1705 116.203 94.1823 116.247 94.1835L117.167 94.2168C117.211 94.2184 117.254 94.2094 117.294 94.1905C117.334 94.1717 117.368 94.1436 117.395 94.1086C117.421 94.0737 117.439 94.0328 117.446 93.9896C117.453 93.9463 117.45 93.9019 117.437 93.8602L117.02 92.5568C117.003 92.5036 116.969 92.4569 116.924 92.4233C116.88 92.3897 116.825 92.3707 116.769 92.3689C116.713 92.3671 116.658 92.3825 116.611 92.4132C116.564 92.4438 116.528 92.4881 116.507 92.5402L116 93.8102Z" fill="black"/>
<path d="M121.65 91.6101C121.423 91.5646 121.187 91.6044 120.987 91.7218C120.787 91.8393 120.638 92.0261 120.567 92.2468C120.442 92.6357 120.548 92.9323 120.883 93.1368C121.757 93.6735 123.91 93.6635 123.21 95.3835C123.05 95.7768 122.776 96.039 122.387 96.1701C121.678 96.4101 120.976 96.3468 120.28 95.9801C119.933 95.7968 119.93 95.5168 119.787 95.1968C119.713 95.0323 119.765 94.9723 119.94 95.0168C120.231 95.0923 120.451 95.2468 120.6 95.4801C120.634 95.5335 120.678 95.579 120.731 95.6135C120.784 95.648 120.844 95.6708 120.907 95.6801C121.305 95.7446 121.696 95.7501 122.08 95.6968C122.254 95.6736 122.414 95.5902 122.533 95.4611C122.652 95.332 122.722 95.1653 122.73 94.9901C122.79 93.7768 120.577 94.0335 120.06 93.1201C119.911 92.8601 119.867 92.6024 119.927 92.3468C120.133 91.449 120.799 91.0557 121.923 91.1668C122.461 91.2201 122.845 91.419 123.073 91.7635C123.145 91.8724 123.161 91.9879 123.123 92.1101L123.067 92.3101C123.013 92.4923 122.931 92.5057 122.82 92.3501C122.542 91.9568 122.152 91.7101 121.65 91.6101Z" fill="black"/>
</g>
<g filter="url(#filter1_d_2385_42)">
<path d="M59.1534 68.2566C58.8801 68.3411 58.6323 68.47 58.4101 68.6433C56.3668 70.2266 53.7034 71.7066 51.2034 71.0766C49.4657 70.6388 48.6568 69.4855 48.7768 67.6166C48.7923 67.3789 48.9157 67.2333 49.1468 67.18C49.2201 67.1644 49.2857 67.1822 49.3434 67.2333C49.579 67.44 49.709 67.71 49.7334 68.0433C49.8134 69.1811 50.3145 69.8655 51.2368 70.0966C52.5457 70.4255 53.8768 70.2311 55.2301 69.5133C56.619 68.7755 58.229 67.7466 60.0601 66.4266C60.1712 66.3444 60.2957 66.3066 60.4334 66.3133L60.6534 66.32C60.8912 66.3311 60.9801 66.4522 60.9201 66.6833C60.6312 67.8033 60.3279 68.8277 60.0101 69.7566C59.9701 69.8722 59.9945 69.9688 60.0834 70.0466C60.1066 70.0668 60.1335 70.0823 60.1627 70.092C60.1918 70.1018 60.2226 70.1057 60.2533 70.1036C60.2839 70.1014 60.3139 70.0932 60.3414 70.0794C60.3688 70.0656 60.3933 70.0466 60.4134 70.0233C61.0734 69.2566 61.7812 68.5533 62.5368 67.9133C64.0901 66.6 66.3334 66.2666 67.2301 68.5133C67.279 68.6311 67.3423 68.7377 67.4201 68.8333C67.4912 68.92 67.5245 69.0222 67.5201 69.14C67.5023 69.7355 67.7034 69.82 68.1234 69.3933C68.6968 68.8088 69.2768 68.2988 69.8634 67.8633C70.3768 67.4788 70.9034 67.2633 71.4434 67.2166C72.5168 67.1233 73.5201 67.0566 74.3668 67.8933C74.6757 68.1977 74.8912 68.5677 75.0134 69.0033C75.2734 69.9344 75.3368 70.7433 75.2034 71.43C75.0945 71.99 75.2612 72.0888 75.7034 71.7266C76.2412 71.2844 76.8223 70.9155 77.4468 70.62C78.0312 70.3422 78.6345 70.1422 79.2568 70.02C80.1301 69.8511 81.0345 69.7122 81.9701 69.6033C82.3479 69.5611 82.7023 69.4766 83.0334 69.35C83.1268 69.3144 83.2223 69.3033 83.3201 69.3166C83.7312 69.3811 84.1212 69.3011 84.4901 69.0766C84.7123 68.9433 84.859 68.7677 84.9301 68.55C85.1057 68.0166 85.3868 67.5266 85.7734 67.08C86.3557 66.4066 87.0068 66.1411 87.7268 66.2833C88.2912 66.3944 88.6457 66.7555 88.7901 67.3666C88.8168 67.48 88.7979 67.5855 88.7334 67.6833C88.1368 68.5766 86.9968 69.5333 85.8701 69.65C85.4279 69.6966 85.1523 69.9366 85.0434 70.37C84.8101 71.3033 84.5257 72.2344 84.1901 73.1633C83.7412 74.3944 83.3957 75.45 83.1534 76.33C82.9559 77.0424 82.7342 77.7497 82.4901 78.4466C82.079 79.6244 81.6057 80.71 81.0701 81.7033C80.9832 81.8667 80.9527 82.0542 80.9834 82.2363C81.0142 82.4185 81.1045 82.5851 81.2401 82.71C82.3957 83.7766 83.4823 84.8266 84.5001 85.86C85.1134 86.4866 85.8901 87.0533 86.6068 87.5766C87.4468 88.19 88.7968 88.6633 89.8701 88.45C90.8279 88.2589 91.5868 87.8022 92.1468 87.08C92.1736 87.0449 92.2086 87.0169 92.2487 86.9983C92.2887 86.9798 92.3327 86.9712 92.3768 86.9733C92.7123 86.9822 92.8023 87.19 92.6468 87.5966C92.5868 87.75 92.5079 87.8933 92.4101 88.0266C91.0768 89.8233 87.7634 89.7466 86.1634 88.4C85.8068 88.1033 85.4201 87.9 85.0734 87.5866C83.5068 86.1689 81.9601 84.7255 80.4334 83.2566C80.3423 83.17 80.2457 83.1633 80.1434 83.2366C79.8034 83.48 79.5634 83.8466 79.2201 84.0866C77.9101 85.01 75.7568 85.41 74.6301 84.0866C74.4568 83.88 74.3479 83.65 74.3034 83.3966C74.1279 82.3588 74.3401 81.5211 74.9401 80.8833C75.3201 80.4788 75.7723 80.2533 76.2968 80.2066C77.1468 80.13 78.1001 80.24 78.7901 80.7733C79.1101 81.02 79.4379 81.2489 79.7734 81.46C79.8378 81.5003 79.9158 81.5131 79.9901 81.4956C80.0645 81.4781 80.1292 81.4317 80.1701 81.3666C81.1568 79.76 81.8445 78.05 82.2334 76.2366C82.2557 76.1255 82.2979 76.0244 82.3601 75.9333L82.4768 75.76C82.519 75.6977 82.529 75.6311 82.5068 75.56C82.4557 75.3977 82.4845 75.2588 82.5934 75.1433C82.6601 75.0766 82.7068 74.9977 82.7334 74.9066L84.0634 70.39C84.1012 70.2611 84.0534 70.1922 83.9201 70.1833C83.4001 70.1566 82.8368 70.11 82.3568 70.38C82.1545 70.4911 81.9223 70.5344 81.6601 70.51C81.4557 70.4922 81.2412 70.5155 81.0168 70.58C80.2301 70.8133 79.4301 70.9889 78.6168 71.1066C77.9145 71.2089 77.159 71.6355 76.3501 72.3866C75.0068 73.64 75.1568 76.14 77.3268 76.5466C77.418 76.5635 77.5011 76.6104 77.5627 76.6799C77.6243 76.7493 77.6609 76.8373 77.6668 76.93L77.6834 77.24C77.6849 77.2649 77.6811 77.2898 77.6722 77.3131C77.6633 77.3364 77.6496 77.3576 77.632 77.3752C77.6144 77.3928 77.5932 77.4065 77.5699 77.4154C77.5466 77.4242 77.5217 77.4281 77.4968 77.4266C76.0657 77.3444 75.1123 76.5655 74.6368 75.09C74.5968 74.9677 74.529 74.8655 74.4334 74.7833C74.2912 74.6633 74.1879 74.69 74.1234 74.8633C73.419 76.7788 72.709 78.7911 71.9934 80.9C71.9379 81.0644 71.8634 81.2222 71.7701 81.3733C71.653 81.5589 71.5653 81.7613 71.5101 81.9733C71.139 83.3888 70.7179 84.8944 70.2468 86.49C69.9368 87.5466 70.6534 88.63 71.6934 88.8166C72.0823 88.8855 72.2601 89.1066 72.2268 89.48C72.2134 89.6244 72.1345 89.6966 71.9901 89.6966C71.2345 89.69 70.6001 89.4155 70.0868 88.8733C69.6834 88.45 69.6201 87.9233 69.4368 87.39C69.3701 87.2011 69.3612 86.99 69.4101 86.7566C69.539 86.1388 69.6723 85.5133 69.8101 84.88C70.1368 83.3833 70.7601 81.9833 71.2068 80.53C71.5201 79.5144 71.8712 78.5533 72.2601 77.6466C72.529 77.0155 72.759 76.37 72.9501 75.71C73.1212 75.1277 73.3323 74.5422 73.5834 73.9533C74.0812 72.7933 74.3368 71.5044 74.3501 70.0866C74.3601 68.8966 73.8201 68.07 72.5634 68.0133C71.4834 67.9644 70.6634 68.1822 70.1034 68.6666C69.3034 69.3555 68.5445 70.1344 67.8268 71.0033C67.4223 71.4922 67.1479 72.0411 67.0034 72.65C66.7057 73.9233 66.3268 75.2122 65.8668 76.5166C65.609 77.2411 65.3768 77.9588 65.1701 78.67C64.9568 79.3944 64.7201 80.1111 64.4601 80.82C64.4223 80.9222 64.3612 81.0066 64.2768 81.0733C64.1901 81.1422 64.1579 81.2355 64.1801 81.3533C64.1979 81.4466 64.1923 81.5388 64.1634 81.63L63.2534 84.4233C63.2395 84.4671 63.2166 84.5076 63.1861 84.5421C63.1556 84.5767 63.1182 84.6045 63.0763 84.6239C63.0343 84.6433 62.9887 84.6539 62.9423 84.6549C62.896 84.656 62.8498 84.6475 62.8068 84.63C62.7757 84.6188 62.7434 84.6066 62.7101 84.5933C62.4457 84.4866 62.3468 84.2944 62.4134 84.0166C62.5534 83.4277 62.7257 82.8788 62.9301 82.37C63.2857 81.4922 63.4934 80.9588 63.5534 80.77C63.8668 79.8055 64.1679 78.8733 64.4568 77.9733C64.4879 77.8755 64.5057 77.7755 64.5101 77.6733C64.5123 77.5844 64.5468 77.5111 64.6134 77.4533C64.6979 77.38 64.7545 77.29 64.7834 77.1833C65.2545 75.4455 65.7779 73.7155 66.3534 71.9933C66.5423 71.4288 66.6279 70.9022 66.6101 70.4133C66.5868 69.7766 66.7501 69.07 66.3401 68.5166C65.2301 67.0166 63.4934 68.15 62.5068 69.1233C61.2557 70.3566 60.0434 71.8677 58.8701 73.6566C58.7145 73.8922 58.5912 74.1433 58.5001 74.41C58.4557 74.5411 58.3857 74.65 58.2901 74.7366C58.2034 74.8122 58.1679 74.9066 58.1834 75.02C58.2034 75.1822 58.1779 75.3355 58.1068 75.48C58.0423 75.6066 57.989 75.74 57.9468 75.88C57.2912 78.04 56.599 80.1511 55.8701 82.2133C55.4134 83.5066 54.2501 85.6233 52.6434 84.72C52.3889 84.5772 52.1937 84.3481 52.0928 84.0737C51.992 83.7994 51.9922 83.4979 52.0934 83.2233C52.2301 82.8466 52.1701 82.5233 52.3534 82.15C53.0979 80.6233 53.9357 79.2677 54.8668 78.0833C55.4957 77.2811 55.9901 76.5833 56.3501 75.99C57.0701 74.8 58.0001 73.74 58.2168 72.2533C58.2345 72.1288 58.2923 72.0266 58.3901 71.9466C58.479 71.8755 58.5234 71.7833 58.5234 71.67C58.5257 71.5588 58.5468 71.4511 58.5868 71.3466C58.9379 70.48 59.2201 69.5344 59.4334 68.51C59.4845 68.2655 59.3912 68.1811 59.1534 68.2566ZM87.6228 67.1955C87.5834 67.148 87.5253 67.1168 87.4519 67.1036C87.3785 67.0905 87.2912 67.0956 87.195 67.1188C87.0987 67.142 86.9955 67.1827 86.8911 67.2387C86.7867 67.2946 86.6832 67.3647 86.5865 67.445C86.4899 67.5252 86.4019 67.6141 86.3277 67.7064C86.2535 67.7987 86.1945 67.8927 86.154 67.983C86.1135 68.0734 86.0924 68.1582 86.0918 68.2328C86.0913 68.3074 86.1113 68.3702 86.1507 68.4177C86.1901 68.4652 86.2482 68.4964 86.3216 68.5096C86.395 68.5228 86.4824 68.5176 86.5786 68.4945C86.6748 68.4713 86.7781 68.4306 86.8825 68.3746C86.9869 68.3186 87.0903 68.2485 87.187 68.1683C87.2837 68.088 87.3716 67.9992 87.4458 67.9069C87.5201 67.8146 87.5791 67.7205 87.6196 67.6302C87.66 67.5399 87.6811 67.455 87.6817 67.3804C87.6823 67.3058 87.6623 67.243 87.6228 67.1955ZM55.5868 80.41C55.7957 79.9166 55.9623 79.4177 56.0868 78.9133C56.1112 78.82 56.0968 78.7366 56.0434 78.6633C56.0196 78.63 55.9882 78.6029 55.9518 78.5841C55.9155 78.5652 55.8752 78.5552 55.8343 78.5549C55.7933 78.5546 55.7529 78.5639 55.7163 78.5822C55.6796 78.6004 55.6478 78.6271 55.6234 78.66C54.8568 79.6622 54.1168 80.7544 53.4034 81.9366C53.0901 82.4566 53.0301 82.9966 53.0801 83.5866C53.0844 83.6424 53.1024 83.6963 53.1326 83.7434C53.1627 83.7905 53.204 83.8295 53.2528 83.8569C53.3016 83.8843 53.3564 83.8992 53.4123 83.9003C53.4682 83.9014 53.5236 83.8887 53.5734 83.8633C54.4801 83.4066 54.8368 82.6033 55.1234 81.6833C55.2101 81.4066 55.1501 81.1533 55.4068 80.9633C55.4579 80.9233 55.4934 80.8733 55.5134 80.8133C55.5568 80.6733 55.5268 80.55 55.5868 80.41ZM78.9934 82.04C78.5734 81.74 78.1145 81.4666 77.6168 81.22C77.1279 80.9777 76.6601 80.9589 76.2134 81.1633C75.6401 81.4233 75.299 81.86 75.1901 82.4733C75.0501 83.27 75.4368 83.97 76.3168 84C76.8301 84.0166 77.2568 84.05 77.7434 83.8166C78.1768 83.6055 78.5834 83.38 78.9634 83.14C79.0552 83.0817 79.1313 83.0019 79.1849 82.9073C79.2386 82.8128 79.2682 82.7066 79.2711 82.5979C79.2741 82.4893 79.2503 82.3816 79.2019 82.2843C79.1535 82.187 79.0819 82.1031 78.9934 82.04Z" fill="black"/>
<path d="M92.9731 69.2402L92.8297 69.5935C92.7542 69.7824 92.6486 69.8002 92.5131 69.6469L92.3464 69.4602C92.2664 69.3691 92.2542 69.2702 92.3097 69.1635C92.5931 68.6169 92.2131 68.3302 92.2364 67.8135C92.2453 67.5691 92.3086 67.3957 92.4264 67.2935C92.5156 67.2165 92.6218 67.1618 92.7362 67.1339C92.8507 67.106 92.9702 67.1057 93.0847 67.1331C93.1993 67.1604 93.3058 67.2146 93.3953 67.2912C93.4849 67.3678 93.5549 67.4646 93.5997 67.5735C93.7819 68.0135 93.6264 68.4869 93.1331 68.9935C93.0642 69.0646 93.0108 69.1469 92.9731 69.2402Z" fill="black"/>
<path d="M6.82997 68.4233C6.81664 68.8989 6.76997 69.2956 6.68997 69.6133C6.60553 69.9533 6.57108 69.9478 6.58664 69.5967C6.60442 69.2256 6.68553 68.8345 6.82997 68.4233Z" fill="black"/>
<path d="M97.3899 76.9664C97.3631 76.9274 97.3288 76.8942 97.289 76.8688C97.2492 76.8433 97.2048 76.8262 97.1584 76.8184C97.112 76.8106 97.0645 76.8123 97.019 76.8235C96.9734 76.8346 96.9306 76.8549 96.8932 76.8831C96.6532 77.0653 96.4055 77.1564 96.1499 77.1564C96.0812 77.1563 96.014 77.1365 95.9562 77.0994C95.8985 77.0623 95.8525 77.0094 95.8238 76.947C95.795 76.8847 95.7847 76.8154 95.7941 76.7474C95.8034 76.6793 95.8321 76.6154 95.8766 76.5631L96.4832 75.8498C96.5655 75.7564 96.6055 75.6464 96.6032 75.5198C96.5988 75.1153 96.5699 74.7186 96.5166 74.3298C96.3432 73.0609 96.8155 72.1875 97.9332 71.7098C98.0332 71.6675 98.1299 71.6764 98.2232 71.7364C98.8499 72.1498 99.3999 72.7531 99.0932 73.5664C98.8755 74.1375 98.5988 74.6553 98.2632 75.1198C97.901 75.622 97.8999 76.1653 98.2599 76.7498C98.7566 77.5598 99.3232 78.4664 99.5399 79.3764C99.9888 81.2764 99.5232 82.7909 98.1432 83.9197C97.5521 84.402 96.8677 84.6975 96.0899 84.8064C94.3866 85.0464 92.6232 84.1698 92.0132 82.5431C91.711 81.7364 91.7577 80.8642 92.1532 79.9264C92.5399 79.0086 93.1332 78.3886 93.9332 78.0664C94.6955 77.7598 95.3666 77.7898 95.9466 78.1564C96.7666 78.6786 97.191 79.3809 97.2199 80.2631C97.222 80.3149 97.2107 80.3663 97.1871 80.4125C97.1634 80.4586 97.1281 80.4979 97.0847 80.5266C97.0412 80.5554 96.991 80.5726 96.9388 80.5767C96.8866 80.5807 96.8342 80.5714 96.7866 80.5497C96.5643 80.4475 96.4255 80.2775 96.3699 80.0397C95.9899 78.3631 94.1066 78.4364 93.3132 79.6864C92.331 81.2331 92.4855 82.4509 93.7766 83.3398C94.1455 83.5931 94.581 83.7642 95.0832 83.8531C95.5077 83.9286 95.9388 83.8986 96.3766 83.7631C97.9655 83.2697 98.7521 82.2109 98.7366 80.5864C98.7232 79.2831 98.1099 78.0364 97.3899 76.9664ZM97.5225 74.4026C97.5703 74.4153 97.623 74.4078 97.6776 74.3804C97.7321 74.3529 97.7876 74.3062 97.8406 74.2428C97.8937 74.1794 97.9434 74.1006 97.9868 74.0109C98.0303 73.9212 98.0667 73.8223 98.0939 73.72C98.1489 73.5132 98.1633 73.3047 98.134 73.1404C98.1046 72.976 98.0339 72.8692 97.9373 72.8436C97.8895 72.8308 97.8368 72.8384 97.7823 72.8658C97.7277 72.8932 97.6723 72.94 97.6192 73.0034C97.5661 73.0668 97.5165 73.1456 97.473 73.2353C97.4295 73.325 97.3931 73.4238 97.3659 73.5262C97.3109 73.733 97.2965 73.9414 97.3258 74.1058C97.3552 74.2702 97.4259 74.3769 97.5225 74.4026Z" fill="black"/>
<path d="M60.7067 90.2001C60.58 90.4113 60.4189 90.5746 60.2234 90.6901C60.0811 90.7724 60.0167 90.7313 60.03 90.5668C60.0656 90.1246 60.2867 89.7835 60.6934 89.5435C60.8045 89.4768 60.9034 89.4924 60.99 89.5901L61.7267 90.4301C61.7383 90.4428 61.7462 90.4584 61.7498 90.4752C61.7533 90.492 61.7523 90.5095 61.7469 90.5258C61.7415 90.5421 61.7318 90.5566 61.7189 90.5679C61.7059 90.5792 61.6902 90.5869 61.6734 90.5901C61.2778 90.6679 61.0078 90.5412 60.8634 90.2101C60.8167 90.1057 60.7645 90.1024 60.7067 90.2001Z" fill="black"/>
</g>
<defs>
<filter id="filter0_d_2385_42" x="1.69336" y="15.5078" width="147.252" height="115.292" filterUnits="userSpaceOnUse" color-interpolation-filters="sRGB">
<feFlood flood-opacity="0" result="BackgroundImageFix"/>
<feColorMatrix in="SourceAlpha" type="matrix" values="0 0 0 0 0 0 0 0 0 0 0 0 0 0 0 0 0 0 127 0" result="hardAlpha"/>
<feOffset dy="4"/>
<feGaussianBlur stdDeviation="2"/>
<feComposite in2="hardAlpha" operator="out"/>
<feColorMatrix type="matrix" values="0 0 0 0 0 0 0 0 0 0 0 0 0 0 0 0 0 0 0.25 0"/>
<feBlend mode="normal" in2="BackgroundImageFix" result="effect1_dropShadow_2385_42"/>
<feBlend mode="normal" in="SourceGraphic" in2="effect1_dropShadow_2385_42" result="shape"/>
</filter>
<filter id="filter1_d_2385_42" x="2.58301" y="66.2461" width="101.122" height="32.4854" filterUnits="userSpaceOnUse" color-interpolation-filters="sRGB">
<feFlood flood-opacity="0" result="BackgroundImageFix"/>
<feColorMatrix in="SourceAlpha" type="matrix" values="0 0 0 0 0 0 0 0 0 0 0 0 0 0 0 0 0 0 127 0" result="hardAlpha"/>
<feOffset dy="4"/>
<feGaussianBlur stdDeviation="2"/>
<feComposite in2="hardAlpha" operator="out"/>
<feColorMatrix type="matrix" values="0 0 0 0 0 0 0 0 0 0 0 0 0 0 0 0 0 0 0.25 0"/>
<feBlend mode="normal" in2="BackgroundImageFix" result="effect1_dropShadow_2385_42"/>
<feBlend mode="normal" in="SourceGraphic" in2="effect1_dropShadow_2385_42" result="shape"/>
</filter>
</defs>
</svg>
