<svg width="469" height="616" viewBox="0 0 469 616" fill="none" xmlns="http://www.w3.org/2000/svg">
<path d="M323.146 18.6419C321.964 14.261 318.604 10.6881 314.521 8.76615C330.179 17.3856 318.881 32.5437 311.465 24.5478C303.924 16.4164 291.879 12.4372 281.566 9.42236C249.207 -0.0284136 212.011 -2.77935 178.783 3.36937C158.942 7.04506 125.104 25.4118 159.44 40.3668C193.836 55.3498 239.469 47.4776 274.876 40.5886C285.49 38.5219 307.161 27.2544 310.724 39.2552C315.019 53.7245 313.847 69.7186 311.259 84.37C305.669 116.034 290.123 159.719 258.697 174.63C234.88 185.928 231.541 164.289 215.36 151.382C201.304 140.166 176.76 133.571 175.329 114.857C174.268 100.988 170.457 45.3829 144.861 55.4058C130.711 61.9632 136.764 88.1274 141.024 98.594C145.325 106.816 150.981 113.965 157.994 120.041C171.536 132.182 167.386 134.111 172.491 150.427C177.585 166.716 190.426 175.368 205.928 182.796C215.656 187.462 216.922 197.013 216.06 215.252C215.336 230.508 214.636 245.773 213.697 261.023C213.288 267.659 200.879 304.958 204.468 308.741C209.082 312.8 258.608 305.876 238.334 322.771C218.97 338.903 180.392 308.965 157.805 313.215C130.438 318.374 159.262 341.855 169.869 345.746C198.055 356.077 231.643 358.038 261.149 353.331C286.818 349.239 323.423 322.234 278.243 307.172C251.255 298.172 242.841 310.191 242.876 274.341C242.909 244.916 249.949 214.353 240.987 185.533C278.512 186.705 301 143.566 311.283 113.404C317.763 94.3976 321.819 73.8193 320.469 53.6661C319.928 45.5534 318.44 37.2936 315.01 29.8652C320.766 27.642 324.759 24.7159 323.146 18.6419C323.433 19.7232 321.964 14.261 323.146 18.6419ZM151.701 102.454C144.394 92.1791 142.715 46.0858 157.763 67.8434C167.309 81.6424 168.199 103.019 168.444 119.261C163.734 115.564 151.152 101.663 151.701 102.454C155.147 107.482 149.93 99.9695 151.701 102.454ZM188.803 167.061C180.004 158.496 177.683 145.647 176.543 134.043C195.47 146.749 217.707 157.629 229.698 178.044C215.107 177.649 191.869 170.074 188.803 167.061C193.418 171.596 180.097 158.589 188.803 167.061ZM253.296 310.549C268.531 310.658 313.347 324.014 279.28 334.919C245.774 345.647 210.5 350.654 175.8 342.637C140.648 334.511 156.953 318.563 185.347 322.519C198.331 324.324 256.682 340.785 247.974 310.479C213.412 310.114 257.368 310.644 253.296 310.549C264.65 310.63 251.509 310.507 253.296 310.549ZM225.228 303.844C220.117 303.921 215.007 303.998 209.895 304.078C227.893 271.183 218.199 220.912 218.031 184.774C243.378 186.759 236.564 204.897 235.884 227.351C235.123 252.655 233.224 278.497 238.444 303.491C215.82 303.935 226.515 303.802 225.228 303.844C229.556 303.711 220.112 304.276 225.228 303.844ZM292.407 33.2022C275.413 35.6402 151.553 46.6837 151.196 25.4632C158.225 -9.15692 291.37 5.95451 306.99 30.4537C300.171 31.9669 293.301 33.1719 286.379 34.0616C288.376 33.8001 290.443 33.5105 292.407 33.2022C297.234 32.448 279.021 35.1218 292.407 33.2022Z" fill="#111111"/>
<path d="M79.9189 482.703C95.9027 516.924 86.0665 554.835 102.05 554.835C75.8205 554.835 63.5253 528.195 51.2301 498.072L32.5823 451.76C19.0576 418.767 14.9592 411.39 0 411.39H27.2544C53.4842 411.39 56.558 425.12 69.6729 458.112L79.9189 482.703ZM141.395 516.924C141.395 534.342 142.829 554.425 152.666 554.835C139.346 554.835 112.296 549.916 112.296 512.006V449.096C112.296 431.677 110.862 411.8 101.026 411.39C114.345 411.39 141.395 416.104 141.395 454.014V516.924ZM31.1479 507.293C31.1479 539.875 45.4923 554.835 58.4023 554.835H3.89348C16.8035 554.835 31.1479 539.875 31.1479 507.293ZM217.856 516.924V454.014C217.856 416.104 190.806 411.39 177.487 411.39C187.323 411.8 188.757 431.677 188.757 449.096V512.006C188.757 549.916 215.807 554.835 229.126 554.835C219.29 554.425 217.856 534.342 217.856 516.924ZM279.537 554.835H236.913C263.143 554.63 272.774 537.826 279.537 519.383V554.835ZM347.801 403.194C341.243 403.194 342.678 413.03 342.678 424.71V436.596C342.678 462.211 319.112 472.866 305.792 472.866C315.628 472.457 313.579 454.629 313.579 446.227V438.85V436.186C313.579 409.341 337.145 403.194 347.801 403.194ZM376.515 447.456C376.515 423.276 395.368 411.39 419.139 411.39H426.926C413.196 411.39 405.819 421.636 405.819 432.497C405.819 462.211 468.729 481.268 468.729 515.285C468.729 540.285 447.418 554.835 421.393 554.835H416.27C430 554.835 436.557 543.974 436.557 533.728C436.557 503.4 376.515 481.268 376.515 447.456ZM441.065 446.022C450.492 446.022 458.279 438.44 458.279 428.809C458.279 419.177 450.082 411.39 441.065 411.39C431.434 411.39 423.647 419.177 423.647 428.809C423.647 438.44 431.434 446.022 441.065 446.022ZM390.04 554.835C399.466 554.835 407.253 547.252 407.253 537.621C407.253 527.99 399.057 520.203 390.04 520.203C380.409 520.203 372.622 527.99 372.622 537.621C372.622 547.252 380.409 554.835 390.04 554.835Z" fill="#111111"/>
<path d="M16.842 596.317C16.842 595.011 14.9334 594.007 12.5896 594.007C9.44223 594.007 6.29482 596.183 6.29482 604.085C6.29482 609.978 8.7056 613.795 12.7905 613.795C15.2013 613.795 17.3442 612.724 18.6166 610.681C19.0519 609.978 19.2862 609.878 19.5541 609.878C19.8889 609.878 20.1568 610.146 20.1568 610.48C20.1568 610.849 19.8555 611.351 19.3532 612.021C18.0474 613.695 15.5696 615.503 11.5851 615.503C4.18538 615.503 0 610.514 0 604.085C0 597.69 4.52021 592.634 11.7526 592.634C16.842 592.634 20.1903 595.279 20.1903 598.359C20.1903 600.502 18.8845 601.44 17.6456 601.44C16.5072 601.44 15.4022 600.67 15.4022 599.297C15.4022 597.857 16.842 597.355 16.842 596.317ZM34.7219 592.667C41.9208 592.667 46.6754 597.69 46.6754 604.085C46.6754 610.48 41.9208 615.503 34.7219 615.503C27.4896 615.503 22.7685 610.48 22.7685 604.085C22.7685 597.69 27.4896 592.667 34.7219 592.667ZM34.7219 614.264C39.1082 614.264 40.3806 609.71 40.3806 604.085C40.3806 598.46 39.1082 593.906 34.7219 593.906C30.3357 593.906 29.0633 598.46 29.0633 604.085C29.0633 609.71 30.3357 614.264 34.7219 614.264ZM69.31 593.036C69.6783 593.036 69.9461 593.304 69.9461 593.638C69.9461 594.007 69.6783 594.275 69.31 594.275H68.8412C68.1046 594.275 67.6358 594.844 67.6358 595.446V615.101H64.8232L52.334 598.945V612.69C52.334 613.293 52.8028 613.862 53.5394 613.862H54.0082C54.3765 613.862 54.6444 614.13 54.6444 614.498C54.6444 614.833 54.3765 615.101 54.0082 615.101H49.1531C48.7848 615.101 48.517 614.833 48.517 614.498C48.517 614.13 48.7848 613.862 49.1531 613.862H49.6219C50.3585 613.862 50.8273 613.293 50.8273 612.69V595.446C50.8273 594.844 50.3585 594.275 49.6219 594.275H49.1531C48.7848 594.275 48.517 594.007 48.517 593.638C48.517 593.304 48.7848 593.036 49.1531 593.036H54.477L66.1291 608.009V595.446C66.1291 594.844 65.6603 594.275 64.9237 594.275H64.4549C64.0866 594.275 63.8187 594.007 63.8187 593.638C63.8187 593.304 64.0866 593.036 64.4549 593.036H69.31ZM94.7236 593.036C95.0584 593.036 95.3598 593.304 95.3598 593.638C95.3598 594.007 95.0584 594.275 94.7236 594.275H93.92C93.0494 594.275 92.6811 594.71 92.3798 595.446L84.143 615.302H82.3683L73.6962 595.413C73.4284 594.81 72.9931 594.275 72.0556 594.275H71.3189C70.9841 594.275 70.6828 594.007 70.6828 593.638C70.6828 593.304 70.9841 593.036 71.3189 593.036H81.8326C82.1674 593.036 82.4688 593.304 82.4688 593.638C82.4688 594.007 82.1674 594.275 81.8326 594.275H80.6272C79.9408 594.275 79.529 594.8 79.8236 595.446L85.5358 608.334L90.873 595.446C91.1074 594.83 90.7358 594.275 90.0695 594.275H88.8641C88.5292 594.275 88.2279 594.007 88.2279 593.638C88.2279 593.304 88.5292 593.036 88.8641 593.036H94.7236ZM114.043 608.471C114.378 608.471 114.646 608.739 114.646 609.108V615.101H96.7393C96.371 615.101 96.1031 614.833 96.1031 614.465C96.1031 614.13 96.371 613.862 96.7393 613.862H97.2081C97.8911 613.862 98.4068 613.373 98.4068 612.821L98.4001 595.329C98.4001 594.77 97.8912 594.275 97.2014 594.275H96.7327C96.3643 594.275 96.0965 594.007 96.0965 593.672C96.0965 593.304 96.3643 593.036 96.7327 593.036H114.646V599.029C114.646 599.397 114.378 599.665 114.01 599.665C113.675 599.665 113.407 599.397 113.407 599.029V598.895C113.407 596.585 112.034 594.275 109.289 594.275H105.298C104.615 594.275 104.099 594.753 104.099 595.316L104.102 602.98H104.501C106.911 602.98 108.117 602.11 108.117 599.732V599.665C108.117 599.33 108.418 599.029 108.753 599.029C109.088 599.029 109.389 599.33 109.389 599.665V607.601C109.389 607.936 109.088 608.237 108.753 608.237C108.418 608.237 108.117 607.969 108.117 607.5V607.433C108.117 605.223 106.978 604.286 104.501 604.286H104.102L104.106 612.807C104.106 613.373 104.615 613.862 105.304 613.862H109.289C112.034 613.862 113.407 611.552 113.407 609.241V609.108C113.407 608.739 113.675 608.471 114.043 608.471ZM138.72 593.036C139.089 593.036 139.357 593.304 139.357 593.638C139.357 594.007 139.089 594.275 138.72 594.275H138.252C137.515 594.275 137.046 594.844 137.046 595.446V615.101H134.234L121.744 598.945V612.69C121.744 613.293 122.213 613.862 122.95 613.862H123.419C123.787 613.862 124.055 614.13 124.055 614.498C124.055 614.833 123.787 615.101 123.419 615.101H118.564C118.195 615.101 117.927 614.833 117.927 614.498C117.927 614.13 118.195 613.862 118.564 613.862H119.032C119.769 613.862 120.238 613.293 120.238 612.69V595.446C120.238 594.844 119.769 594.275 119.032 594.275H118.564C118.195 594.275 117.927 594.007 117.927 593.638C117.927 593.304 118.195 593.036 118.564 593.036H123.887L135.539 608.009V595.446C135.539 594.844 135.071 594.275 134.334 594.275H133.865C133.497 594.275 133.229 594.007 133.229 593.638C133.229 593.304 133.497 593.036 133.865 593.036H138.72ZM150.372 613.862C150.741 613.862 151.009 614.13 151.009 614.465C151.009 614.833 150.741 615.101 150.372 615.101H141.339C140.97 615.101 140.703 614.833 140.703 614.465C140.703 614.13 140.97 613.862 141.339 613.862H141.807C142.491 613.862 143.006 613.383 143.006 612.821L143 595.329C143 594.763 142.491 594.275 141.801 594.275H141.332C140.964 594.275 140.696 594.007 140.696 593.672C140.696 593.304 140.964 593.036 141.332 593.036H150.366C150.734 593.036 151.002 593.304 151.002 593.672C151.002 594.007 150.734 594.275 150.366 594.275H149.897C149.214 594.275 148.698 594.763 148.698 595.316L148.705 612.807C148.705 613.367 149.214 613.862 149.904 613.862H150.372ZM166.612 590.866C167.03 591.83 165.775 592.235 165.239 591.569L162.795 588.589L160.35 591.569C159.731 592.322 158.499 591.713 158.978 590.866L161.154 587.082C161.988 585.649 163.588 585.629 164.435 587.082L166.612 590.866ZM170.295 608.471C170.63 608.471 170.898 608.739 170.898 609.108V615.101H152.991C152.623 615.101 152.355 614.833 152.355 614.465C152.355 614.13 152.623 613.862 152.991 613.862H153.46C154.143 613.862 154.658 613.373 154.658 612.821L154.652 595.329C154.652 594.77 154.143 594.275 153.453 594.275H152.984C152.616 594.275 152.348 594.007 152.348 593.672C152.348 593.304 152.616 593.036 152.984 593.036H170.898V599.029C170.898 599.397 170.63 599.665 170.261 599.665C169.927 599.665 169.659 599.397 169.659 599.029V598.895C169.659 596.585 168.286 594.275 165.54 594.275H161.549C160.866 594.275 160.35 594.753 160.35 595.316L160.354 602.98H160.752C163.163 602.98 164.368 602.11 164.368 599.732V599.665C164.368 599.33 164.67 599.029 165.005 599.029C165.339 599.029 165.641 599.33 165.641 599.665V607.601C165.641 607.936 165.339 608.237 165.005 608.237C164.67 608.237 164.368 607.969 164.368 607.5V607.433C164.368 605.223 163.23 604.286 160.752 604.286H160.354L160.357 612.807C160.357 613.373 160.866 613.862 161.556 613.862H165.54C168.286 613.862 169.659 611.552 169.659 609.241V609.108C169.659 608.739 169.927 608.471 170.295 608.471ZM194.972 593.036C195.34 593.036 195.608 593.304 195.608 593.638C195.608 594.007 195.34 594.275 194.972 594.275H194.503C193.767 594.275 193.298 594.844 193.298 595.446V615.101H190.485L177.996 598.945V612.69C177.996 613.293 178.465 613.862 179.201 613.862H179.67C180.038 613.862 180.306 614.13 180.306 614.498C180.306 614.833 180.038 615.101 179.67 615.101H174.815C174.447 615.101 174.179 614.833 174.179 614.498C174.179 614.13 174.447 613.862 174.815 613.862H175.284C176.021 613.862 176.489 613.293 176.489 612.69V595.446C176.489 594.844 176.021 594.275 175.284 594.275H174.815C174.447 594.275 174.179 594.007 174.179 593.638C174.179 593.304 174.447 593.036 174.815 593.036H180.139L191.791 608.009V595.446C191.791 594.844 191.322 594.275 190.586 594.275H190.117C189.749 594.275 189.481 594.007 189.481 593.638C189.481 593.304 189.749 593.036 190.117 593.036H194.972ZM214.292 596.317C214.292 595.011 212.383 594.007 210.039 594.007C206.892 594.007 203.744 596.183 203.744 604.085C203.744 609.978 206.155 613.795 210.24 613.795C212.651 613.795 214.794 612.724 216.066 610.681C216.502 609.978 216.736 609.878 217.004 609.878C217.339 609.878 217.606 610.146 217.606 610.48C217.606 610.849 217.305 611.351 216.803 612.021C215.497 613.695 213.019 615.503 209.035 615.503C201.635 615.503 197.45 610.514 197.45 604.085C197.45 597.69 201.97 592.634 209.202 592.634C214.292 592.634 217.64 595.279 217.64 598.359C217.64 600.502 216.334 601.44 215.095 601.44C213.957 601.44 212.852 600.67 212.852 599.297C212.852 597.857 214.292 597.355 214.292 596.317ZM229.393 613.862C229.761 613.862 230.029 614.13 230.029 614.465C230.029 614.833 229.761 615.101 229.393 615.101H220.359C219.99 615.101 219.723 614.833 219.723 614.465C219.723 614.13 219.99 613.862 220.359 613.862H220.828C221.511 613.862 222.026 613.383 222.026 612.821L222.02 595.329C222.02 594.763 221.511 594.275 220.821 594.275H220.352C219.984 594.275 219.716 594.007 219.716 593.672C219.716 593.304 219.984 593.036 220.352 593.036H229.386C229.754 593.036 230.022 593.304 230.022 593.672C230.022 594.007 229.754 594.275 229.386 594.275H228.917C228.234 594.275 227.718 594.763 227.718 595.316L227.725 612.807C227.725 613.367 228.234 613.862 228.924 613.862H229.393ZM254.806 613.862C255.141 613.862 255.442 614.13 255.442 614.498C255.442 614.833 255.141 615.101 254.806 615.101H244.292C243.958 615.101 243.656 614.833 243.656 614.498C243.656 614.13 243.958 613.862 244.292 613.862H245.498C246.184 613.862 246.596 613.336 246.301 612.69L244.49 608.605H236.943L235.252 612.69C235.018 613.306 235.389 613.862 236.056 613.862H237.261C237.596 613.862 237.897 614.13 237.897 614.498C237.897 614.833 237.596 615.101 237.261 615.101H231.401C231.067 615.101 230.765 614.833 230.765 614.498C230.765 614.13 231.067 613.862 231.401 613.862H232.205C233.076 613.862 233.444 613.427 233.745 612.69L241.982 592.835H243.757L252.429 612.724C252.697 613.326 253.132 613.862 254.07 613.862H254.806ZM237.442 607.4H243.958L240.589 599.803L237.442 607.4ZM274.193 593.036C282.497 593.036 287.653 595.815 287.653 603.918C287.653 610.279 283.099 615.101 274.193 615.101H264.858C264.489 615.101 264.222 614.833 264.222 614.465C264.222 614.13 264.489 613.862 264.858 613.862H265.327C266.01 613.862 266.525 613.373 266.525 612.821L266.519 595.329C266.519 594.77 266.01 594.275 265.32 594.275H264.851C264.483 594.275 264.215 594.007 264.215 593.672C264.215 593.304 264.483 593.036 264.851 593.036H274.193ZM274.193 613.862C278.445 613.862 281.358 610.849 281.358 603.918C281.358 596.92 278.814 594.275 274.193 594.275H273.416C272.733 594.275 272.217 594.763 272.217 595.316L272.224 612.807C272.224 613.367 272.733 613.862 273.423 613.862H274.193ZM307.442 608.471C307.776 608.471 308.044 608.739 308.044 609.108V615.101H290.138C289.769 615.101 289.501 614.833 289.501 614.465C289.501 614.13 289.769 613.862 290.138 613.862H290.606C291.289 613.862 291.805 613.373 291.805 612.821L291.798 595.329C291.798 594.77 291.289 594.275 290.6 594.275H290.131C289.763 594.275 289.495 594.007 289.495 593.672C289.495 593.304 289.763 593.036 290.131 593.036H308.044V599.029C308.044 599.397 307.776 599.665 307.408 599.665C307.073 599.665 306.805 599.397 306.805 599.029V598.895C306.805 596.585 305.433 594.275 302.687 594.275H298.696C298.013 594.275 297.497 594.753 297.497 595.316L297.5 602.98H297.899C300.31 602.98 301.515 602.11 301.515 599.732V599.665C301.515 599.33 301.816 599.029 302.151 599.029C302.486 599.029 302.787 599.33 302.787 599.665V607.601C302.787 607.936 302.486 608.237 302.151 608.237C301.816 608.237 301.515 607.969 301.515 607.5V607.433C301.515 605.223 300.377 604.286 297.899 604.286H297.5L297.504 612.807C297.504 613.373 298.013 613.862 298.702 613.862H302.687C305.433 613.862 306.805 611.552 306.805 609.241V609.108C306.805 608.739 307.073 608.471 307.442 608.471ZM333.739 603.476C338.3 603.847 341.159 605.351 341.159 608.94C341.159 612.958 337.811 615.101 331.583 615.101H320.004C319.636 615.101 319.368 614.833 319.368 614.465C319.368 614.13 319.636 613.862 320.004 613.862H320.473C321.21 613.862 321.679 613.293 321.679 612.69L321.672 595.446C321.672 594.844 321.203 594.275 320.466 594.275H319.998C319.629 594.275 319.362 594.007 319.362 593.672C319.362 593.304 319.629 593.036 319.998 593.036H330.813C335.802 593.036 339.853 594.208 339.853 597.991C339.853 600.66 337.961 602.819 333.739 603.476ZM327.391 595.446V603.148H328.804C331.482 603.148 333.592 601.775 333.592 598.527C333.592 595.972 332.112 594.305 328.596 594.275H328.529C327.849 594.275 327.391 594.871 327.391 595.446ZM329.273 613.862C332.42 613.862 334.864 612.121 334.864 609.041C334.864 606.094 332.654 604.453 329.273 604.453H327.397V612.69C327.397 613.293 327.866 613.862 328.603 613.862H329.273ZM360.881 608.471C361.215 608.471 361.483 608.739 361.483 609.108V615.101H343.577C343.208 615.101 342.94 614.833 342.94 614.465C342.94 614.13 343.208 613.862 343.577 613.862H344.045C344.728 613.862 345.244 613.373 345.244 612.821L345.237 595.329C345.237 594.77 344.728 594.275 344.039 594.275H343.57C343.202 594.275 342.934 594.007 342.934 593.672C342.934 593.304 343.202 593.036 343.57 593.036H361.483V599.029C361.483 599.397 361.215 599.665 360.847 599.665C360.512 599.665 360.244 599.397 360.244 599.029V598.895C360.244 596.585 358.872 594.275 356.126 594.275H352.135C351.452 594.275 350.936 594.753 350.936 595.316L350.939 602.98H351.338C353.749 602.98 354.954 602.11 354.954 599.732V599.665C354.954 599.33 355.255 599.029 355.59 599.029C355.925 599.029 356.226 599.33 356.226 599.665V607.601C356.226 607.936 355.925 608.237 355.59 608.237C355.255 608.237 354.954 607.969 354.954 607.5V607.433C354.954 605.223 353.816 604.286 351.338 604.286H350.939L350.943 612.807C350.943 613.373 351.452 613.862 352.141 613.862H356.126C358.872 613.862 360.244 611.552 360.244 609.241V609.108C360.244 608.739 360.512 608.471 360.881 608.471ZM379.142 603.476C383.703 603.847 386.562 605.351 386.562 608.94C386.562 612.958 383.214 615.101 376.986 615.101H365.407C365.039 615.101 364.771 614.833 364.771 614.465C364.771 614.13 365.039 613.862 365.407 613.862H365.876C366.613 613.862 367.082 613.293 367.082 612.69L367.075 595.446C367.075 594.844 366.606 594.275 365.869 594.275H365.401C365.032 594.275 364.765 594.007 364.765 593.672C364.765 593.304 365.032 593.036 365.401 593.036H376.216C381.205 593.036 385.256 594.208 385.256 597.991C385.256 600.66 383.364 602.819 379.142 603.476ZM372.794 595.446V603.148H374.207C376.885 603.148 378.995 601.775 378.995 598.527C378.995 595.972 377.515 594.305 373.999 594.275H373.932C373.253 594.275 372.794 594.871 372.794 595.446ZM374.676 613.862C377.823 613.862 380.267 612.121 380.267 609.041C380.267 606.094 378.057 604.453 374.676 604.453H372.801V612.69C372.801 613.293 373.269 613.862 374.006 613.862H374.676ZM398.013 613.862C398.382 613.862 398.649 614.13 398.649 614.465C398.649 614.833 398.382 615.101 398.013 615.101H388.98C388.611 615.101 388.343 614.833 388.343 614.465C388.343 614.13 388.611 613.862 388.98 613.862H389.448C390.131 613.862 390.647 613.383 390.647 612.821L390.64 595.329C390.64 594.763 390.131 594.275 389.442 594.275H388.973C388.605 594.275 388.337 594.007 388.337 593.672C388.337 593.304 388.605 593.036 388.973 593.036H398.007C398.375 593.036 398.643 593.304 398.643 593.672C398.643 594.007 398.375 594.275 398.007 594.275H397.538C396.855 594.275 396.339 594.763 396.339 595.316L396.346 612.807C396.346 613.367 396.855 613.862 397.544 613.862H398.013ZM409.967 593.036C418.271 593.036 423.427 595.815 423.427 603.918C423.427 610.279 418.873 615.101 409.967 615.101H400.632C400.263 615.101 399.995 614.833 399.995 614.465C399.995 614.13 400.263 613.862 400.632 613.862H401.1C401.783 613.862 402.299 613.373 402.299 612.821L402.292 595.329C402.292 594.77 401.783 594.275 401.094 594.275H400.625C400.257 594.275 399.989 594.007 399.989 593.672C399.989 593.304 400.257 593.036 400.625 593.036H409.967ZM409.967 613.862C414.219 613.862 417.132 610.849 417.132 603.918C417.132 596.92 414.587 594.275 409.967 594.275H409.19C408.507 594.275 407.991 594.763 407.991 595.316L407.998 612.807C407.998 613.367 408.507 613.862 409.197 613.862H409.967ZM448.707 613.862C449.041 613.862 449.343 614.13 449.343 614.498C449.343 614.833 449.041 615.101 448.707 615.101H438.193C437.858 615.101 437.557 614.833 437.557 614.498C437.557 614.13 437.858 613.862 438.193 613.862H439.398C440.085 613.862 440.497 613.336 440.202 612.69L438.39 608.605H430.843L429.152 612.69C428.918 613.306 429.29 613.862 429.956 613.862H431.161C431.496 613.862 431.798 614.13 431.798 614.498C431.798 614.833 431.496 615.101 431.161 615.101H425.302C424.967 615.101 424.666 614.833 424.666 614.498C424.666 614.13 424.967 613.862 425.302 613.862H426.106C426.976 613.862 427.344 613.427 427.646 612.69L435.883 592.835H437.657L446.329 612.724C446.597 613.326 447.032 613.862 447.97 613.862H448.707ZM431.342 607.4H437.858L434.49 599.803L431.342 607.4ZM458.952 615.503C454.198 615.503 450.749 612.757 450.749 609.509C450.749 607.768 451.988 606.931 453.193 606.931C454.265 606.931 455.336 607.634 455.336 609.007C455.336 610.279 454.164 610.882 454.164 611.719C454.164 613.192 456.441 614.23 458.383 614.23C460.794 614.23 463.439 613.126 463.439 610.246C463.439 605.458 451.318 607.668 451.318 599.431C451.318 594.475 455.638 592.634 460.292 592.634C464.377 592.634 468.194 594.944 468.194 598.058C468.194 599.9 466.955 600.77 465.783 600.77C464.678 600.77 463.607 600.034 463.607 598.661C463.607 597.255 464.745 596.92 464.745 596.083C464.745 594.71 462.468 593.906 460.56 593.906C458.015 593.906 455.772 594.944 455.772 597.623C455.772 602.21 468.729 600.502 468.729 608.572C468.729 612.288 465.08 615.503 458.952 615.503Z" fill="#111111"/>
</svg>
